<?xml version="1.0" encoding="utf-8" standalone="no"?>
<!DOCTYPE svg PUBLIC "-//W3C//DTD SVG 1.1//EN"
  "http://www.w3.org/Graphics/SVG/1.1/DTD/svg11.dtd">
<svg xmlns:xlink="http://www.w3.org/1999/xlink" width="344.896452pt" height="354.806376pt" viewBox="0 0 344.896452 354.806376" xmlns="http://www.w3.org/2000/svg" version="1.1">
 <metadata>
  <rdf:RDF xmlns:dc="http://purl.org/dc/elements/1.1/" xmlns:cc="http://creativecommons.org/ns#" xmlns:rdf="http://www.w3.org/1999/02/22-rdf-syntax-ns#">
   <cc:Work>
    <dc:type rdf:resource="http://purl.org/dc/dcmitype/StillImage"/>
    <dc:date>2024-06-04T13:42:16.068133</dc:date>
    <dc:format>image/svg+xml</dc:format>
    <dc:creator>
     <cc:Agent>
      <dc:title>Matplotlib v3.9.0, https://matplotlib.org/</dc:title>
     </cc:Agent>
    </dc:creator>
   </cc:Work>
  </rdf:RDF>
 </metadata>
 <defs>
  <style type="text/css">*{stroke-linejoin: round; stroke-linecap: butt}</style>
 </defs>
 <g id="figure_1">
  <g id="patch_1">
   <path d="M 0 354.806376 
L 344.896452 354.806376 
L 344.896452 0 
L 0 0 
z
" style="fill: #ffffff"/>
  </g>
  <g id="patch_2">
   <path d="M 3.6 351.206376 
L 336.24 351.206376 
L 336.24 18.566376 
L 3.6 18.566376 
z
" style="fill: #ffffff"/>
  </g>
  <g id="pane3d_1">
   <g id="patch_3">
    <path d="M 28.716614 269.188012 
L 138.565206 177.110745 
L 137.038205 44.318865 
L 21.932792 128.317552 
" style="fill: #f2f2f2; opacity: 0.5; stroke: #f2f2f2; stroke-linejoin: miter"/>
   </g>
  </g>
  <g id="pane3d_2">
   <g id="patch_4">
    <path d="M 138.565206 177.110745 
L 314.833001 228.344834 
L 321.123377 90.97909 
L 137.038205 44.318865 
" style="fill: #e6e6e6; opacity: 0.5; stroke: #e6e6e6; stroke-linejoin: miter"/>
   </g>
  </g>
  <g id="pane3d_3">
   <g id="patch_5">
    <path d="M 28.716614 269.188012 
L 215.569086 330.214029 
L 314.833001 228.344834 
L 138.565206 177.110745 
" style="fill: #ececec; opacity: 0.5; stroke: #ececec; stroke-linejoin: miter"/>
   </g>
  </g>
  <g id="grid3d_1">
   <g id="Line3DCollection_1">
    <path d="M 51.016504 276.471156 
L 159.683799 183.249086 
L 159.052447 49.898833 
" style="fill: none; stroke: #b0b0b0; stroke-width: 0.5"/>
    <path d="M 119.679852 298.896606 
L 224.57006 202.108961 
L 226.760231 67.060783 
" style="fill: none; stroke: #b0b0b0; stroke-width: 0.5"/>
    <path d="M 191.11323 322.226747 
L 291.850883 221.664839 
L 297.077919 84.884267 
" style="fill: none; stroke: #b0b0b0; stroke-width: 0.5"/>
    <path d="M 34.264694 271.000015 
L 143.82147 178.638533 
L 142.51635 45.707415 
" style="fill: none; stroke: #b0b0b0; stroke-width: 0.5"/>
    <path d="M 67.931505 281.995596 
L 175.687896 187.900845 
L 175.742698 54.129326 
" style="fill: none; stroke: #b0b0b0; stroke-width: 0.5"/>
    <path d="M 85.012093 287.574116 
L 191.835671 192.594366 
L 192.589268 58.39944 
" style="fill: none; stroke: #b0b0b0; stroke-width: 0.5"/>
    <path d="M 102.260711 293.207514 
L 208.129066 197.330213 
L 209.594363 62.709736 
" style="fill: none; stroke: #b0b0b0; stroke-width: 0.5"/>
    <path d="M 137.272056 304.642219 
L 241.160668 206.931195 
L 244.089164 71.453162 
" style="fill: none; stroke: #b0b0b0; stroke-width: 0.5"/>
    <path d="M 155.039915 310.445202 
L 257.902942 211.797513 
L 261.583496 75.887465 
" style="fill: none; stroke: #b0b0b0; stroke-width: 0.5"/>
    <path d="M 172.986074 316.306418 
L 274.798971 216.708522 
L 279.245605 80.364295 
" style="fill: none; stroke: #b0b0b0; stroke-width: 0.5"/>
    <path d="M 209.424135 328.207088 
L 309.060844 226.667096 
L 315.082907 89.448007 
" style="fill: none; stroke: #b0b0b0; stroke-width: 0.5"/>
   </g>
  </g>
  <g id="grid3d_2">
   <g id="Line3DCollection_2">
    <path d="M 29.751299 122.611962 
L 36.151688 262.955786 
L 222.315448 323.290603 
" style="fill: none; stroke: #b0b0b0; stroke-width: 0.5"/>
    <path d="M 82.045974 84.44969 
L 85.980369 221.188398 
L 267.424434 276.997686 
" style="fill: none; stroke: #b0b0b0; stroke-width: 0.5"/>
    <path d="M 130.421742 49.147258 
L 132.228278 182.422483 
L 309.130457 234.197046 
" style="fill: none; stroke: #b0b0b0; stroke-width: 0.5"/>
    <path d="M 43.218147 112.78447 
L 48.96708 252.21367 
L 233.934269 311.366834 
" style="fill: none; stroke: #b0b0b0; stroke-width: 0.5"/>
    <path d="M 56.417672 103.152058 
L 61.539123 241.675535 
L 245.320821 299.68143 
" style="fill: none; stroke: #b0b0b0; stroke-width: 0.5"/>
    <path d="M 69.357756 93.708974 
L 73.874682 231.335624 
L 256.482001 288.227314 
" style="fill: none; stroke: #b0b0b0; stroke-width: 0.5"/>
    <path d="M 94.489608 75.368893 
L 97.862548 211.228519 
L 278.154487 265.986012 
" style="fill: none; stroke: #b0b0b0; stroke-width: 0.5"/>
    <path d="M 106.695663 66.461469 
L 109.527355 201.450847 
L 288.678286 255.186005 
" style="fill: none; stroke: #b0b0b0; stroke-width: 0.5"/>
    <path d="M 118.670879 57.722503 
L 120.980698 191.850427 
L 299.00172 244.591622 
" style="fill: none; stroke: #b0b0b0; stroke-width: 0.5"/>
   </g>
  </g>
  <g id="grid3d_3">
   <g id="Line3DCollection_3">
    <path d="M 315.971024 203.493303 
L 138.28847 153.045126 
L 27.491012 243.737604 
" style="fill: none; stroke: #b0b0b0; stroke-width: 0.5"/>
    <path d="M 317.909284 161.16667 
L 137.817627 112.09936 
L 25.401871 200.355233 
" style="fill: none; stroke: #b0b0b0; stroke-width: 0.5"/>
    <path d="M 319.90136 117.664828 
L 137.334348 70.072197 
L 23.252461 155.721342 
" style="fill: none; stroke: #b0b0b0; stroke-width: 0.5"/>
   </g>
  </g>
  <g id="axis3d_1">
   <g id="line2d_1">
    <path d="M 28.716614 269.188012 
L 215.569086 330.214029 
" style="fill: none; stroke: #000000; stroke-width: 0.5; stroke-linecap: square"/>
   </g>
   <g id="xtick_1">
    <g id="line2d_2">
     <path d="M 51.963017 275.659175 
L 49.119404 278.098615 
" style="fill: none; stroke: #000000; stroke-width: 0.5; stroke-linecap: square"/>
    </g>
    <g id="text_1">
     <!-- -6 -->
     <g transform="translate(39.350743 299.149345) scale(0.1 -0.1)">
      <defs>
       <path id="CMR17-2d" d="M 1632 1216 
L 1632 1496 
L 26 1496 
L 26 1216 
L 1632 1216 
z
" transform="scale(0.015625)"/>
       <path id="CMR17-36" d="M 678 2176 
C 678 3690 1395 4032 1811 4032 
C 1946 4032 2272 4009 2400 3776 
C 2298 3776 2106 3776 2106 3553 
C 2106 3381 2246 3323 2336 3323 
C 2394 3323 2566 3348 2566 3560 
C 2566 3954 2246 4179 1805 4179 
C 1043 4179 243 3390 243 1984 
C 243 253 966 -128 1478 -128 
C 2099 -128 2688 427 2688 1283 
C 2688 2081 2170 2662 1517 2662 
C 1126 2662 838 2407 678 1960 
L 678 2176 
z
M 1478 25 
C 691 25 691 1200 691 1436 
C 691 1896 909 2560 1504 2560 
C 1613 2560 1926 2560 2138 2120 
C 2253 1870 2253 1609 2253 1289 
C 2253 944 2253 690 2118 434 
C 1978 171 1773 25 1478 25 
z
" transform="scale(0.015625)"/>
      </defs>
      <use xlink:href="#CMR17-2d" transform="scale(0.996264)"/>
      <use xlink:href="#CMR17-36" transform="translate(30.075966 0) scale(0.996264)"/>
     </g>
    </g>
   </g>
   <g id="xtick_2">
    <g id="line2d_3">
     <path d="M 120.594937 298.052209 
L 117.845664 300.589106 
" style="fill: none; stroke: #000000; stroke-width: 0.5; stroke-linecap: square"/>
    </g>
    <g id="text_2">
     <!-- 0 -->
     <g transform="translate(109.734243 321.955524) scale(0.1 -0.1)">
      <defs>
       <path id="CMR17-30" d="M 2688 2025 
C 2688 2416 2682 3080 2413 3591 
C 2176 4039 1798 4198 1466 4198 
C 1158 4198 768 4058 525 3597 
C 269 3118 243 2524 243 2025 
C 243 1661 250 1106 448 619 
C 723 -39 1216 -128 1466 -128 
C 1760 -128 2208 -7 2470 600 
C 2662 1042 2688 1559 2688 2025 
z
M 1466 -26 
C 1056 -26 813 325 723 812 
C 653 1188 653 1738 653 2096 
C 653 2588 653 2997 736 3387 
C 858 3929 1216 4096 1466 4096 
C 1728 4096 2067 3923 2189 3400 
C 2272 3036 2278 2607 2278 2096 
C 2278 1680 2278 1169 2202 792 
C 2067 95 1690 -26 1466 -26 
z
" transform="scale(0.015625)"/>
      </defs>
      <use xlink:href="#CMR17-30" transform="scale(0.996264)"/>
     </g>
    </g>
   </g>
   <g id="xtick_3">
    <g id="line2d_4">
     <path d="M 191.993558 321.347955 
L 189.348631 323.988267 
" style="fill: none; stroke: #000000; stroke-width: 0.5; stroke-linecap: square"/>
    </g>
    <g id="text_3">
     <!-- 6 -->
     <g transform="translate(181.238345 345.684608) scale(0.1 -0.1)">
      <use xlink:href="#CMR17-36" transform="scale(0.996264)"/>
     </g>
    </g>
   </g>
   <g id="xtick_4">
    <g id="line2d_5">
     <path d="M 35.218579 270.195846 
L 32.352837 272.6118 
" style="fill: none; stroke: #000000; stroke-width: 0.5; stroke-linecap: square"/>
    </g>
   </g>
   <g id="xtick_5">
    <g id="line2d_6">
     <path d="M 68.870456 281.175687 
L 66.049541 283.638959 
" style="fill: none; stroke: #000000; stroke-width: 0.5; stroke-linecap: square"/>
    </g>
   </g>
   <g id="xtick_6">
    <g id="line2d_7">
     <path d="M 85.943288 286.746164 
L 83.145654 289.233617 
" style="fill: none; stroke: #000000; stroke-width: 0.5; stroke-linecap: square"/>
    </g>
   </g>
   <g id="xtick_7">
    <g id="line2d_8">
     <path d="M 103.183953 292.371401 
L 100.410194 294.883394 
" style="fill: none; stroke: #000000; stroke-width: 0.5; stroke-linecap: square"/>
    </g>
   </g>
   <g id="xtick_8">
    <g id="line2d_9">
     <path d="M 138.178776 303.789416 
L 135.454614 306.351589 
" style="fill: none; stroke: #000000; stroke-width: 0.5; stroke-linecap: square"/>
    </g>
   </g>
   <g id="xtick_9">
    <g id="line2d_10">
     <path d="M 155.938058 309.583865 
L 153.239647 312.171695 
" style="fill: none; stroke: #000000; stroke-width: 0.5; stroke-linecap: square"/>
    </g>
   </g>
   <g id="xtick_10">
    <g id="line2d_11">
     <path d="M 173.875421 315.436419 
L 171.203417 318.050292 
" style="fill: none; stroke: #000000; stroke-width: 0.5; stroke-linecap: square"/>
    </g>
   </g>
   <g id="xtick_11">
    <g id="line2d_12">
     <path d="M 210.295214 327.319369 
L 207.678054 329.986523 
" style="fill: none; stroke: #000000; stroke-width: 0.5; stroke-linecap: square"/>
    </g>
   </g>
  </g>
  <g id="axis3d_2">
   <g id="line2d_13">
    <path d="M 314.833001 228.344834 
L 215.569086 330.214029 
" style="fill: none; stroke: #000000; stroke-width: 0.5; stroke-linecap: square"/>
   </g>
   <g id="xtick_12">
    <g id="line2d_14">
     <path d="M 220.746632 322.782157 
L 225.457137 324.30881 
" style="fill: none; stroke: #000000; stroke-width: 0.5; stroke-linecap: square"/>
    </g>
    <g id="text_4">
     <!-- -7 -->
     <g transform="translate(231.044741 343.632269) scale(0.1 -0.1)">
      <defs>
       <path id="CMR17-37" d="M 2886 3941 
L 2886 4081 
L 1382 4081 
C 634 4081 621 4165 595 4288 
L 480 4288 
L 294 3094 
L 410 3094 
C 429 3215 474 3540 550 3661 
C 589 3712 1062 3712 1171 3712 
L 2579 3712 
L 1869 2661 
C 1395 1954 1069 999 1069 165 
C 1069 89 1069 -128 1299 -128 
C 1530 -128 1530 89 1530 171 
L 1530 465 
C 1530 1508 1709 2196 2003 2636 
L 2886 3941 
z
" transform="scale(0.015625)"/>
      </defs>
      <use xlink:href="#CMR17-2d" transform="scale(0.996264)"/>
      <use xlink:href="#CMR17-37" transform="translate(30.075966 0) scale(0.996264)"/>
     </g>
    </g>
   </g>
   <g id="xtick_13">
    <g id="line2d_15">
     <path d="M 265.898427 276.528311 
L 270.480239 277.937603 
" style="fill: none; stroke: #000000; stroke-width: 0.5; stroke-linecap: square"/>
    </g>
    <g id="text_5">
     <!-- 0 -->
     <g transform="translate(277.329809 296.791646) scale(0.1 -0.1)">
      <use xlink:href="#CMR17-30" transform="scale(0.996264)"/>
     </g>
    </g>
   </g>
   <g id="xtick_14">
    <g id="line2d_16">
     <path d="M 307.645386 233.762406 
L 312.10415 235.067367 
" style="fill: none; stroke: #000000; stroke-width: 0.5; stroke-linecap: square"/>
    </g>
    <g id="text_6">
     <!-- 7 -->
     <g transform="translate(318.586525 253.486182) scale(0.1 -0.1)">
      <use xlink:href="#CMR17-37" transform="scale(0.996264)"/>
     </g>
    </g>
   </g>
   <g id="xtick_15">
    <g id="line2d_17">
     <path d="M 232.376333 310.868601 
L 237.054128 312.364576 
" style="fill: none; stroke: #000000; stroke-width: 0.5; stroke-linecap: square"/>
    </g>
   </g>
   <g id="xtick_16">
    <g id="line2d_18">
     <path d="M 243.773647 299.193105 
L 248.41909 300.659318 
" style="fill: none; stroke: #000000; stroke-width: 0.5; stroke-linecap: square"/>
    </g>
   </g>
   <g id="xtick_17">
    <g id="line2d_19">
     <path d="M 254.94547 287.748605 
L 259.558919 289.185935 
" style="fill: none; stroke: #000000; stroke-width: 0.5; stroke-linecap: square"/>
    </g>
   </g>
   <g id="xtick_18">
    <g id="line2d_20">
     <path d="M 276.638888 265.5257 
L 281.189415 266.907767 
" style="fill: none; stroke: #000000; stroke-width: 0.5; stroke-linecap: square"/>
    </g>
   </g>
   <g id="xtick_19">
    <g id="line2d_21">
     <path d="M 287.172978 254.734498 
L 291.692571 256.09012 
" style="fill: none; stroke: #000000; stroke-width: 0.5; stroke-linecap: square"/>
    </g>
   </g>
   <g id="xtick_20">
    <g id="line2d_22">
     <path d="M 297.506588 244.148669 
L 301.995594 245.478599 
" style="fill: none; stroke: #000000; stroke-width: 0.5; stroke-linecap: square"/>
    </g>
   </g>
  </g>
  <g id="axis3d_3">
   <g id="line2d_23">
    <path d="M 314.833001 228.344834 
L 321.123377 90.97909 
" style="fill: none; stroke: #000000; stroke-width: 0.5; stroke-linecap: square"/>
   </g>
   <g id="xtick_21">
    <g id="line2d_24">
     <path d="M 314.479213 203.069743 
L 318.958224 204.341438 
" style="fill: none; stroke: #000000; stroke-width: 0.5; stroke-linecap: square"/>
    </g>
    <g id="text_7">
     <!-- -5 -->
     <g transform="translate(330.224382 207.844293) scale(0.1 -0.1)">
      <defs>
       <path id="CMR17-35" d="M 730 3692 
C 794 3666 1056 3584 1325 3584 
C 1920 3584 2246 3911 2432 4100 
C 2432 4157 2432 4192 2394 4192 
C 2387 4192 2374 4192 2323 4163 
C 2099 4058 1837 3973 1517 3973 
C 1325 3973 1037 3999 723 4139 
C 653 4171 640 4171 634 4171 
C 602 4171 595 4164 595 4037 
L 595 2203 
C 595 2089 595 2057 659 2057 
C 691 2057 704 2070 736 2114 
C 941 2401 1222 2522 1542 2522 
C 1766 2522 2246 2382 2246 1289 
C 2246 1085 2246 715 2054 421 
C 1894 159 1645 25 1370 25 
C 947 25 518 320 403 814 
C 429 807 480 795 506 795 
C 589 795 749 840 749 1038 
C 749 1210 627 1280 506 1280 
C 358 1280 262 1190 262 1011 
C 262 454 704 -128 1382 -128 
C 2042 -128 2669 440 2669 1264 
C 2669 2030 2170 2624 1549 2624 
C 1222 2624 947 2503 730 2274 
L 730 3692 
z
" transform="scale(0.015625)"/>
      </defs>
      <use xlink:href="#CMR17-2d" transform="scale(0.996264)"/>
      <use xlink:href="#CMR17-35" transform="translate(30.075966 0) scale(0.996264)"/>
     </g>
    </g>
   </g>
   <g id="xtick_22">
    <g id="line2d_25">
     <path d="M 316.39627 160.754438 
L 320.938989 161.992136 
" style="fill: none; stroke: #000000; stroke-width: 0.5; stroke-linecap: square"/>
    </g>
    <g id="text_8">
     <!-- 0 -->
     <g transform="translate(334.069711 165.586396) scale(0.1 -0.1)">
      <use xlink:href="#CMR17-30" transform="scale(0.996264)"/>
     </g>
    </g>
   </g>
   <g id="xtick_23">
    <g id="line2d_26">
     <path d="M 318.366532 117.26472 
L 322.974796 118.466029 
" style="fill: none; stroke: #000000; stroke-width: 0.5; stroke-linecap: square"/>
    </g>
    <g id="text_9">
     <!-- 5 -->
     <g transform="translate(336.315116 122.158114) scale(0.1 -0.1)">
      <use xlink:href="#CMR17-35" transform="scale(0.996264)"/>
     </g>
    </g>
   </g>
  </g>
  <g id="axes_1">
   <g id="Line3DCollection_4">
    <path d="M 174.415135 136.328975 
L 174.415135 180.391241 
" clip-path="url(#p227d805204)" style="fill: none; stroke: #800080"/>
    <path d="M 174.415135 136.328975 
L 169.877832 147.954532 
" clip-path="url(#p227d805204)" style="fill: none; stroke: #800080"/>
    <path d="M 174.415135 136.328975 
L 178.963917 150.498714 
" clip-path="url(#p227d805204)" style="fill: none; stroke: #800080"/>
   </g>
   <g id="text_10">
    <!-- Retículo 3-Dimensional definido por la base $\{\mathbf{b_1},\mathbf{b_2},\mathbf{b_3}\}$ -->
    <g transform="translate(25.711947 12.566376) scale(0.12 -0.12)">
     <defs>
      <path id="CMR17-52" d="M 2509 2146 
C 3117 2268 3629 2676 3629 3186 
C 3629 3785 2950 4326 2054 4326 
L 333 4326 
L 333 4160 
C 774 4160 845 4160 845 3873 
L 845 415 
C 845 128 774 128 333 128 
L 333 -26 
C 518 -26 851 -26 1050 -26 
C 1248 -26 1581 -26 1766 -26 
L 1766 128 
C 1325 128 1254 128 1254 417 
L 1254 2112 
L 2003 2112 
C 2368 2112 2573 1964 2662 1881 
C 2918 1632 2918 1459 2918 1024 
C 2918 595 2918 377 3110 160 
C 3354 -102 3680 -128 3821 -128 
C 4294 -128 4365 396 4365 503 
C 4365 540 4365 585 4307 585 
C 4256 585 4250 547 4250 522 
C 4218 112 4032 -26 3834 -26 
C 3482 -26 3443 375 3405 764 
C 3386 898 3373 993 3360 1133 
C 3322 1452 3270 1917 2509 2146 
z
M 1984 2214 
L 1254 2214 
L 1254 3913 
C 1254 4129 1267 4160 1523 4160 
L 1990 4160 
C 2522 4160 3142 3977 3142 3190 
C 3142 2372 2464 2214 1984 2214 
z
" transform="scale(0.015625)"/>
      <path id="CMR17-65" d="M 2438 1472 
C 2464 1498 2464 1511 2464 1576 
C 2464 2238 2118 2816 1389 2816 
C 710 2816 173 2169 173 1383 
C 173 551 781 -64 1459 -64 
C 2176 -64 2458 607 2458 740 
C 2458 784 2419 784 2406 784 
C 2362 784 2355 771 2330 696 
C 2189 265 1837 51 1504 51 
C 1229 51 954 203 781 480 
C 582 803 582 1176 582 1472 
L 2438 1472 
z
M 589 1568 
C 634 2505 1126 2714 1382 2714 
C 1818 2714 2112 2297 2118 1568 
L 589 1568 
z
" transform="scale(0.015625)"/>
      <path id="CMR17-74" d="M 966 2560 
L 1862 2560 
L 1862 2725 
L 966 2725 
L 966 3904 
L 851 3904 
C 838 3245 614 2668 70 2668 
L 70 2560 
L 627 2560 
L 627 771 
C 627 650 627 -64 1370 -64 
C 1747 -64 1965 306 1965 777 
L 1965 1140 
L 1850 1140 
L 1850 783 
C 1850 344 1677 51 1408 51 
C 1222 51 966 178 966 758 
L 966 2560 
z
" transform="scale(0.015625)"/>
      <path id="CMR17-13" d="M 2221 4091 
C 2298 4161 2317 4174 2317 4244 
C 2317 4339 2234 4416 2144 4416 
C 2067 4416 2042 4384 1978 4308 
L 1254 3390 
C 1210 3333 1210 3327 1210 3320 
C 1210 3314 1267 3256 1280 3244 
L 2221 4091 
z
" transform="scale(0.015625)"/>
      <path id="CMR17-10" d="M 979 2763 
L 243 2693 
L 243 2528 
C 602 2528 653 2489 653 2186 
L 653 425 
C 653 184 627 153 218 153 
L 218 -13 
C 371 0 646 0 806 0 
C 960 0 1222 0 1370 -13 
L 1370 153 
C 992 153 979 191 979 419 
L 979 2763 
z
" transform="scale(0.015625)"/>
      <path id="CMR17-63" d="M 2234 2240 
C 2112 2240 1933 2240 1933 2017 
C 1933 1838 2080 1787 2163 1787 
C 2208 1787 2394 1807 2394 2024 
C 2394 2467 1958 2803 1466 2803 
C 787 2803 211 2178 211 1363 
C 211 516 813 -64 1466 -64 
C 2259 -64 2458 677 2458 748 
C 2458 774 2451 793 2406 793 
C 2362 793 2355 787 2330 703 
C 2163 180 1798 51 1523 51 
C 1114 51 621 427 621 1369 
C 621 2338 1094 2688 1472 2688 
C 1722 2688 2093 2573 2234 2240 
z
" transform="scale(0.015625)"/>
      <path id="CMR17-75" d="M 1882 2693 
L 1882 2528 
C 2259 2528 2317 2489 2317 2186 
L 2317 1032 
C 2317 500 2029 38 1555 38 
C 1030 38 986 348 986 678 
L 986 2763 
L 211 2693 
L 211 2528 
C 467 2528 640 2528 646 2274 
L 646 1058 
C 646 633 646 361 813 183 
C 896 101 1056 -64 1517 -64 
C 2061 -64 2272 377 2323 506 
L 2330 506 
L 2330 -63 
L 3091 -63 
L 3091 128 
C 2714 128 2656 166 2656 473 
L 2656 2763 
L 1882 2693 
z
" transform="scale(0.015625)"/>
      <path id="CMR17-6c" d="M 979 4396 
L 218 4326 
L 218 4160 
C 595 4160 653 4122 653 3817 
L 653 426 
C 653 184 627 153 218 153 
L 218 -13 
C 371 0 653 0 813 0 
C 979 0 1261 0 1414 -13 
L 1414 153 
C 1005 153 979 178 979 426 
L 979 4396 
z
" transform="scale(0.015625)"/>
      <path id="CMR17-6f" d="M 2758 1356 
C 2758 2176 2163 2816 1466 2816 
C 768 2816 173 2176 173 1356 
C 173 551 768 -64 1466 -64 
C 2163 -64 2758 551 2758 1356 
z
M 1466 51 
C 1165 51 909 230 762 480 
C 602 767 582 1126 582 1408 
C 582 1677 595 2010 762 2298 
C 890 2509 1139 2714 1466 2714 
C 1754 2714 1997 2554 2150 2330 
C 2349 2029 2349 1607 2349 1408 
C 2349 1158 2336 775 2163 467 
C 1984 173 1709 51 1466 51 
z
" transform="scale(0.015625)"/>
      <path id="CMR17-33" d="M 1414 2157 
C 1984 2157 2234 1662 2234 1090 
C 2234 320 1824 25 1453 25 
C 1114 25 563 194 390 693 
C 422 680 454 680 486 680 
C 640 680 755 782 755 948 
C 755 1133 614 1216 486 1216 
C 378 1216 211 1165 211 926 
C 211 335 787 -128 1466 -128 
C 2176 -128 2720 430 2720 1085 
C 2720 1707 2208 2157 1600 2227 
C 2086 2328 2554 2756 2554 3329 
C 2554 3820 2048 4179 1472 4179 
C 890 4179 378 3829 378 3329 
C 378 3110 544 3072 627 3072 
C 762 3072 877 3155 877 3321 
C 877 3486 762 3569 627 3569 
C 602 3569 570 3569 544 3557 
C 730 3959 1235 4032 1459 4032 
C 1683 4032 2106 3925 2106 3320 
C 2106 3143 2080 2828 1862 2550 
C 1670 2304 1453 2304 1242 2284 
C 1210 2284 1062 2269 1037 2269 
C 992 2263 966 2257 966 2208 
C 966 2163 973 2157 1101 2157 
L 1414 2157 
z
" transform="scale(0.015625)"/>
      <path id="CMR17-44" d="M 333 4352 
L 333 4186 
C 774 4186 845 4186 845 3900 
L 845 452 
C 845 166 774 166 333 166 
L 333 0 
L 2368 0 
C 3398 0 4224 943 4224 2141 
C 4224 3346 3411 4352 2368 4352 
L 333 4352 
z
M 1523 166 
C 1267 166 1254 197 1254 414 
L 1254 3938 
C 1254 4155 1267 4186 1523 4186 
L 2240 4186 
C 2771 4186 3750 3874 3750 2141 
C 3750 1242 3488 879 3366 707 
C 3213 510 2848 166 2240 166 
L 1523 166 
z
" transform="scale(0.015625)"/>
      <path id="CMR17-69" d="M 992 3909 
C 992 4049 877 4170 730 4170 
C 589 4170 467 4056 467 3909 
C 467 3769 582 3648 730 3648 
C 870 3648 992 3763 992 3909 
z
M 243 2706 
L 243 2541 
C 602 2541 653 2502 653 2197 
L 653 427 
C 653 184 627 153 218 153 
L 218 -13 
C 371 0 646 0 806 0 
C 960 0 1222 0 1370 -13 
L 1370 153 
C 992 153 979 191 979 420 
L 979 2776 
L 243 2706 
z
" transform="scale(0.015625)"/>
      <path id="CMR17-6d" d="M 4326 1933 
C 4326 2252 4269 2790 3507 2790 
C 3072 2790 2771 2496 2656 2151 
L 2650 2151 
C 2573 2676 2195 2790 1837 2790 
C 1331 2790 1069 2400 973 2144 
L 966 2144 
L 966 2790 
L 211 2720 
L 211 2554 
C 589 2554 646 2515 646 2208 
L 646 428 
C 646 184 621 153 211 153 
L 211 -13 
C 365 0 646 0 813 0 
C 979 0 1267 0 1421 -13 
L 1421 153 
C 1011 153 986 178 986 428 
L 986 1658 
C 986 2247 1344 2688 1792 2688 
C 2266 2688 2317 2266 2317 1958 
L 2317 428 
C 2317 184 2291 153 1882 153 
L 1882 -13 
C 2035 0 2317 0 2483 0 
C 2650 0 2938 0 3091 -13 
L 3091 153 
C 2682 153 2656 178 2656 428 
L 2656 1658 
C 2656 2247 3014 2688 3462 2688 
C 3936 2688 3987 2266 3987 1958 
L 3987 428 
C 3987 184 3962 153 3552 153 
L 3552 -13 
C 3706 0 3987 0 4154 0 
C 4320 0 4608 0 4762 -13 
L 4762 153 
C 4352 153 4326 178 4326 428 
L 4326 1933 
z
" transform="scale(0.015625)"/>
      <path id="CMR17-6e" d="M 2656 1933 
C 2656 2259 2592 2790 1837 2790 
C 1331 2790 1069 2400 973 2144 
L 966 2144 
L 966 2790 
L 211 2720 
L 211 2554 
C 589 2554 646 2515 646 2208 
L 646 428 
C 646 184 621 153 211 153 
L 211 -13 
C 365 0 646 0 813 0 
C 979 0 1267 0 1421 -13 
L 1421 153 
C 1011 153 986 178 986 428 
L 986 1658 
C 986 2247 1344 2688 1792 2688 
C 2266 2688 2317 2266 2317 1958 
L 2317 428 
C 2317 184 2291 153 1882 153 
L 1882 -13 
C 2035 0 2317 0 2483 0 
C 2650 0 2938 0 3091 -13 
L 3091 153 
C 2682 153 2656 178 2656 428 
L 2656 1933 
z
" transform="scale(0.015625)"/>
      <path id="CMR17-73" d="M 1978 2697 
C 1978 2813 1971 2819 1933 2819 
C 1907 2819 1901 2813 1824 2717 
C 1805 2691 1747 2626 1728 2601 
C 1523 2819 1235 2819 1126 2819 
C 416 2819 160 2447 160 2076 
C 160 1498 813 1365 998 1325 
C 1402 1243 1542 1217 1677 1101 
C 1760 1025 1901 884 1901 654 
C 1901 384 1747 38 1158 38 
C 602 38 403 460 288 1021 
C 269 1110 269 1117 218 1117 
C 166 1117 160 1110 160 983 
L 160 63 
C 160 -51 166 -58 205 -58 
C 237 -58 243 -51 275 0 
C 314 57 410 211 448 276 
C 576 103 800 -64 1158 -64 
C 1792 -64 2131 283 2131 784 
C 2131 1112 1958 1285 1875 1362 
C 1683 1561 1459 1606 1190 1657 
C 838 1735 390 1825 390 2217 
C 390 2383 480 2737 1126 2737 
C 1811 2737 1850 2094 1862 1888 
C 1869 1856 1901 1849 1920 1849 
C 1978 1849 1978 1869 1978 1978 
L 1978 2697 
z
" transform="scale(0.015625)"/>
      <path id="CMR17-61" d="M 2304 1653 
C 2304 2072 2304 2294 2035 2543 
C 1798 2752 1523 2816 1306 2816 
C 800 2816 435 2407 435 1971 
C 435 1728 627 1728 666 1728 
C 749 1728 896 1778 896 1954 
C 896 2112 774 2181 666 2181 
C 640 2181 608 2174 589 2168 
C 723 2592 1069 2714 1293 2714 
C 1613 2714 1965 2429 1965 1885 
L 1965 1600 
C 1587 1600 1133 1549 774 1357 
C 371 1133 256 813 256 570 
C 256 77 832 -64 1171 -64 
C 1523 -64 1850 139 1990 511 
C 2003 233 2182 -18 2464 -18 
C 2598 -18 2938 70 2938 567 
L 2938 920 
L 2822 920 
L 2822 562 
C 2822 178 2650 128 2566 128 
C 2304 128 2304 458 2304 738 
L 2304 1653 
z
M 1965 870 
C 1965 317 1568 38 1216 38 
C 896 38 646 275 646 570 
C 646 761 730 1100 1101 1305 
C 1408 1478 1760 1504 1965 1504 
L 1965 870 
z
" transform="scale(0.015625)"/>
      <path id="CMR17-64" d="M 1869 4326 
L 1869 4160 
C 2246 4160 2304 4122 2304 3820 
L 2304 2345 
C 2278 2377 2016 2790 1498 2790 
C 845 2790 211 2208 211 1364 
C 211 525 806 -64 1434 -64 
C 1978 -64 2259 337 2291 380 
L 2291 -63 
L 3066 -63 
L 3066 128 
C 2688 128 2630 166 2630 473 
L 2630 4396 
L 1869 4326 
z
M 2291 755 
C 2291 563 2176 390 2029 262 
C 1811 70 1594 38 1472 38 
C 1286 38 621 134 621 1356 
C 621 2612 1363 2688 1530 2688 
C 1824 2688 2061 2522 2208 2291 
C 2291 2157 2291 2138 2291 2023 
L 2291 755 
z
" transform="scale(0.015625)"/>
      <path id="CMR17-c" d="M 2554 2764 
C 2400 2764 1926 2764 1805 2739 
C 1766 2725 1754 2725 1677 2725 
L 947 2725 
L 947 3469 
C 947 4073 1434 4352 1818 4352 
C 1939 4352 2214 4320 2355 4101 
C 2291 4101 2086 4101 2086 3878 
C 2086 3725 2189 3648 2317 3648 
C 2432 3648 2547 3712 2547 3885 
C 2547 4205 2240 4454 1843 4454 
C 1338 4454 634 4168 634 3469 
L 634 2725 
L 122 2725 
L 122 2560 
L 634 2560 
L 634 427 
C 634 184 608 153 198 153 
L 198 -13 
C 352 0 634 0 794 0 
C 960 0 1242 0 1395 -13 
L 1395 153 
C 986 153 960 178 960 427 
L 960 2560 
L 1901 2560 
C 2176 2560 2227 2502 2227 2222 
L 2227 427 
C 2227 184 2202 153 1792 153 
L 1792 -13 
C 1946 0 2227 0 2387 0 
C 2554 0 2835 0 2989 -13 
L 2989 153 
C 2579 153 2554 178 2554 427 
L 2554 2764 
z
" transform="scale(0.015625)"/>
      <path id="CMR17-70" d="M 1408 -1063 
C 998 -1063 973 -1037 973 -789 
L 973 402 
C 1158 134 1427 -38 1766 -38 
C 2406 -38 3053 523 3053 1388 
C 3053 2191 2496 2802 1837 2802 
C 1453 2802 1139 2592 960 2338 
L 960 2802 
L 198 2732 
L 198 2567 
C 576 2567 634 2528 634 2223 
L 634 -789 
C 634 -1031 608 -1063 198 -1063 
L 198 -1228 
C 352 -1216 634 -1216 800 -1216 
C 966 -1216 1254 -1216 1408 -1228 
L 1408 -1063 
z
M 973 2012 
C 973 2102 973 2235 1222 2471 
C 1254 2497 1472 2688 1792 2688 
C 2259 2688 2643 2108 2643 1382 
C 2643 656 2234 64 1728 64 
C 1498 64 1248 172 1056 472 
C 973 612 973 650 973 752 
L 973 2012 
z
" transform="scale(0.015625)"/>
      <path id="CMR17-72" d="M 960 1497 
C 960 2112 1222 2688 1702 2688 
C 1747 2688 1792 2682 1837 2662 
C 1837 2662 1696 2617 1696 2452 
C 1696 2298 1818 2234 1914 2234 
C 1990 2234 2131 2279 2131 2458 
C 2131 2663 1926 2790 1709 2790 
C 1222 2790 1011 2317 947 2093 
L 941 2093 
L 941 2790 
L 198 2720 
L 198 2554 
C 576 2554 634 2515 634 2208 
L 634 428 
C 634 184 608 153 198 153 
L 198 -13 
C 352 0 646 0 813 0 
C 998 0 1325 0 1498 -13 
L 1498 153 
C 1037 153 960 153 960 440 
L 960 1497 
z
" transform="scale(0.015625)"/>
      <path id="CMR17-62" d="M 960 4396 
L 198 4326 
L 198 4160 
C 576 4160 634 4122 634 3817 
L 634 -13 
L 749 -13 
L 934 441 
C 1120 141 1395 -64 1766 -64 
C 2406 -64 3053 500 3053 1370 
C 3053 2188 2477 2790 1830 2790 
C 1434 2790 1152 2579 960 2330 
L 960 4396 
z
M 973 2004 
C 973 2118 973 2138 1062 2272 
C 1312 2657 1670 2688 1792 2688 
C 1984 2688 2643 2585 2643 1376 
C 2643 108 1888 38 1734 38 
C 1536 38 1248 114 1043 486 
C 973 608 973 621 973 735 
L 973 2004 
z
" transform="scale(0.015625)"/>
      <path id="CMSY10-66" d="M 1811 3962 
C 1811 4221 1978 4634 2675 4634 
C 2707 4642 2733 4672 2733 4718 
C 2733 4800 2682 4800 2611 4800 
C 1971 4800 1389 4471 1382 3993 
L 1382 2522 
C 1382 2270 1382 2063 1126 1851 
C 902 1664 659 1664 518 1664 
C 486 1657 461 1626 461 1580 
C 461 1504 499 1504 563 1504 
C 986 1504 1293 1274 1363 960 
C 1382 890 1382 877 1382 646 
L 1382 -621 
C 1382 -890 1382 -1094 1690 -1338 
C 1939 -1530 2362 -1600 2611 -1600 
C 2682 -1600 2733 -1600 2733 -1530 
C 2733 -1453 2694 -1453 2630 -1453 
C 2227 -1453 1914 -1248 1830 -920 
C 1811 -863 1811 -850 1811 -619 
L 1811 727 
C 1811 1023 1760 1132 1555 1337 
C 1421 1472 1235 1536 1056 1587 
C 1581 1736 1811 2034 1811 2409 
L 1811 3962 
z
" transform="scale(0.015625)"/>
      <path id="CMBX12-62" d="M 1331 4416 
L 224 4416 
L 224 4117 
C 621 4117 666 4117 666 3867 
L 666 0 
L 934 0 
C 1043 123 1152 247 1254 376 
C 1581 38 1933 -32 2189 -32 
C 3072 -32 3750 504 3750 1431 
C 3750 2305 3149 2880 2272 2880 
C 1894 2880 1594 2759 1331 2555 
L 1331 4416 
z
M 1363 2248 
C 1587 2555 1920 2670 2189 2670 
C 2982 2670 2982 1859 2982 1437 
C 2982 1149 2982 785 2829 548 
C 2630 241 2330 178 2125 178 
C 1690 178 1453 484 1363 625 
L 1363 2248 
z
" transform="scale(0.015625)"/>
      <path id="CMBX12-31" d="M 2214 3975 
C 2214 4160 2202 4160 1997 4160 
C 1523 3776 813 3776 672 3776 
L 550 3776 
L 550 3503 
L 672 3503 
C 896 3503 1235 3541 1491 3624 
L 1491 267 
L 602 267 
L 602 0 
C 870 0 1542 0 1843 0 
C 2144 0 2822 0 3091 0 
L 3091 267 
L 2214 267 
L 2214 3975 
z
" transform="scale(0.015625)"/>
      <path id="CMMI12-3b" d="M 1248 -31 
C 1248 343 1126 619 864 619 
C 659 619 557 453 557 313 
C 557 172 653 0 870 0 
C 954 0 1024 26 1082 83 
C 1094 96 1101 96 1107 96 
C 1120 96 1120 5 1120 -27 
C 1120 -240 1082 -659 710 -1080 
C 640 -1157 640 -1170 640 -1183 
C 640 -1216 672 -1248 704 -1248 
C 755 -1248 1248 -771 1248 -31 
z
" transform="scale(0.015625)"/>
      <path id="CMBX12-32" d="M 3232 1368 
L 2963 1368 
C 2944 1234 2899 858 2803 795 
C 2752 750 2253 750 2157 750 
L 1165 750 
C 1408 954 1990 1438 2086 1509 
C 2797 2038 3232 2362 3232 2974 
C 3232 3725 2547 4178 1702 4178 
C 979 4178 358 3770 358 3165 
C 358 2827 634 2732 781 2732 
C 979 2732 1210 2865 1210 3159 
C 1210 3427 1011 3560 813 3586 
C 1069 3879 1408 3904 1542 3904 
C 2131 3904 2413 3427 2413 2968 
C 2413 2471 2074 2013 1811 1739 
L 422 293 
C 358 235 358 223 358 108 
L 358 0 
L 3046 0 
L 3232 1368 
z
" transform="scale(0.015625)"/>
      <path id="CMBX12-33" d="M 1670 2112 
C 2387 2112 2387 1454 2387 1151 
C 2387 866 2387 196 1696 196 
C 1562 196 1139 196 832 424 
C 1107 481 1203 678 1203 868 
C 1203 1128 1018 1312 755 1312 
C 486 1312 301 1128 301 862 
C 301 278 941 -64 1728 -64 
C 2784 -64 3290 513 3290 1147 
C 3290 1459 3130 2061 2138 2232 
C 2701 2406 3091 2804 3091 3310 
C 3091 3792 2630 4197 1741 4197 
C 1024 4197 499 3818 499 3298 
C 499 2977 749 2874 915 2874 
C 1101 2874 1325 2996 1325 3292 
C 1325 3441 1261 3659 960 3704 
C 1229 3968 1664 3968 1702 3968 
C 2272 3968 2272 3522 2272 3329 
C 2272 3135 2246 2837 2042 2573 
C 1875 2352 1709 2340 1466 2340 
C 1389 2321 1261 2321 1235 2309 
C 1197 2290 1197 2245 1197 2220 
C 1197 2112 1235 2112 1363 2112 
L 1670 2112 
z
" transform="scale(0.015625)"/>
      <path id="CMSY10-67" d="M 1382 -772 
C 1382 -1029 1216 -1440 518 -1440 
C 486 -1448 461 -1476 461 -1521 
C 461 -1600 531 -1600 589 -1600 
C 1210 -1600 1805 -1287 1811 -802 
L 1811 655 
C 1811 904 1811 1109 2067 1319 
C 2291 1504 2534 1504 2675 1504 
C 2707 1511 2733 1542 2733 1588 
C 2733 1664 2694 1664 2630 1664 
C 2208 1664 1901 1896 1830 2214 
C 1811 2284 1811 2297 1811 2531 
L 1811 3811 
C 1811 4083 1811 4289 1504 4535 
C 1248 4735 806 4800 589 4800 
C 531 4800 461 4800 461 4720 
C 461 4646 499 4646 563 4646 
C 966 4646 1280 4439 1363 4110 
C 1382 4052 1382 4039 1382 3807 
L 1382 2452 
C 1382 2155 1434 2045 1638 1839 
C 1773 1703 1958 1638 2138 1587 
C 1613 1439 1382 1143 1382 771 
L 1382 -772 
z
" transform="scale(0.015625)"/>
     </defs>
     <use xlink:href="#CMR17-52" transform="scale(0.996264)"/>
     <use xlink:href="#CMR17-65" transform="translate(67.791102 0) scale(0.996264)"/>
     <use xlink:href="#CMR17-74" transform="translate(108.276762 0) scale(0.996264)"/>
     <use xlink:href="#CMR17-13" transform="translate(133.147821 0) scale(0.996264)"/>
     <use xlink:href="#CMR17-10" transform="translate(143.55753 0) scale(0.996264)"/>
     <use xlink:href="#CMR17-63" transform="translate(168.428589 0) scale(0.996264)"/>
     <use xlink:href="#CMR17-75" transform="translate(208.914249 0) scale(0.996264)"/>
     <use xlink:href="#CMR17-6c" transform="translate(259.809619 0) scale(0.996264)"/>
     <use xlink:href="#CMR17-6f" transform="translate(284.680677 0) scale(0.996264)"/>
     <use xlink:href="#CMR17-33" transform="translate(360.447121 0) scale(0.996264)"/>
     <use xlink:href="#CMR17-2d" transform="translate(406.137598 0) scale(0.996264)"/>
     <use xlink:href="#CMR17-44" transform="translate(436.213564 0) scale(0.996264)"/>
     <use xlink:href="#CMR17-69" transform="translate(506.60712 0) scale(0.996264)"/>
     <use xlink:href="#CMR17-6d" transform="translate(531.478179 0) scale(0.996264)"/>
     <use xlink:href="#CMR17-65" transform="translate(608.397769 0) scale(0.996264)"/>
     <use xlink:href="#CMR17-6e" transform="translate(648.883429 0) scale(0.996264)"/>
     <use xlink:href="#CMR17-73" transform="translate(699.778799 0) scale(0.996264)"/>
     <use xlink:href="#CMR17-69" transform="translate(735.580136 0) scale(0.996264)"/>
     <use xlink:href="#CMR17-6f" transform="translate(760.451195 0) scale(0.996264)"/>
     <use xlink:href="#CMR17-6e" transform="translate(806.141672 0) scale(0.996264)"/>
     <use xlink:href="#CMR17-61" transform="translate(857.037042 0) scale(0.996264)"/>
     <use xlink:href="#CMR17-6c" transform="translate(902.727519 0) scale(0.996264)"/>
     <use xlink:href="#CMR17-64" transform="translate(957.674544 0) scale(0.996264)"/>
     <use xlink:href="#CMR17-65" transform="translate(1008.569914 0) scale(0.996264)"/>
     <use xlink:href="#CMR17-c" transform="translate(1049.055574 0) scale(0.996264)"/>
     <use xlink:href="#CMR17-6e" transform="translate(1098.797797 0) scale(0.996264)"/>
     <use xlink:href="#CMR17-69" transform="translate(1149.693167 0) scale(0.996264)"/>
     <use xlink:href="#CMR17-64" transform="translate(1174.564226 0) scale(0.996264)"/>
     <use xlink:href="#CMR17-6f" transform="translate(1225.459595 0) scale(0.996264)"/>
     <use xlink:href="#CMR17-70" transform="translate(1301.226039 0) scale(0.996264)"/>
     <use xlink:href="#CMR17-6f" transform="translate(1354.723847 0) scale(0.996264)"/>
     <use xlink:href="#CMR17-72" transform="translate(1400.414325 0) scale(0.996264)"/>
     <use xlink:href="#CMR17-6c" transform="translate(1465.771059 0) scale(0.996264)"/>
     <use xlink:href="#CMR17-61" transform="translate(1490.642117 0) scale(0.996264)"/>
     <use xlink:href="#CMR17-62" transform="translate(1566.408561 0) scale(0.996264)"/>
     <use xlink:href="#CMR17-61" transform="translate(1617.30393 0) scale(0.996264)"/>
     <use xlink:href="#CMR17-73" transform="translate(1662.994408 0) scale(0.996264)"/>
     <use xlink:href="#CMR17-65" transform="translate(1698.795745 0) scale(0.996264)"/>
     <use xlink:href="#CMSY10-66" transform="translate(1769.357372 0) scale(0.996264)"/>
     <use xlink:href="#CMBX12-62" transform="translate(1819.170755 0) scale(0.996264)"/>
     <use xlink:href="#CMBX12-31" transform="translate(1881.437256 -14.943915) scale(0.697382)"/>
     <use xlink:href="#CMMI12-3b" transform="translate(1921.163101 0) scale(0.996264)"/>
     <use xlink:href="#CMBX12-62" transform="translate(1964.864683 0) scale(0.996264)"/>
     <use xlink:href="#CMBX12-32" transform="translate(2027.131183 -14.943915) scale(0.697382)"/>
     <use xlink:href="#CMMI12-3b" transform="translate(2066.857028 0) scale(0.996264)"/>
     <use xlink:href="#CMBX12-62" transform="translate(2110.558611 0) scale(0.996264)"/>
     <use xlink:href="#CMBX12-33" transform="translate(2172.825111 -14.943915) scale(0.697382)"/>
     <use xlink:href="#CMSY10-67" transform="translate(2212.550956 0) scale(0.996264)"/>
    </g>
   </g>
   <g id="Line3DCollection_5">
    <path d="M 243.884748 200.445391 
L 174.415135 180.391241 
" clip-path="url(#p227d805204)" style="fill: none; stroke: #ff0000"/>
    <path d="M 243.884748 200.445391 
L 223.416044 198.554388 
" clip-path="url(#p227d805204)" style="fill: none; stroke: #ff0000"/>
    <path d="M 243.884748 200.445391 
L 223.542804 190.544981 
" clip-path="url(#p227d805204)" style="fill: none; stroke: #ff0000"/>
   </g>
   <g id="Line3DCollection_6">
    <path d="M 126.43632 221.942113 
L 174.415135 180.391241 
" clip-path="url(#p227d805204)" style="fill: none; stroke: #008000"/>
    <path d="M 126.43632 221.942113 
L 140.781873 214.295048 
" clip-path="url(#p227d805204)" style="fill: none; stroke: #008000"/>
    <path d="M 126.43632 221.942113 
L 140.678386 204.816878 
" clip-path="url(#p227d805204)" style="fill: none; stroke: #008000"/>
   </g>
   <g id="legend_1">
    <g id="Path3DCollection_1">
     <defs>
      <path id="m87d68d9ac2" d="M 0 1.118034 
C 0.296506 1.118034 0.580908 1.000231 0.790569 0.790569 
C 1.000231 0.580908 1.118034 0.296506 1.118034 0 
C 1.118034 -0.296506 1.000231 -0.580908 0.790569 -0.790569 
C 0.580908 -1.000231 0.296506 -1.118034 0 -1.118034 
C -0.296506 -1.118034 -0.580908 -1.000231 -0.790569 -0.790569 
C -1.000231 -0.580908 -1.118034 -0.296506 -1.118034 0 
C -1.118034 0.296506 -1.000231 0.580908 -0.790569 0.790569 
C -0.580908 1.000231 -0.296506 1.118034 0 1.118034 
z
" style="stroke: #0000ff"/>
     </defs>
     <g>
      <use xlink:href="#m87d68d9ac2" x="248.025007" y="31.941376" style="fill: #0000ff; stroke: #0000ff"/>
     </g>
    </g>
    <g id="text_11">
     <!-- Lattice Points -->
     <g transform="translate(266.025007 34.566376) scale(0.1 -0.1)">
      <defs>
       <path id="CMR17-4c" d="M 3469 1615 
L 3354 1615 
C 3302 983 3219 166 2125 166 
L 1530 166 
C 1274 166 1261 197 1261 414 
L 1261 3898 
C 1261 4129 1274 4192 1760 4192 
L 1901 4192 
L 1901 4352 
C 1638 4352 1331 4352 1069 4352 
C 870 4352 512 4352 326 4352 
L 326 4192 
C 768 4192 838 4192 838 3905 
L 838 452 
C 838 166 768 166 326 166 
L 326 0 
L 3315 0 
L 3469 1615 
z
" transform="scale(0.015625)"/>
       <path id="CMR17-50" d="M 1267 2042 
L 2291 2042 
C 3117 2042 3718 2578 3718 3184 
C 3718 3791 3130 4352 2291 4352 
L 333 4352 
L 333 4186 
C 774 4186 845 4186 845 3899 
L 845 446 
C 845 160 774 160 333 160 
L 333 0 
C 518 0 858 0 1056 0 
C 1254 0 1594 0 1779 0 
L 1779 160 
C 1338 160 1267 160 1267 446 
L 1267 2042 
z
M 1254 2176 
L 1254 3938 
C 1254 4155 1267 4186 1523 4186 
L 2170 4186 
C 2995 4186 3232 3714 3232 3184 
C 3232 2604 2950 2176 2170 2176 
L 1254 2176 
z
" transform="scale(0.015625)"/>
      </defs>
      <use xlink:href="#CMR17-4c" transform="scale(0.996264)"/>
      <use xlink:href="#CMR17-61" transform="translate(57.381408 0) scale(0.996264)"/>
      <use xlink:href="#CMR17-74" transform="translate(103.071885 0) scale(0.996264)"/>
      <use xlink:href="#CMR17-74" transform="translate(138.352653 0) scale(0.996264)"/>
      <use xlink:href="#CMR17-69" transform="translate(173.633421 0) scale(0.996264)"/>
      <use xlink:href="#CMR17-63" transform="translate(198.504479 0) scale(0.996264)"/>
      <use xlink:href="#CMR17-65" transform="translate(238.99014 0) scale(0.996264)"/>
      <use xlink:href="#CMR17-50" transform="translate(309.551766 0) scale(0.996264)"/>
      <use xlink:href="#CMR17-6f" transform="translate(369.535613 0) scale(0.996264)"/>
      <use xlink:href="#CMR17-69" transform="translate(415.22609 0) scale(0.996264)"/>
      <use xlink:href="#CMR17-6e" transform="translate(440.097149 0) scale(0.996264)"/>
      <use xlink:href="#CMR17-74" transform="translate(488.390064 0) scale(0.996264)"/>
      <use xlink:href="#CMR17-73" transform="translate(523.670832 0) scale(0.996264)"/>
     </g>
    </g>
    <g id="line2d_27">
     <path d="M 238.025007 45.003554 
L 258.025007 45.003554 
" style="fill: none; stroke: #ff0000"/>
    </g>
    <g id="text_12">
     <!-- $\mathbf{b_1}$ -->
     <g transform="translate(266.025007 48.503554) scale(0.1 -0.1)">
      <use xlink:href="#CMBX12-62" transform="scale(0.996264)"/>
      <use xlink:href="#CMBX12-31" transform="translate(62.266501 -14.943915) scale(0.697382)"/>
     </g>
    </g>
    <g id="line2d_28">
     <path d="M 238.025007 58.940733 
L 258.025007 58.940733 
" style="fill: none; stroke: #008000"/>
    </g>
    <g id="text_13">
     <!-- $\mathbf{b_2}$ -->
     <g transform="translate(266.025007 62.440733) scale(0.1 -0.1)">
      <use xlink:href="#CMBX12-62" transform="scale(0.996264)"/>
      <use xlink:href="#CMBX12-32" transform="translate(62.266501 -14.943915) scale(0.697382)"/>
     </g>
    </g>
    <g id="line2d_29">
     <path d="M 238.025007 72.877911 
L 258.025007 72.877911 
" style="fill: none; stroke: #800080"/>
    </g>
    <g id="text_14">
     <!-- $\mathbf{b_3}$ -->
     <g transform="translate(266.025007 76.377911) scale(0.1 -0.1)">
      <use xlink:href="#CMBX12-62" transform="scale(0.996264)"/>
      <use xlink:href="#CMBX12-33" transform="translate(62.266501 -14.943915) scale(0.697382)"/>
     </g>
    </g>
   </g>
   <g id="Path3DCollection_2">
    <defs>
     <path id="C0_0_76c51bb5f6" d="M 0 1.118034 
C 0.296506 1.118034 0.580908 1.000231 0.790569 0.790569 
C 1.000231 0.580908 1.118034 0.296506 1.118034 -0 
C 1.118034 -0.296506 1.000231 -0.580908 0.790569 -0.790569 
C 0.580908 -1.000231 0.296506 -1.118034 0 -1.118034 
C -0.296506 -1.118034 -0.580908 -1.000231 -0.790569 -0.790569 
C -1.000231 -0.580908 -1.118034 -0.296506 -1.118034 0 
C -1.118034 0.296506 -1.000231 0.580908 -0.790569 0.790569 
C -0.580908 1.000231 -0.296506 1.118034 0 1.118034 
z
"/>
    </defs>
    <g clip-path="url(#p227d805204)">
     <use xlink:href="#C0_0_76c51bb5f6" x="153.254237" y="164.378601" style="fill: #0000ff; fill-opacity: 0.3; stroke: #0000ff; stroke-opacity: 0.3"/>
    </g>
    <g clip-path="url(#p227d805204)">
     <use xlink:href="#C0_0_76c51bb5f6" x="152.975311" y="123.117055" style="fill: #0000ff; fill-opacity: 0.359157; stroke: #0000ff; stroke-opacity: 0.359157"/>
    </g>
    <g clip-path="url(#p227d805204)">
     <use xlink:href="#C0_0_76c51bb5f6" x="218.882114" y="183.141922" style="fill: #0000ff; fill-opacity: 0.382389; stroke: #0000ff; stroke-opacity: 0.382389"/>
    </g>
    <g clip-path="url(#p227d805204)">
     <use xlink:href="#C0_0_76c51bb5f6" x="152.688934" y="80.753226" style="fill: #0000ff; fill-opacity: 0.419894; stroke: #0000ff; stroke-opacity: 0.419894"/>
    </g>
    <g clip-path="url(#p227d805204)">
     <use xlink:href="#C0_0_76c51bb5f6" x="219.479147" y="141.364662" style="fill: #0000ff; fill-opacity: 0.443753; stroke: #0000ff; stroke-opacity: 0.443753"/>
    </g>
    <g clip-path="url(#p227d805204)">
     <use xlink:href="#C0_0_76c51bb5f6" x="286.964609" y="202.60703" style="fill: #0000ff; fill-opacity: 0.467859; stroke: #0000ff; stroke-opacity: 0.467859"/>
    </g>
    <g clip-path="url(#p227d805204)">
     <use xlink:href="#C0_0_76c51bb5f6" x="107.138142" y="203.018167" style="fill: #0000ff; fill-opacity: 0.469665; stroke: #0000ff; stroke-opacity: 0.469665"/>
    </g>
    <g clip-path="url(#p227d805204)">
     <use xlink:href="#C0_0_76c51bb5f6" x="220.092429" y="98.450297" style="fill: #0000ff; fill-opacity: 0.506786; stroke: #0000ff; stroke-opacity: 0.506786"/>
    </g>
    <g clip-path="url(#p227d805204)">
     <use xlink:href="#C0_0_76c51bb5f6" x="288.504392" y="160.304105" style="fill: #0000ff; fill-opacity: 0.531556; stroke: #0000ff; stroke-opacity: 0.531556"/>
    </g>
    <g clip-path="url(#p227d805204)">
     <use xlink:href="#C0_0_76c51bb5f6" x="106.217368" y="160.704241" style="fill: #0000ff; fill-opacity: 0.533411; stroke: #0000ff; stroke-opacity: 0.533411"/>
    </g>
    <g clip-path="url(#p227d805204)">
     <use xlink:href="#C0_0_76c51bb5f6" x="174.415135" y="223.241007" style="fill: #0000ff; fill-opacity: 0.558462; stroke: #0000ff; stroke-opacity: 0.558462"/>
    </g>
    <g clip-path="url(#p227d805204)">
     <use xlink:href="#C0_0_76c51bb5f6" x="290.086891" y="116.827637" style="fill: #0000ff; fill-opacity: 0.597019; stroke: #0000ff; stroke-opacity: 0.597019"/>
    </g>
    <g clip-path="url(#p227d805204)">
     <use xlink:href="#C0_0_76c51bb5f6" x="105.271039" y="117.216" style="fill: #0000ff; fill-opacity: 0.598926; stroke: #0000ff; stroke-opacity: 0.598926"/>
    </g>
    <g clip-path="url(#p227d805204)">
     <use xlink:href="#C0_0_76c51bb5f6" x="174.415135" y="180.391241" style="fill: #0000ff; fill-opacity: 0.624679; stroke: #0000ff; stroke-opacity: 0.624679"/>
    </g>
    <g clip-path="url(#p227d805204)">
     <use xlink:href="#C0_0_76c51bb5f6" x="244.30725" y="244.249929" style="fill: #0000ff; fill-opacity: 0.650712; stroke: #0000ff; stroke-opacity: 0.650712"/>
    </g>
    <g clip-path="url(#p227d805204)">
     <use xlink:href="#C0_0_76c51bb5f6" x="57.39828" y="244.694" style="fill: #0000ff; fill-opacity: 0.652662; stroke: #0000ff; stroke-opacity: 0.652662"/>
    </g>
    <g clip-path="url(#p227d805204)">
     <use xlink:href="#C0_0_76c51bb5f6" x="174.415135" y="136.328975" style="fill: #0000ff; fill-opacity: 0.69277; stroke: #0000ff; stroke-opacity: 0.69277"/>
    </g>
    <g clip-path="url(#p227d805204)">
     <use xlink:href="#C0_0_76c51bb5f6" x="245.301528" y="200.85438" style="fill: #0000ff; fill-opacity: 0.719546; stroke: #0000ff; stroke-opacity: 0.719546"/>
    </g>
    <g clip-path="url(#p227d805204)">
     <use xlink:href="#C0_0_76c51bb5f6" x="55.73293" y="201.287035" style="fill: #0000ff; fill-opacity: 0.721552; stroke: #0000ff; stroke-opacity: 0.721552"/>
    </g>
    <g clip-path="url(#p227d805204)">
     <use xlink:href="#C0_0_76c51bb5f6" x="126.384689" y="266.553527" style="fill: #0000ff; fill-opacity: 0.748646; stroke: #0000ff; stroke-opacity: 0.748646"/>
    </g>
    <g clip-path="url(#p227d805204)">
     <use xlink:href="#C0_0_76c51bb5f6" x="246.324503" y="156.206333" style="fill: #0000ff; fill-opacity: 0.790368; stroke: #0000ff; stroke-opacity: 0.790368"/>
    </g>
    <g clip-path="url(#p227d805204)">
     <use xlink:href="#C0_0_76c51bb5f6" x="54.019495" y="156.626722" style="fill: #0000ff; fill-opacity: 0.792432; stroke: #0000ff; stroke-opacity: 0.792432"/>
    </g>
    <g clip-path="url(#p227d805204)">
     <use xlink:href="#C0_0_76c51bb5f6" x="125.687383" y="222.590712" style="fill: #0000ff; fill-opacity: 0.820316; stroke: #0000ff; stroke-opacity: 0.820316"/>
    </g>
    <g clip-path="url(#p227d805204)">
     <use xlink:href="#C0_0_76c51bb5f6" x="198.162288" y="289.297491" style="fill: #0000ff; fill-opacity: 0.848514; stroke: #0000ff; stroke-opacity: 0.848514"/>
    </g>
    <g clip-path="url(#p227d805204)">
     <use xlink:href="#C0_0_76c51bb5f6" x="124.969531" y="177.332587" style="fill: #0000ff; fill-opacity: 0.894097; stroke: #0000ff; stroke-opacity: 0.894097"/>
    </g>
    <g clip-path="url(#p227d805204)">
     <use xlink:href="#C0_0_76c51bb5f6" x="198.514127" y="244.769107" style="fill: #0000ff; fill-opacity: 0.923135; stroke: #0000ff; stroke-opacity: 0.923135"/>
    </g>
    <g clip-path="url(#p227d805204)">
     <use xlink:href="#C0_0_76c51bb5f6" x="198.876548" y="198.90141" style="fill: #0000ff; stroke: #0000ff"/>
    </g>
   </g>
  </g>
 </g>
 <defs>
  <clipPath id="p227d805204">
   <rect x="3.6" y="18.566376" width="332.64" height="332.64"/>
  </clipPath>
 </defs>
</svg>
