<?xml version="1.0" encoding="utf-8" standalone="no"?>
<!DOCTYPE svg PUBLIC "-//W3C//DTD SVG 1.1//EN"
  "http://www.w3.org/Graphics/SVG/1.1/DTD/svg11.dtd">
<svg xmlns:xlink="http://www.w3.org/1999/xlink" width="459.438427pt" height="637.2pt" viewBox="0 0 459.438427 637.2" xmlns="http://www.w3.org/2000/svg" version="1.1">
 <metadata>
  <rdf:RDF xmlns:dc="http://purl.org/dc/elements/1.1/" xmlns:cc="http://creativecommons.org/ns#" xmlns:rdf="http://www.w3.org/1999/02/22-rdf-syntax-ns#">
   <cc:Work>
    <dc:type rdf:resource="http://purl.org/dc/dcmitype/StillImage"/>
    <dc:date>2024-06-05T10:50:53.794832</dc:date>
    <dc:format>image/svg+xml</dc:format>
    <dc:creator>
     <cc:Agent>
      <dc:title>Matplotlib v3.9.0, https://matplotlib.org/</dc:title>
     </cc:Agent>
    </dc:creator>
   </cc:Work>
  </rdf:RDF>
 </metadata>
 <defs>
  <style type="text/css">*{stroke-linejoin: round; stroke-linecap: butt}</style>
 </defs>
 <g id="figure_1">
  <g id="patch_1">
   <path d="M 0 637.2 
L 459.438427 637.2 
L 459.438427 0 
L 0 0 
z
" style="fill: #ffffff"/>
  </g>
  <g id="axes_1">
   <g id="Quiver_1">
    <path d="M 37.05675 327.6 
L 37.05675 271.8 
L 33.45675 273.6 
L 38.85675 255.6 
L 44.25675 273.6 
L 40.65675 271.8 
L 40.65675 327.6 
L 37.05675 327.6 
" style="fill: #ff0000"/>
   </g>
   <g id="Quiver_2">
    <path d="M 37.902155 326.645406 
L 101.310808 263.236753 
L 98.447026 262.282159 
L 110.85675 255.6 
L 104.174591 268.009724 
L 103.219996 265.145942 
L 39.811344 328.554594 
L 37.902155 326.645406 
" style="fill: #ff0000"/>
   </g>
   <g id="patch_2">
    <path d="M 107.25675 327.6 
L 100.05675 331.2 
L 100.05675 327.636 
L 38.85675 327.636 
L 38.85675 327.564 
L 100.05675 327.564 
L 100.05675 324 
z
" style="fill: #808080; stroke: #808080; stroke-linejoin: miter"/>
   </g>
   <g id="patch_3">
    <path d="M 326.231692 115.912985 
L 323.620257 123.527471 
L 321.121985 120.985675 
L 110.881985 327.625675 
L 110.831515 327.574325 
L 321.071515 120.934325 
L 318.573242 118.392529 
z
" style="fill: #808080; stroke: #808080; stroke-linejoin: miter"/>
   </g>
   <g id="patch_4">
    <path d="M 431.25675 327.6 
L 424.05675 331.2 
L 424.77675 327.96 
L 107.25675 327.96 
L 107.25675 327.24 
L 424.77675 327.24 
L 424.05675 324 
z
" style="stroke: #000000; stroke-width: 0.1; stroke-linejoin: miter"/>
   </g>
   <g id="patch_5">
    <path d="M 38.85675 75.6 
L 42.45675 82.8 
L 39.21675 82.08 
L 39.21675 327.6 
L 38.49675 327.6 
L 38.49675 82.08 
L 35.25675 82.8 
z
" style="stroke: #000000; stroke-width: 0.1; stroke-linejoin: miter"/>
   </g>
   <g id="line2d_1">
    <path d="M 38.85675 111.6 
L 398.85675 111.6 
" clip-path="url(#pb426d5d6f3)" style="fill: none; stroke-dasharray: 1.85,0.8; stroke-dashoffset: 0; stroke: #0000ff; stroke-width: 0.5"/>
   </g>
   <g id="line2d_2">
    <path d="M 38.85675 327.6 
L 38.85675 255.6 
L 38.85675 183.6 
L 38.85675 111.6 
" style="fill: none"/>
    <defs>
     <path id="m996ef6f0d8" d="M 0 1 
C 0.265203 1 0.51958 0.894634 0.707107 0.707107 
C 0.894634 0.51958 1 0.265203 1 0 
C 1 -0.265203 0.894634 -0.51958 0.707107 -0.707107 
C 0.51958 -0.894634 0.265203 -1 0 -1 
C -0.265203 -1 -0.51958 -0.894634 -0.707107 -0.707107 
C -0.894634 -0.51958 -1 -0.265203 -1 0 
C -1 0.265203 -0.894634 0.51958 -0.707107 0.707107 
C -0.51958 0.894634 -0.265203 1 0 1 
z
" style="stroke: #0000ff"/>
    </defs>
    <g>
     <use xlink:href="#m996ef6f0d8" x="38.85675" y="327.6" style="fill: #0000ff; stroke: #0000ff"/>
     <use xlink:href="#m996ef6f0d8" x="38.85675" y="255.6" style="fill: #0000ff; stroke: #0000ff"/>
     <use xlink:href="#m996ef6f0d8" x="38.85675" y="183.6" style="fill: #0000ff; stroke: #0000ff"/>
     <use xlink:href="#m996ef6f0d8" x="38.85675" y="111.6" style="fill: #0000ff; stroke: #0000ff"/>
    </g>
   </g>
   <g id="line2d_3">
    <path d="M 110.85675 327.6 
L 110.85675 255.6 
L 110.85675 183.6 
L 110.85675 111.6 
" style="fill: none"/>
    <g>
     <use xlink:href="#m996ef6f0d8" x="110.85675" y="327.6" style="fill: #0000ff; stroke: #0000ff"/>
     <use xlink:href="#m996ef6f0d8" x="110.85675" y="255.6" style="fill: #0000ff; stroke: #0000ff"/>
     <use xlink:href="#m996ef6f0d8" x="110.85675" y="183.6" style="fill: #0000ff; stroke: #0000ff"/>
     <use xlink:href="#m996ef6f0d8" x="110.85675" y="111.6" style="fill: #0000ff; stroke: #0000ff"/>
    </g>
   </g>
   <g id="line2d_4">
    <path d="M 182.85675 327.6 
L 182.85675 255.6 
L 182.85675 183.6 
L 182.85675 111.6 
" style="fill: none"/>
    <g>
     <use xlink:href="#m996ef6f0d8" x="182.85675" y="327.6" style="fill: #0000ff; stroke: #0000ff"/>
     <use xlink:href="#m996ef6f0d8" x="182.85675" y="255.6" style="fill: #0000ff; stroke: #0000ff"/>
     <use xlink:href="#m996ef6f0d8" x="182.85675" y="183.6" style="fill: #0000ff; stroke: #0000ff"/>
     <use xlink:href="#m996ef6f0d8" x="182.85675" y="111.6" style="fill: #0000ff; stroke: #0000ff"/>
    </g>
   </g>
   <g id="line2d_5">
    <path d="M 254.85675 327.6 
L 254.85675 255.6 
L 254.85675 183.6 
L 254.85675 111.6 
" style="fill: none"/>
    <g>
     <use xlink:href="#m996ef6f0d8" x="254.85675" y="327.6" style="fill: #0000ff; stroke: #0000ff"/>
     <use xlink:href="#m996ef6f0d8" x="254.85675" y="255.6" style="fill: #0000ff; stroke: #0000ff"/>
     <use xlink:href="#m996ef6f0d8" x="254.85675" y="183.6" style="fill: #0000ff; stroke: #0000ff"/>
     <use xlink:href="#m996ef6f0d8" x="254.85675" y="111.6" style="fill: #0000ff; stroke: #0000ff"/>
    </g>
   </g>
   <g id="line2d_6">
    <path d="M 326.85675 327.6 
L 326.85675 255.6 
L 326.85675 183.6 
L 326.85675 111.6 
" style="fill: none"/>
    <g>
     <use xlink:href="#m996ef6f0d8" x="326.85675" y="327.6" style="fill: #0000ff; stroke: #0000ff"/>
     <use xlink:href="#m996ef6f0d8" x="326.85675" y="255.6" style="fill: #0000ff; stroke: #0000ff"/>
     <use xlink:href="#m996ef6f0d8" x="326.85675" y="183.6" style="fill: #0000ff; stroke: #0000ff"/>
     <use xlink:href="#m996ef6f0d8" x="326.85675" y="111.6" style="fill: #0000ff; stroke: #0000ff"/>
    </g>
   </g>
   <g id="line2d_7">
    <path d="M 398.85675 327.6 
L 398.85675 255.6 
L 398.85675 183.6 
L 398.85675 111.6 
" style="fill: none"/>
    <g>
     <use xlink:href="#m996ef6f0d8" x="398.85675" y="327.6" style="fill: #0000ff; stroke: #0000ff"/>
     <use xlink:href="#m996ef6f0d8" x="398.85675" y="255.6" style="fill: #0000ff; stroke: #0000ff"/>
     <use xlink:href="#m996ef6f0d8" x="398.85675" y="183.6" style="fill: #0000ff; stroke: #0000ff"/>
     <use xlink:href="#m996ef6f0d8" x="398.85675" y="111.6" style="fill: #0000ff; stroke: #0000ff"/>
    </g>
   </g>
   <g id="line2d_8">
    <path d="M 355.65675 133.2 
" clip-path="url(#pb426d5d6f3)" style="fill: none; stroke: #000000; stroke-linecap: square"/>
    <defs>
     <path id="m70a41867d8" d="M 0 2 
C 0.530406 2 1.03916 1.789267 1.414214 1.414214 
C 1.789267 1.03916 2 0.530406 2 0 
C 2 -0.530406 1.789267 -1.03916 1.414214 -1.414214 
C 1.03916 -1.789267 0.530406 -2 0 -2 
C -0.530406 -2 -1.03916 -1.789267 -1.414214 -1.414214 
C -1.789267 -1.03916 -2 -0.530406 -2 0 
C -2 0.530406 -1.789267 1.03916 -1.414214 1.414214 
C -1.03916 1.789267 -0.530406 2 0 2 
z
" style="stroke: #000000"/>
    </defs>
    <g clip-path="url(#pb426d5d6f3)">
     <use xlink:href="#m70a41867d8" x="355.65675" y="133.2" style="stroke: #000000"/>
    </g>
   </g>
   <g id="line2d_9">
    <path d="M 355.65675 111.6 
" clip-path="url(#pb426d5d6f3)" style="fill: none; stroke: #000000; stroke-linecap: square"/>
    <g clip-path="url(#pb426d5d6f3)">
     <use xlink:href="#m70a41867d8" x="355.65675" y="111.6" style="stroke: #000000"/>
    </g>
   </g>
   <g id="line2d_10">
    <path d="M 355.65675 133.2 
L 355.65675 111.6 
" clip-path="url(#pb426d5d6f3)" style="fill: none; stroke-dasharray: 3.7,1.6; stroke-dashoffset: 0; stroke: #000000"/>
   </g>
   <g id="line2d_11">
    <path d="M 139.65675 327.6 
" style="fill: none; stroke: #000000; stroke-linecap: square"/>
    <g>
     <use xlink:href="#m70a41867d8" x="139.65675" y="327.6" style="stroke: #000000"/>
    </g>
   </g>
   <g id="line2d_12">
    <path d="M 355.65675 111.6 
L 139.65675 327.6 
" clip-path="url(#pb426d5d6f3)" style="fill: none; stroke-dasharray: 3.7,1.6; stroke-dashoffset: 0; stroke: #000000"/>
   </g>
   <g id="text_1">
    <!-- $\mathbf{U}$ -->
    <g transform="translate(442.05675 327.6) scale(0.16 -0.16)">
     <defs>
      <path id="CMBX12-55" d="M 4608 3911 
C 4608 4051 4614 4058 4781 4083 
C 4896 4096 5024 4096 5139 4096 
L 5286 4096 
L 5286 4376 
C 5139 4363 4640 4363 4461 4363 
C 4282 4363 3782 4363 3635 4376 
L 3635 4096 
L 3782 4096 
C 3955 4096 3968 4096 4122 4077 
C 4307 4052 4314 4045 4314 3905 
L 4314 1486 
C 4314 578 3667 209 2912 209 
C 1792 209 1766 1060 1766 1429 
L 1766 4096 
L 2445 4096 
L 2445 4363 
C 2259 4363 1574 4363 1344 4363 
C 1114 4363 429 4363 243 4363 
L 243 4096 
L 922 4096 
L 922 1473 
C 922 634 1600 -64 2886 -64 
C 4070 -64 4608 667 4608 1469 
L 4608 3911 
z
" transform="scale(0.015625)"/>
     </defs>
     <use xlink:href="#CMBX12-55" transform="scale(0.996264)"/>
    </g>
   </g>
   <g id="text_2">
    <!-- $\mathbf{w}=\mathbf{w_{n}}$ -->
    <g transform="translate(361.99275 137.088) scale(0.16 -0.16)">
     <defs>
      <path id="CMBX12-77" d="M 4608 2396 
C 4653 2504 4672 2549 5043 2549 
L 5043 2816 
C 4858 2816 4774 2816 4544 2816 
C 4282 2816 4198 2816 3968 2816 
L 3968 2549 
C 4026 2549 4339 2549 4339 2466 
C 4339 2460 4339 2453 4314 2390 
L 3642 737 
L 2906 2549 
L 3270 2549 
L 3270 2822 
C 3117 2816 2739 2816 2566 2816 
C 2240 2816 2227 2816 1907 2816 
L 1907 2549 
L 2285 2549 
C 2304 2498 2336 2415 2362 2358 
C 2381 2320 2445 2167 2445 2135 
C 2445 2123 2426 2078 2419 2059 
L 1933 858 
L 1242 2549 
L 1606 2549 
L 1606 2822 
C 1459 2816 1024 2816 851 2816 
C 646 2816 339 2816 147 2816 
L 147 2549 
L 525 2549 
L 1504 127 
C 1549 13 1574 -32 1715 -32 
C 1786 -32 1862 -32 1914 95 
L 2592 1780 
L 3270 108 
C 3328 -32 3398 -32 3475 -32 
C 3616 -32 3635 6 3680 121 
L 4608 2396 
z
" transform="scale(0.015625)"/>
      <path id="CMR17-3d" d="M 4115 2017 
C 4211 2017 4307 2017 4307 2125 
C 4307 2240 4198 2240 4090 2240 
L 512 2240 
C 403 2240 294 2240 294 2125 
C 294 2017 390 2017 486 2017 
L 4115 2017 
z
M 4090 896 
C 4198 896 4307 896 4307 1011 
C 4307 1119 4211 1119 4115 1119 
L 486 1119 
C 390 1119 294 1119 294 1011 
C 294 896 403 896 512 896 
L 4090 896 
z
" transform="scale(0.015625)"/>
      <path id="CMBX12-6e" d="M 3398 1924 
C 3398 2525 3136 2834 2432 2834 
C 1971 2834 1574 2615 1357 2143 
L 1350 2143 
L 1350 2816 
L 269 2816 
L 269 2517 
C 666 2517 710 2517 710 2270 
L 710 260 
L 269 260 
L 269 -13 
C 416 0 877 0 1056 0 
C 1235 0 1702 0 1850 -13 
L 1850 260 
L 1408 260 
L 1408 1607 
C 1408 2289 1920 2624 2330 2624 
C 2566 2624 2701 2473 2701 1993 
L 2701 260 
L 2259 260 
L 2259 -13 
C 2406 0 2867 0 3046 0 
C 3226 0 3693 0 3840 -13 
L 3840 260 
L 3398 260 
L 3398 1924 
z
" transform="scale(0.015625)"/>
     </defs>
     <use xlink:href="#CMBX12-77" transform="scale(0.996264)"/>
     <use xlink:href="#CMR17-3d" transform="translate(110.177122 0) scale(0.996264)"/>
     <use xlink:href="#CMBX12-77" transform="translate(209.565919 0) scale(0.996264)"/>
     <use xlink:href="#CMBX12-6e" transform="translate(290.51237 -14.943915) scale(0.697382)"/>
    </g>
   </g>
   <g id="text_3">
    <!-- $\mathbf{b_{n}^{*}}$ -->
    <g transform="translate(42.45675 279.36) scale(0.16 -0.16)">
     <defs>
      <path id="CMBX12-62" d="M 1331 4416 
L 224 4416 
L 224 4117 
C 621 4117 666 4117 666 3867 
L 666 0 
L 934 0 
C 1043 123 1152 247 1254 376 
C 1581 38 1933 -32 2189 -32 
C 3072 -32 3750 504 3750 1431 
C 3750 2305 3149 2880 2272 2880 
C 1894 2880 1594 2759 1331 2555 
L 1331 4416 
z
M 1363 2248 
C 1587 2555 1920 2670 2189 2670 
C 2982 2670 2982 1859 2982 1437 
C 2982 1149 2982 785 2829 548 
C 2630 241 2330 178 2125 178 
C 1690 178 1453 484 1363 625 
L 1363 2248 
z
" transform="scale(0.015625)"/>
      <path id="CMSY10-3" d="M 1760 2719 
C 1766 2808 1766 2962 1600 2962 
C 1498 2962 1414 2879 1434 2795 
L 1434 2712 
L 1523 1720 
L 704 2316 
C 646 2348 634 2360 589 2360 
C 499 2360 416 2271 416 2181 
C 416 2079 480 2053 544 2021 
L 1453 1586 
L 570 1158 
C 467 1107 416 1081 416 985 
C 416 889 499 806 589 806 
C 634 806 646 806 806 928 
L 1523 1446 
L 1427 371 
C 1427 236 1542 204 1594 204 
C 1670 204 1766 248 1766 371 
L 1670 1446 
L 2490 851 
C 2547 819 2560 806 2605 806 
C 2694 806 2778 896 2778 985 
C 2778 1081 2720 1113 2643 1152 
C 2259 1343 2246 1343 1741 1580 
L 2624 2008 
C 2726 2060 2778 2085 2778 2181 
C 2778 2277 2694 2360 2605 2360 
C 2560 2360 2547 2360 2387 2239 
L 1670 1720 
L 1760 2719 
z
" transform="scale(0.015625)"/>
     </defs>
     <use xlink:href="#CMBX12-62" transform="scale(0.996264)"/>
     <use xlink:href="#CMSY10-3" transform="translate(62.266501 36.153639) scale(0.697382)"/>
     <use xlink:href="#CMBX12-6e" transform="translate(62.266501 -24.62935) scale(0.697382)"/>
    </g>
   </g>
   <g id="text_4">
    <!-- $\mathbf{b_{n}}$ -->
    <g transform="translate(110.85675 275.76) scale(0.16 -0.16)">
     <use xlink:href="#CMBX12-62" transform="scale(0.996264)"/>
     <use xlink:href="#CMBX12-6e" transform="translate(62.266501 -14.943915) scale(0.697382)"/>
    </g>
   </g>
   <g id="text_5">
    <!-- $\mathbf{w_{n-1}}$ -->
    <g transform="translate(149.73675 320.4) scale(0.16 -0.16)">
     <defs>
      <path id="CMSY10-0" d="M 4218 1472 
C 4326 1472 4442 1472 4442 1600 
C 4442 1728 4326 1728 4218 1728 
L 755 1728 
C 646 1728 531 1728 531 1600 
C 531 1472 646 1472 755 1472 
L 4218 1472 
z
" transform="scale(0.015625)"/>
      <path id="CMBX12-31" d="M 2214 3975 
C 2214 4160 2202 4160 1997 4160 
C 1523 3776 813 3776 672 3776 
L 550 3776 
L 550 3503 
L 672 3503 
C 896 3503 1235 3541 1491 3624 
L 1491 267 
L 602 267 
L 602 0 
C 870 0 1542 0 1843 0 
C 2144 0 2822 0 3091 0 
L 3091 267 
L 2214 267 
L 2214 3975 
z
" transform="scale(0.015625)"/>
     </defs>
     <use xlink:href="#CMBX12-77" transform="scale(0.996264)"/>
     <use xlink:href="#CMBX12-6e" transform="translate(80.946451 -14.943915) scale(0.697382)"/>
     <use xlink:href="#CMSY10-0" transform="translate(124.532804 -14.943915) scale(0.697382)"/>
     <use xlink:href="#CMBX12-31" transform="translate(178.773797 -14.943915) scale(0.697382)"/>
    </g>
   </g>
   <g id="text_6">
    <!-- Figure 1. -->
    <g transform="translate(188.184121 61.2) scale(0.16 -0.16)">
     <defs>
      <path id="CMR17-46" d="M 3482 4325 
L 326 4325 
L 326 4160 
C 768 4160 838 4160 838 3874 
L 838 446 
C 838 160 768 160 326 160 
L 326 0 
C 512 0 870 0 1069 0 
C 1331 0 1638 0 1901 0 
L 1901 160 
L 1760 160 
C 1274 160 1261 223 1261 452 
L 1261 2075 
L 1837 2075 
C 2432 2075 2490 1865 2490 1332 
L 2605 1332 
L 2605 2987 
L 2490 2987 
C 2490 2450 2432 2240 1837 2240 
L 1261 2240 
L 1261 3911 
C 1261 4128 1274 4160 1530 4160 
L 2355 4160 
C 3322 4160 3430 3765 3520 2916 
L 3635 2916 
L 3482 4325 
z
" transform="scale(0.015625)"/>
      <path id="CMR17-69" d="M 992 3909 
C 992 4049 877 4170 730 4170 
C 589 4170 467 4056 467 3909 
C 467 3769 582 3648 730 3648 
C 870 3648 992 3763 992 3909 
z
M 243 2706 
L 243 2541 
C 602 2541 653 2502 653 2197 
L 653 427 
C 653 184 627 153 218 153 
L 218 -13 
C 371 0 646 0 806 0 
C 960 0 1222 0 1370 -13 
L 1370 153 
C 992 153 979 191 979 420 
L 979 2776 
L 243 2706 
z
" transform="scale(0.015625)"/>
      <path id="CMR17-67" d="M 710 1164 
C 832 1068 1043 960 1299 960 
C 1805 960 2240 1357 2240 1888 
C 2240 2054 2189 2310 1997 2509 
C 2176 2692 2438 2752 2586 2752 
C 2611 2752 2650 2752 2682 2734 
C 2656 2728 2598 2703 2598 2605 
C 2598 2527 2656 2471 2739 2471 
C 2835 2471 2886 2533 2886 2614 
C 2886 2731 2790 2854 2586 2854 
C 2330 2854 2106 2738 1926 2580 
C 1734 2753 1504 2816 1299 2816 
C 794 2816 358 2419 358 1888 
C 358 1522 570 1292 634 1228 
C 442 1004 442 743 442 711 
C 442 545 506 302 723 168 
C 390 85 128 -169 128 -486 
C 128 -943 736 -1280 1466 -1280 
C 2170 -1280 2803 -956 2803 -479 
C 2803 384 1856 384 1363 384 
C 1216 384 954 384 922 391 
C 723 423 589 602 589 826 
C 589 883 589 1024 710 1164 
z
M 1299 1068 
C 736 1068 736 1760 736 1889 
C 736 2016 736 2708 1299 2708 
C 1862 2708 1862 2016 1862 1889 
C 1862 1760 1862 1068 1299 1068 
z
M 1466 -1171 
C 826 -1171 384 -835 384 -486 
C 384 -289 493 -105 634 -4 
C 794 104 858 104 1293 104 
C 1818 104 2547 104 2547 -486 
C 2547 -835 2106 -1171 1466 -1171 
z
" transform="scale(0.015625)"/>
      <path id="CMR17-75" d="M 1882 2693 
L 1882 2528 
C 2259 2528 2317 2489 2317 2186 
L 2317 1032 
C 2317 500 2029 38 1555 38 
C 1030 38 986 348 986 678 
L 986 2763 
L 211 2693 
L 211 2528 
C 467 2528 640 2528 646 2274 
L 646 1058 
C 646 633 646 361 813 183 
C 896 101 1056 -64 1517 -64 
C 2061 -64 2272 377 2323 506 
L 2330 506 
L 2330 -63 
L 3091 -63 
L 3091 128 
C 2714 128 2656 166 2656 473 
L 2656 2763 
L 1882 2693 
z
" transform="scale(0.015625)"/>
      <path id="CMR17-72" d="M 960 1497 
C 960 2112 1222 2688 1702 2688 
C 1747 2688 1792 2682 1837 2662 
C 1837 2662 1696 2617 1696 2452 
C 1696 2298 1818 2234 1914 2234 
C 1990 2234 2131 2279 2131 2458 
C 2131 2663 1926 2790 1709 2790 
C 1222 2790 1011 2317 947 2093 
L 941 2093 
L 941 2790 
L 198 2720 
L 198 2554 
C 576 2554 634 2515 634 2208 
L 634 428 
C 634 184 608 153 198 153 
L 198 -13 
C 352 0 646 0 813 0 
C 998 0 1325 0 1498 -13 
L 1498 153 
C 1037 153 960 153 960 440 
L 960 1497 
z
" transform="scale(0.015625)"/>
      <path id="CMR17-65" d="M 2438 1472 
C 2464 1498 2464 1511 2464 1576 
C 2464 2238 2118 2816 1389 2816 
C 710 2816 173 2169 173 1383 
C 173 551 781 -64 1459 -64 
C 2176 -64 2458 607 2458 740 
C 2458 784 2419 784 2406 784 
C 2362 784 2355 771 2330 696 
C 2189 265 1837 51 1504 51 
C 1229 51 954 203 781 480 
C 582 803 582 1176 582 1472 
L 2438 1472 
z
M 589 1568 
C 634 2505 1126 2714 1382 2714 
C 1818 2714 2112 2297 2118 1568 
L 589 1568 
z
" transform="scale(0.015625)"/>
      <path id="CMR17-31" d="M 1702 4058 
C 1702 4192 1696 4192 1606 4192 
C 1357 3916 979 3827 621 3827 
C 602 3827 570 3827 563 3808 
C 557 3795 557 3782 557 3648 
C 755 3648 1088 3686 1344 3839 
L 1344 461 
C 1344 236 1331 160 781 160 
L 589 160 
L 589 0 
C 896 0 1216 0 1523 0 
C 1830 0 2150 0 2458 0 
L 2458 160 
L 2266 160 
C 1715 160 1702 230 1702 458 
L 1702 4058 
z
" transform="scale(0.015625)"/>
      <path id="CMR17-2e" d="M 1062 261 
C 1062 420 934 522 800 522 
C 672 522 538 420 538 261 
C 538 102 666 0 800 0 
C 928 0 1062 102 1062 261 
z
" transform="scale(0.015625)"/>
     </defs>
     <use xlink:href="#CMR17-46" transform="scale(0.996264)"/>
     <use xlink:href="#CMR17-69" transform="translate(59.983847 0) scale(0.996264)"/>
     <use xlink:href="#CMR17-67" transform="translate(84.854905 0) scale(0.996264)"/>
     <use xlink:href="#CMR17-75" transform="translate(130.545382 0) scale(0.996264)"/>
     <use xlink:href="#CMR17-72" transform="translate(181.440752 0) scale(0.996264)"/>
     <use xlink:href="#CMR17-65" transform="translate(216.72152 0) scale(0.996264)"/>
     <use xlink:href="#CMR17-31" transform="translate(287.283147 0) scale(0.996264)"/>
     <use xlink:href="#CMR17-2e" transform="translate(332.973624 0) scale(0.996264)"/>
    </g>
   </g>
  </g>
  <g id="axes_2">
   <g id="patch_6">
    <path d="M 107.25675 630 
L 100.05675 633.6 
L 100.05675 630.036 
L 38.85675 630.036 
L 38.85675 629.964 
L 100.05675 629.964 
L 100.05675 626.4 
z
" style="fill: #00ff00; stroke: #00ff00; stroke-linejoin: miter"/>
   </g>
   <g id="patch_7">
    <path d="M 326.231692 418.312985 
L 323.620257 425.927471 
L 321.121985 423.385675 
L 110.881985 630.025675 
L 110.831515 629.974325 
L 321.071515 423.334325 
L 318.573242 420.792529 
z
" style="fill: #00ff00; stroke: #00ff00; stroke-linejoin: miter"/>
   </g>
   <g id="patch_8">
    <path d="M 322.540331 417.60478 
L 318.93436 424.801791 
L 316.798326 421.948818 
L 38.878326 630.028818 
L 38.835173 629.971182 
L 316.755173 421.891182 
L 314.619139 419.038209 
z
" style="fill: #006400; stroke: #006400; stroke-linejoin: miter"/>
   </g>
   <g id="patch_9">
    <path d="M 431.25675 630 
L 424.05675 633.6 
L 424.77675 630.36 
L 107.25675 630.36 
L 107.25675 629.64 
L 424.77675 629.64 
L 424.05675 626.4 
z
" style="stroke: #000000; stroke-width: 0.1; stroke-linejoin: miter"/>
   </g>
   <g id="patch_10">
    <path d="M 38.85675 378 
L 42.45675 385.2 
L 39.21675 384.48 
L 39.21675 630 
L 38.49675 630 
L 38.49675 384.48 
L 35.25675 385.2 
z
" style="stroke: #000000; stroke-width: 0.1; stroke-linejoin: miter"/>
   </g>
   <g id="line2d_13">
    <path d="M 38.85675 558 
L 398.85675 558 
" clip-path="url(#ped3dc80309)" style="fill: none"/>
   </g>
   <g id="line2d_14">
    <path d="M 38.85675 486 
L 398.85675 486 
" clip-path="url(#ped3dc80309)" style="fill: none"/>
   </g>
   <g id="line2d_15">
    <path d="M 38.85675 414 
L 398.85675 414 
" clip-path="url(#ped3dc80309)" style="fill: none"/>
   </g>
   <g id="line2d_16">
    <path d="M 38.85675 630 
L 38.85675 558 
L 38.85675 486 
L 38.85675 414 
" style="fill: none"/>
    <g>
     <use xlink:href="#m996ef6f0d8" x="38.85675" y="630" style="fill: #0000ff; stroke: #0000ff"/>
     <use xlink:href="#m996ef6f0d8" x="38.85675" y="558" style="fill: #0000ff; stroke: #0000ff"/>
     <use xlink:href="#m996ef6f0d8" x="38.85675" y="486" style="fill: #0000ff; stroke: #0000ff"/>
     <use xlink:href="#m996ef6f0d8" x="38.85675" y="414" style="fill: #0000ff; stroke: #0000ff"/>
    </g>
   </g>
   <g id="line2d_17">
    <path d="M 110.85675 630 
L 110.85675 558 
L 110.85675 486 
L 110.85675 414 
" style="fill: none"/>
    <g>
     <use xlink:href="#m996ef6f0d8" x="110.85675" y="630" style="fill: #0000ff; stroke: #0000ff"/>
     <use xlink:href="#m996ef6f0d8" x="110.85675" y="558" style="fill: #0000ff; stroke: #0000ff"/>
     <use xlink:href="#m996ef6f0d8" x="110.85675" y="486" style="fill: #0000ff; stroke: #0000ff"/>
     <use xlink:href="#m996ef6f0d8" x="110.85675" y="414" style="fill: #0000ff; stroke: #0000ff"/>
    </g>
   </g>
   <g id="line2d_18">
    <path d="M 182.85675 630 
L 182.85675 558 
L 182.85675 486 
L 182.85675 414 
" style="fill: none"/>
    <g>
     <use xlink:href="#m996ef6f0d8" x="182.85675" y="630" style="fill: #0000ff; stroke: #0000ff"/>
     <use xlink:href="#m996ef6f0d8" x="182.85675" y="558" style="fill: #0000ff; stroke: #0000ff"/>
     <use xlink:href="#m996ef6f0d8" x="182.85675" y="486" style="fill: #0000ff; stroke: #0000ff"/>
     <use xlink:href="#m996ef6f0d8" x="182.85675" y="414" style="fill: #0000ff; stroke: #0000ff"/>
    </g>
   </g>
   <g id="line2d_19">
    <path d="M 254.85675 630 
L 254.85675 558 
L 254.85675 486 
L 254.85675 414 
" style="fill: none"/>
    <g>
     <use xlink:href="#m996ef6f0d8" x="254.85675" y="630" style="fill: #0000ff; stroke: #0000ff"/>
     <use xlink:href="#m996ef6f0d8" x="254.85675" y="558" style="fill: #0000ff; stroke: #0000ff"/>
     <use xlink:href="#m996ef6f0d8" x="254.85675" y="486" style="fill: #0000ff; stroke: #0000ff"/>
     <use xlink:href="#m996ef6f0d8" x="254.85675" y="414" style="fill: #0000ff; stroke: #0000ff"/>
    </g>
   </g>
   <g id="line2d_20">
    <path d="M 326.85675 630 
L 326.85675 558 
L 326.85675 486 
L 326.85675 414 
" style="fill: none"/>
    <g>
     <use xlink:href="#m996ef6f0d8" x="326.85675" y="630" style="fill: #0000ff; stroke: #0000ff"/>
     <use xlink:href="#m996ef6f0d8" x="326.85675" y="558" style="fill: #0000ff; stroke: #0000ff"/>
     <use xlink:href="#m996ef6f0d8" x="326.85675" y="486" style="fill: #0000ff; stroke: #0000ff"/>
     <use xlink:href="#m996ef6f0d8" x="326.85675" y="414" style="fill: #0000ff; stroke: #0000ff"/>
    </g>
   </g>
   <g id="line2d_21">
    <path d="M 398.85675 630 
L 398.85675 558 
L 398.85675 486 
L 398.85675 414 
" style="fill: none"/>
    <g>
     <use xlink:href="#m996ef6f0d8" x="398.85675" y="630" style="fill: #0000ff; stroke: #0000ff"/>
     <use xlink:href="#m996ef6f0d8" x="398.85675" y="558" style="fill: #0000ff; stroke: #0000ff"/>
     <use xlink:href="#m996ef6f0d8" x="398.85675" y="486" style="fill: #0000ff; stroke: #0000ff"/>
     <use xlink:href="#m996ef6f0d8" x="398.85675" y="414" style="fill: #0000ff; stroke: #0000ff"/>
    </g>
   </g>
   <g id="line2d_22">
    <path d="M 355.65675 435.6 
" clip-path="url(#ped3dc80309)" style="fill: none; stroke: #000000; stroke-linecap: square"/>
    <g clip-path="url(#ped3dc80309)">
     <use xlink:href="#m70a41867d8" x="355.65675" y="435.6" style="stroke: #000000"/>
    </g>
   </g>
   <g id="line2d_23">
    <path d="M 326.85675 414 
" clip-path="url(#ped3dc80309)" style="fill: none; stroke: #000000; stroke-linecap: square"/>
    <g clip-path="url(#ped3dc80309)">
     <use xlink:href="#m70a41867d8" x="326.85675" y="414" style="stroke: #000000"/>
    </g>
   </g>
   <g id="text_7">
    <!-- $\mathbf{U}$ -->
    <g transform="translate(442.05675 630) scale(0.16 -0.16)">
     <use xlink:href="#CMBX12-55" transform="scale(0.996264)"/>
    </g>
   </g>
   <g id="text_8">
    <!-- $\mathbf{w}$ -->
    <g transform="translate(361.99275 439.488) scale(0.16 -0.16)">
     <use xlink:href="#CMBX12-77" transform="scale(0.996264)"/>
    </g>
   </g>
   <g id="text_9">
    <!-- $\mathbf{y_{n}}$ -->
    <g transform="translate(218.85675 543.6) scale(0.16 -0.16)">
     <defs>
      <path id="CMBX12-79" d="M 3168 2421 
C 3206 2509 3232 2560 3642 2560 
L 3642 2827 
C 3424 2827 3398 2827 3136 2827 
C 2963 2827 2950 2827 2586 2827 
L 2586 2560 
C 2592 2560 2893 2560 2893 2478 
C 2893 2459 2874 2421 2867 2402 
L 2118 805 
L 1299 2560 
L 1651 2560 
L 1651 2833 
C 1498 2827 1062 2827 883 2827 
C 698 2827 320 2827 154 2833 
L 154 2560 
L 563 2560 
L 1747 20 
C 1715 -56 1626 -240 1594 -316 
C 1459 -601 1254 -1038 806 -1038 
C 781 -1038 704 -1038 634 -1000 
C 646 -993 838 -917 838 -676 
C 838 -468 685 -335 493 -335 
C 294 -335 141 -469 141 -684 
C 141 -982 422 -1248 806 -1248 
C 1331 -1248 1677 -779 1805 -500 
L 3168 2421 
z
" transform="scale(0.015625)"/>
     </defs>
     <use xlink:href="#CMBX12-79" transform="scale(0.996264)"/>
     <use xlink:href="#CMBX12-6e" transform="translate(59.153176 -14.943915) scale(0.697382)"/>
    </g>
   </g>
   <g id="text_10">
    <!-- $\mathbf{y_{n-1}}$ -->
    <g transform="translate(78.45675 617.76) scale(0.16 -0.16)">
     <use xlink:href="#CMBX12-79" transform="scale(0.996264)"/>
     <use xlink:href="#CMBX12-6e" transform="translate(59.153176 -14.943915) scale(0.697382)"/>
     <use xlink:href="#CMSY10-0" transform="translate(102.739528 -14.943915) scale(0.697382)"/>
     <use xlink:href="#CMBX12-31" transform="translate(156.980522 -14.943915) scale(0.697382)"/>
    </g>
   </g>
   <g id="text_11">
    <!-- $\mathbf{v} = \mathbf{y_{n-1}} + \mathbf{y_{n}}$ -->
    <g transform="translate(298.05675 399.6) scale(0.16 -0.16)">
     <defs>
      <path id="CMBX12-76" d="M 3168 2402 
C 3213 2498 3238 2549 3642 2549 
L 3642 2816 
C 3411 2816 3398 2816 3136 2816 
C 2963 2816 2950 2816 2586 2816 
L 2586 2549 
C 2758 2549 2899 2517 2899 2472 
C 2899 2466 2899 2460 2867 2396 
L 2118 763 
L 1293 2549 
L 1645 2549 
L 1645 2822 
C 1498 2816 1050 2816 877 2816 
C 691 2816 320 2816 154 2822 
L 154 2549 
L 557 2549 
L 1683 121 
C 1741 0 1754 -32 1901 -32 
C 2003 -32 2054 -19 2112 108 
L 3168 2402 
z
" transform="scale(0.015625)"/>
      <path id="CMR17-2b" d="M 2413 1472 
L 4109 1472 
C 4198 1472 4307 1472 4307 1580 
C 4307 1695 4205 1695 4109 1695 
L 2413 1695 
L 2413 3386 
C 2413 3475 2413 3584 2304 3584 
C 2189 3584 2189 3482 2189 3386 
L 2189 1695 
L 493 1695 
C 403 1695 294 1695 294 1587 
C 294 1472 397 1472 493 1472 
L 2189 1472 
L 2189 -218 
C 2189 -307 2189 -416 2298 -416 
C 2413 -416 2413 -314 2413 -218 
L 2413 1472 
z
" transform="scale(0.015625)"/>
     </defs>
     <use xlink:href="#CMBX12-76" transform="scale(0.996264)"/>
     <use xlink:href="#CMR17-3d" transform="translate(88.383847 0) scale(0.996264)"/>
     <use xlink:href="#CMBX12-79" transform="translate(187.772644 0) scale(0.996264)"/>
     <use xlink:href="#CMBX12-6e" transform="translate(246.92582 -14.943915) scale(0.697382)"/>
     <use xlink:href="#CMSY10-0" transform="translate(290.512172 -14.943915) scale(0.697382)"/>
     <use xlink:href="#CMBX12-31" transform="translate(344.753166 -14.943915) scale(0.697382)"/>
     <use xlink:href="#CMR17-2b" transform="translate(406.618218 0) scale(0.996264)"/>
     <use xlink:href="#CMBX12-79" transform="translate(500.472213 0) scale(0.996264)"/>
     <use xlink:href="#CMBX12-6e" transform="translate(559.625389 -14.943915) scale(0.697382)"/>
    </g>
   </g>
   <g id="text_12">
    <!-- Figure 2. -->
    <g transform="translate(188.184121 363.6) scale(0.16 -0.16)">
     <defs>
      <path id="CMR17-32" d="M 2669 989 
L 2554 989 
C 2490 536 2438 459 2413 420 
C 2381 369 1920 369 1830 369 
L 602 369 
C 832 619 1280 1072 1824 1597 
C 2214 1967 2669 2402 2669 3035 
C 2669 3790 2067 4224 1395 4224 
C 691 4224 262 3604 262 3030 
C 262 2780 448 2748 525 2748 
C 589 2748 781 2787 781 3010 
C 781 3207 614 3264 525 3264 
C 486 3264 448 3258 422 3245 
C 544 3790 915 4058 1306 4058 
C 1862 4058 2227 3617 2227 3035 
C 2227 2479 1901 2000 1536 1584 
L 262 146 
L 262 0 
L 2515 0 
L 2669 989 
z
" transform="scale(0.015625)"/>
     </defs>
     <use xlink:href="#CMR17-46" transform="scale(0.996264)"/>
     <use xlink:href="#CMR17-69" transform="translate(59.983847 0) scale(0.996264)"/>
     <use xlink:href="#CMR17-67" transform="translate(84.854905 0) scale(0.996264)"/>
     <use xlink:href="#CMR17-75" transform="translate(130.545382 0) scale(0.996264)"/>
     <use xlink:href="#CMR17-72" transform="translate(181.440752 0) scale(0.996264)"/>
     <use xlink:href="#CMR17-65" transform="translate(216.72152 0) scale(0.996264)"/>
     <use xlink:href="#CMR17-32" transform="translate(287.283147 0) scale(0.996264)"/>
     <use xlink:href="#CMR17-2e" transform="translate(332.973624 0) scale(0.996264)"/>
    </g>
   </g>
  </g>
  <g id="text_13">
   <!-- Babai's Nearest Plane Algorithm ($n=2$) -->
   <g transform="translate(3.6 22.257528) scale(0.25 -0.25)">
    <defs>
     <path id="CMR17-42" d="M 333 4352 
L 333 4186 
C 774 4186 845 4186 845 3900 
L 845 452 
C 845 166 774 166 333 166 
L 333 0 
L 2534 0 
C 3354 0 3885 583 3885 1164 
C 3885 1741 3360 2233 2675 2233 
C 3290 2356 3718 2771 3718 3264 
C 3718 3802 3194 4352 2368 4352 
L 333 4352 
z
M 1248 2304 
L 1248 3937 
C 1248 4155 1261 4186 1517 4186 
L 2336 4186 
C 2970 4186 3251 3674 3251 3277 
C 3251 2791 2861 2304 2170 2304 
L 1248 2304 
z
M 1517 166 
C 1261 166 1248 197 1248 413 
L 1248 2202 
L 2432 2202 
C 3091 2202 3411 1625 3411 1162 
C 3411 699 3046 166 2349 166 
L 1517 166 
z
" transform="scale(0.015625)"/>
     <path id="CMR17-61" d="M 2304 1653 
C 2304 2072 2304 2294 2035 2543 
C 1798 2752 1523 2816 1306 2816 
C 800 2816 435 2407 435 1971 
C 435 1728 627 1728 666 1728 
C 749 1728 896 1778 896 1954 
C 896 2112 774 2181 666 2181 
C 640 2181 608 2174 589 2168 
C 723 2592 1069 2714 1293 2714 
C 1613 2714 1965 2429 1965 1885 
L 1965 1600 
C 1587 1600 1133 1549 774 1357 
C 371 1133 256 813 256 570 
C 256 77 832 -64 1171 -64 
C 1523 -64 1850 139 1990 511 
C 2003 233 2182 -18 2464 -18 
C 2598 -18 2938 70 2938 567 
L 2938 920 
L 2822 920 
L 2822 562 
C 2822 178 2650 128 2566 128 
C 2304 128 2304 458 2304 738 
L 2304 1653 
z
M 1965 870 
C 1965 317 1568 38 1216 38 
C 896 38 646 275 646 570 
C 646 761 730 1100 1101 1305 
C 1408 1478 1760 1504 1965 1504 
L 1965 870 
z
" transform="scale(0.015625)"/>
     <path id="CMR17-62" d="M 960 4396 
L 198 4326 
L 198 4160 
C 576 4160 634 4122 634 3817 
L 634 -13 
L 749 -13 
L 934 441 
C 1120 141 1395 -64 1766 -64 
C 2406 -64 3053 500 3053 1370 
C 3053 2188 2477 2790 1830 2790 
C 1434 2790 1152 2579 960 2330 
L 960 4396 
z
M 973 2004 
C 973 2118 973 2138 1062 2272 
C 1312 2657 1670 2688 1792 2688 
C 1984 2688 2643 2585 2643 1376 
C 2643 108 1888 38 1734 38 
C 1536 38 1248 114 1043 486 
C 973 608 973 621 973 735 
L 973 2004 
z
" transform="scale(0.015625)"/>
     <path id="CMR17-27" d="M 1024 4025 
C 1037 3955 1043 3929 1043 3820 
C 1043 3415 883 3042 634 2778 
C 608 2752 595 2733 595 2707 
C 595 2681 621 2656 646 2656 
C 691 2656 1146 3105 1146 3811 
C 1146 3952 1133 4426 800 4426 
C 659 4426 538 4331 538 4165 
C 538 3999 659 3904 800 3904 
C 858 3904 966 3923 1024 4025 
z
" transform="scale(0.015625)"/>
     <path id="CMR17-73" d="M 1978 2697 
C 1978 2813 1971 2819 1933 2819 
C 1907 2819 1901 2813 1824 2717 
C 1805 2691 1747 2626 1728 2601 
C 1523 2819 1235 2819 1126 2819 
C 416 2819 160 2447 160 2076 
C 160 1498 813 1365 998 1325 
C 1402 1243 1542 1217 1677 1101 
C 1760 1025 1901 884 1901 654 
C 1901 384 1747 38 1158 38 
C 602 38 403 460 288 1021 
C 269 1110 269 1117 218 1117 
C 166 1117 160 1110 160 983 
L 160 63 
C 160 -51 166 -58 205 -58 
C 237 -58 243 -51 275 0 
C 314 57 410 211 448 276 
C 576 103 800 -64 1158 -64 
C 1792 -64 2131 283 2131 784 
C 2131 1112 1958 1285 1875 1362 
C 1683 1561 1459 1606 1190 1657 
C 838 1735 390 1825 390 2217 
C 390 2383 480 2737 1126 2737 
C 1811 2737 1850 2094 1862 1888 
C 1869 1856 1901 1849 1920 1849 
C 1978 1849 1978 1869 1978 1978 
L 1978 2697 
z
" transform="scale(0.015625)"/>
     <path id="CMR17-4e" d="M 1312 4250 
C 1267 4320 1261 4320 1139 4320 
L 326 4320 
L 326 4160 
L 448 4160 
C 704 4160 819 4129 838 4122 
L 838 610 
C 838 451 838 153 326 153 
L 326 -13 
C 474 0 742 0 902 0 
C 1062 0 1331 0 1478 -13 
L 1478 153 
C 966 153 966 451 966 610 
L 966 4033 
C 1011 3995 1011 3982 1056 3919 
L 3430 76 
C 3475 0 3494 0 3526 0 
C 3590 0 3590 19 3590 139 
L 3590 3705 
C 3590 3863 3590 4160 4102 4160 
L 4102 4326 
C 3955 4320 3686 4320 3526 4320 
C 3366 4320 3098 4320 2950 4326 
L 2950 4160 
C 3462 4160 3462 3862 3462 3703 
L 3462 763 
L 1312 4250 
z
" transform="scale(0.015625)"/>
     <path id="CMR17-74" d="M 966 2560 
L 1862 2560 
L 1862 2725 
L 966 2725 
L 966 3904 
L 851 3904 
C 838 3245 614 2668 70 2668 
L 70 2560 
L 627 2560 
L 627 771 
C 627 650 627 -64 1370 -64 
C 1747 -64 1965 306 1965 777 
L 1965 1140 
L 1850 1140 
L 1850 783 
C 1850 344 1677 51 1408 51 
C 1222 51 966 178 966 758 
L 966 2560 
z
" transform="scale(0.015625)"/>
     <path id="CMR17-50" d="M 1267 2042 
L 2291 2042 
C 3117 2042 3718 2578 3718 3184 
C 3718 3791 3130 4352 2291 4352 
L 333 4352 
L 333 4186 
C 774 4186 845 4186 845 3899 
L 845 446 
C 845 160 774 160 333 160 
L 333 0 
C 518 0 858 0 1056 0 
C 1254 0 1594 0 1779 0 
L 1779 160 
C 1338 160 1267 160 1267 446 
L 1267 2042 
z
M 1254 2176 
L 1254 3938 
C 1254 4155 1267 4186 1523 4186 
L 2170 4186 
C 2995 4186 3232 3714 3232 3184 
C 3232 2604 2950 2176 2170 2176 
L 1254 2176 
z
" transform="scale(0.015625)"/>
     <path id="CMR17-6c" d="M 979 4396 
L 218 4326 
L 218 4160 
C 595 4160 653 4122 653 3817 
L 653 426 
C 653 184 627 153 218 153 
L 218 -13 
C 371 0 653 0 813 0 
C 979 0 1261 0 1414 -13 
L 1414 153 
C 1005 153 979 178 979 426 
L 979 4396 
z
" transform="scale(0.015625)"/>
     <path id="CMR17-6e" d="M 2656 1933 
C 2656 2259 2592 2790 1837 2790 
C 1331 2790 1069 2400 973 2144 
L 966 2144 
L 966 2790 
L 211 2720 
L 211 2554 
C 589 2554 646 2515 646 2208 
L 646 428 
C 646 184 621 153 211 153 
L 211 -13 
C 365 0 646 0 813 0 
C 979 0 1267 0 1421 -13 
L 1421 153 
C 1011 153 986 178 986 428 
L 986 1658 
C 986 2247 1344 2688 1792 2688 
C 2266 2688 2317 2266 2317 1958 
L 2317 428 
C 2317 184 2291 153 1882 153 
L 1882 -13 
C 2035 0 2317 0 2483 0 
C 2650 0 2938 0 3091 -13 
L 3091 153 
C 2682 153 2656 178 2656 428 
L 2656 1933 
z
" transform="scale(0.015625)"/>
     <path id="CMR17-41" d="M 2323 4378 
C 2291 4461 2278 4480 2214 4480 
C 2150 4480 2138 4461 2106 4378 
L 749 566 
C 627 223 371 153 147 153 
L 147 -13 
C 262 0 518 0 640 0 
C 800 0 1056 0 1210 -13 
L 1210 153 
C 909 153 864 361 864 439 
C 864 497 877 530 890 569 
L 1229 1536 
L 2906 1536 
L 3290 442 
C 3322 365 3322 352 3322 327 
C 3322 153 3046 153 2925 153 
L 2925 0 
C 3110 0 3443 0 3642 0 
C 3808 0 4128 0 4282 -13 
L 4282 153 
C 3942 153 3827 153 3744 387 
L 2323 4378 
z
M 2067 3893 
L 2848 1702 
L 1286 1702 
L 2067 3893 
z
" transform="scale(0.015625)"/>
     <path id="CMR17-6f" d="M 2758 1356 
C 2758 2176 2163 2816 1466 2816 
C 768 2816 173 2176 173 1356 
C 173 551 768 -64 1466 -64 
C 2163 -64 2758 551 2758 1356 
z
M 1466 51 
C 1165 51 909 230 762 480 
C 602 767 582 1126 582 1408 
C 582 1677 595 2010 762 2298 
C 890 2509 1139 2714 1466 2714 
C 1754 2714 1997 2554 2150 2330 
C 2349 2029 2349 1607 2349 1408 
C 2349 1158 2336 775 2163 467 
C 1984 173 1709 51 1466 51 
z
" transform="scale(0.015625)"/>
     <path id="CMR17-68" d="M 2656 1933 
C 2656 2259 2592 2790 1837 2790 
C 1312 2790 1056 2368 979 2157 
L 973 2157 
L 973 4396 
L 211 4326 
L 211 4160 
C 589 4160 646 4122 646 3817 
L 646 426 
C 646 184 621 153 211 153 
L 211 -13 
C 365 0 646 0 813 0 
C 979 0 1267 0 1421 -13 
L 1421 153 
C 1011 153 986 178 986 428 
L 986 1658 
C 986 2247 1344 2688 1792 2688 
C 2266 2688 2317 2266 2317 1958 
L 2317 428 
C 2317 184 2291 153 1882 153 
L 1882 -13 
C 2035 0 2317 0 2483 0 
C 2650 0 2938 0 3091 -13 
L 3091 153 
C 2682 153 2656 178 2656 428 
L 2656 1933 
z
" transform="scale(0.015625)"/>
     <path id="CMR17-6d" d="M 4326 1933 
C 4326 2252 4269 2790 3507 2790 
C 3072 2790 2771 2496 2656 2151 
L 2650 2151 
C 2573 2676 2195 2790 1837 2790 
C 1331 2790 1069 2400 973 2144 
L 966 2144 
L 966 2790 
L 211 2720 
L 211 2554 
C 589 2554 646 2515 646 2208 
L 646 428 
C 646 184 621 153 211 153 
L 211 -13 
C 365 0 646 0 813 0 
C 979 0 1267 0 1421 -13 
L 1421 153 
C 1011 153 986 178 986 428 
L 986 1658 
C 986 2247 1344 2688 1792 2688 
C 2266 2688 2317 2266 2317 1958 
L 2317 428 
C 2317 184 2291 153 1882 153 
L 1882 -13 
C 2035 0 2317 0 2483 0 
C 2650 0 2938 0 3091 -13 
L 3091 153 
C 2682 153 2656 178 2656 428 
L 2656 1658 
C 2656 2247 3014 2688 3462 2688 
C 3936 2688 3987 2266 3987 1958 
L 3987 428 
C 3987 184 3962 153 3552 153 
L 3552 -13 
C 3706 0 3987 0 4154 0 
C 4320 0 4608 0 4762 -13 
L 4762 153 
C 4352 153 4326 178 4326 428 
L 4326 1933 
z
" transform="scale(0.015625)"/>
     <path id="CMR17-28" d="M 1958 -1561 
C 1958 -1555 1958 -1542 1939 -1523 
C 1645 -1224 858 -407 858 1581 
C 858 3569 1632 4379 1946 4697 
C 1946 4704 1958 4717 1958 4736 
C 1958 4755 1939 4768 1914 4768 
C 1843 4768 1299 4296 986 3594 
C 666 2887 576 2199 576 1588 
C 576 1128 621 351 1005 -471 
C 1312 -1135 1837 -1600 1914 -1600 
C 1946 -1600 1958 -1587 1958 -1561 
z
" transform="scale(0.015625)"/>
     <path id="CMMI12-6e" d="M 1318 1871 
C 1331 1910 1491 2229 1728 2433 
C 1894 2586 2112 2689 2362 2689 
C 2618 2689 2707 2497 2707 2242 
C 2707 1878 2445 1150 2317 805 
C 2259 651 2227 568 2227 453 
C 2227 166 2426 -64 2733 -64 
C 3328 -64 3552 875 3552 913 
C 3552 945 3526 971 3488 971 
C 3430 971 3424 952 3392 843 
C 3245 319 3002 64 2752 64 
C 2688 64 2586 64 2586 269 
C 2586 429 2656 621 2694 710 
C 2822 1063 3091 1780 3091 2145 
C 3091 2528 2867 2816 2381 2816 
C 1811 2816 1510 2415 1395 2255 
C 1376 2618 1114 2816 832 2816 
C 627 2816 486 2695 378 2478 
C 262 2248 173 1865 173 1839 
C 173 1814 198 1782 243 1782 
C 294 1782 301 1788 339 1935 
C 442 2325 557 2689 813 2689 
C 960 2689 1011 2586 1011 2395 
C 1011 2254 947 2005 902 1807 
L 723 1118 
C 698 996 627 709 595 594 
C 550 428 480 128 480 96 
C 480 6 550 -64 646 -64 
C 723 -64 813 -26 864 70 
C 877 102 934 326 966 453 
L 1107 1028 
L 1318 1871 
z
" transform="scale(0.015625)"/>
     <path id="CMR17-29" d="M 1683 1581 
C 1683 2040 1638 2817 1254 3639 
C 947 4303 422 4768 346 4768 
C 326 4768 301 4761 301 4729 
C 301 4717 307 4710 314 4697 
C 621 4378 1402 3568 1402 1584 
C 1402 -407 627 -1217 314 -1537 
C 307 -1549 301 -1556 301 -1568 
C 301 -1600 326 -1600 346 -1600 
C 416 -1600 960 -1128 1274 -426 
C 1594 281 1683 969 1683 1581 
z
" transform="scale(0.015625)"/>
    </defs>
    <use xlink:href="#CMR17-42" transform="scale(0.996264)"/>
    <use xlink:href="#CMR17-61" transform="translate(65.188754 0) scale(0.996264)"/>
    <use xlink:href="#CMR17-62" transform="translate(110.879232 0) scale(0.996264)"/>
    <use xlink:href="#CMR17-61" transform="translate(161.774601 0) scale(0.996264)"/>
    <use xlink:href="#CMR17-69" transform="translate(207.465078 0) scale(0.996264)"/>
    <use xlink:href="#CMR17-27" transform="translate(232.336137 0) scale(0.996264)"/>
    <use xlink:href="#CMR17-73" transform="translate(257.207195 0) scale(0.996264)"/>
    <use xlink:href="#CMR17-4e" transform="translate(323.084499 0) scale(0.996264)"/>
    <use xlink:href="#CMR17-65" transform="translate(392.156929 0) scale(0.996264)"/>
    <use xlink:href="#CMR17-61" transform="translate(432.64259 0) scale(0.996264)"/>
    <use xlink:href="#CMR17-72" transform="translate(478.333067 0) scale(0.996264)"/>
    <use xlink:href="#CMR17-65" transform="translate(513.613835 0) scale(0.996264)"/>
    <use xlink:href="#CMR17-73" transform="translate(554.099495 0) scale(0.996264)"/>
    <use xlink:href="#CMR17-74" transform="translate(589.900833 0) scale(0.996264)"/>
    <use xlink:href="#CMR17-50" transform="translate(655.257567 0) scale(0.996264)"/>
    <use xlink:href="#CMR17-6c" transform="translate(717.843867 0) scale(0.996264)"/>
    <use xlink:href="#CMR17-61" transform="translate(742.714926 0) scale(0.996264)"/>
    <use xlink:href="#CMR17-6e" transform="translate(788.405403 0) scale(0.996264)"/>
    <use xlink:href="#CMR17-65" transform="translate(839.300773 0) scale(0.996264)"/>
    <use xlink:href="#CMR17-41" transform="translate(909.8624 0) scale(0.996264)"/>
    <use xlink:href="#CMR17-6c" transform="translate(978.934829 0) scale(0.996264)"/>
    <use xlink:href="#CMR17-67" transform="translate(1003.805888 0) scale(0.996264)"/>
    <use xlink:href="#CMR17-6f" transform="translate(1049.496365 0) scale(0.996264)"/>
    <use xlink:href="#CMR17-72" transform="translate(1095.186842 0) scale(0.996264)"/>
    <use xlink:href="#CMR17-69" transform="translate(1130.46761 0) scale(0.996264)"/>
    <use xlink:href="#CMR17-74" transform="translate(1155.338668 0) scale(0.996264)"/>
    <use xlink:href="#CMR17-68" transform="translate(1190.619436 0) scale(0.996264)"/>
    <use xlink:href="#CMR17-6d" transform="translate(1241.514806 0) scale(0.996264)"/>
    <use xlink:href="#CMR17-28" transform="translate(1348.510362 0) scale(0.996264)"/>
    <use xlink:href="#CMMI12-6e" transform="translate(1383.79113 0) scale(0.996264)"/>
    <use xlink:href="#CMR17-3d" transform="translate(1469.695186 0) scale(0.996264)"/>
    <use xlink:href="#CMR17-32" transform="translate(1569.083983 0) scale(0.996264)"/>
    <use xlink:href="#CMR17-29" transform="translate(1614.77446 0) scale(0.996264)"/>
   </g>
  </g>
 </g>
 <defs>
  <clipPath id="pb426d5d6f3">
   <rect x="38.85675" y="75.6" width="360" height="252"/>
  </clipPath>
  <clipPath id="ped3dc80309">
   <rect x="38.85675" y="378" width="360" height="252"/>
  </clipPath>
 </defs>
</svg>
