<?xml version="1.0" encoding="utf-8" standalone="no"?>
<!DOCTYPE svg PUBLIC "-//W3C//DTD SVG 1.1//EN"
  "http://www.w3.org/Graphics/SVG/1.1/DTD/svg11.dtd">
<svg xmlns:xlink="http://www.w3.org/1999/xlink" width="946.148361pt" height="575.232198pt" viewBox="0 0 946.148361 575.232198" xmlns="http://www.w3.org/2000/svg" version="1.1">
 <metadata>
  <rdf:RDF xmlns:dc="http://purl.org/dc/elements/1.1/" xmlns:cc="http://creativecommons.org/ns#" xmlns:rdf="http://www.w3.org/1999/02/22-rdf-syntax-ns#">
   <cc:Work>
    <dc:type rdf:resource="http://purl.org/dc/dcmitype/StillImage"/>
    <dc:date>2024-06-19T11:27:06.353793</dc:date>
    <dc:format>image/svg+xml</dc:format>
    <dc:creator>
     <cc:Agent>
      <dc:title>Matplotlib v3.9.0, https://matplotlib.org/</dc:title>
     </cc:Agent>
    </dc:creator>
   </cc:Work>
  </rdf:RDF>
 </metadata>
 <defs>
  <style type="text/css">*{stroke-linejoin: round; stroke-linecap: butt}</style>
 </defs>
 <g id="figure_1">
  <g id="patch_1">
   <path d="M 0 575.232198 
L 946.148361 575.232198 
L 946.148361 0 
L 0 0 
z
" style="fill: #ffffff"/>
  </g>
  <g id="axes_1">
   <g id="patch_2">
    <path d="M 78.04564 525.164405 
L 915.04564 525.164405 
L 915.04564 26.204405 
L 78.04564 26.204405 
z
" style="fill: #ffffff"/>
   </g>
   <g id="patch_3">
    <path d="M 485.87869 525.164405 
L 492.98999 525.164405 
L 492.98999 49.964405 
L 485.87869 49.964405 
z
" clip-path="url(#p5777ffe2a7)" style="fill: #0c5da5; stroke: #000000; stroke-linejoin: miter"/>
   </g>
   <g id="patch_4">
    <path d="M 492.98999 525.164405 
L 500.10129 525.164405 
L 500.10129 75.821271 
L 492.98999 75.821271 
z
" clip-path="url(#p5777ffe2a7)" style="fill: #0c5da5; stroke: #000000; stroke-linejoin: miter"/>
   </g>
   <g id="patch_5">
    <path d="M 478.76739 525.164405 
L 485.87869 525.164405 
L 485.87869 66.272213 
L 478.76739 66.272213 
z
" clip-path="url(#p5777ffe2a7)" style="fill: #0c5da5; stroke: #000000; stroke-linejoin: miter"/>
   </g>
   <g id="patch_6">
    <path d="M 500.10129 525.164405 
L 507.21259 525.164405 
L 507.21259 117.551896 
L 500.10129 117.551896 
z
" clip-path="url(#p5777ffe2a7)" style="fill: #0c5da5; stroke: #000000; stroke-linejoin: miter"/>
   </g>
   <g id="patch_7">
    <path d="M 471.65609 525.164405 
L 478.76739 525.164405 
L 478.76739 118.46133 
L 471.65609 118.46133 
z
" clip-path="url(#p5777ffe2a7)" style="fill: #0c5da5; stroke: #000000; stroke-linejoin: miter"/>
   </g>
   <g id="patch_8">
    <path d="M 464.54479 525.164405 
L 471.65609 525.164405 
L 471.65609 153.991268 
L 464.54479 153.991268 
z
" clip-path="url(#p5777ffe2a7)" style="fill: #0c5da5; stroke: #000000; stroke-linejoin: miter"/>
   </g>
   <g id="patch_9">
    <path d="M 507.21259 525.164405 
L 514.323889 525.164405 
L 514.323889 157.463653 
L 507.21259 157.463653 
z
" clip-path="url(#p5777ffe2a7)" style="fill: #0c5da5; stroke: #000000; stroke-linejoin: miter"/>
   </g>
   <g id="patch_10">
    <path d="M 514.323889 525.164405 
L 521.435189 525.164405 
L 521.435189 189.128496 
L 514.323889 189.128496 
z
" clip-path="url(#p5777ffe2a7)" style="fill: #0c5da5; stroke: #000000; stroke-linejoin: miter"/>
   </g>
   <g id="patch_11">
    <path d="M 521.435189 525.164405 
L 528.546489 525.164405 
L 528.546489 226.518639 
L 521.435189 226.518639 
z
" clip-path="url(#p5777ffe2a7)" style="fill: #0c5da5; stroke: #000000; stroke-linejoin: miter"/>
   </g>
   <g id="patch_12">
    <path d="M 528.546489 525.164405 
L 535.657789 525.164405 
L 535.657789 257.04669 
L 528.546489 257.04669 
z
" clip-path="url(#p5777ffe2a7)" style="fill: #0c5da5; stroke: #000000; stroke-linejoin: miter"/>
   </g>
   <g id="patch_13">
    <path d="M 407.654391 525.164405 
L 414.765691 525.164405 
L 414.765691 380.254345 
L 407.654391 380.254345 
z
" clip-path="url(#p5777ffe2a7)" style="fill: #0c5da5; stroke: #000000; stroke-linejoin: miter"/>
   </g>
   <g id="patch_14">
    <path d="M 443.21089 525.164405 
L 450.32219 525.164405 
L 450.32219 263.433397 
L 443.21089 263.433397 
z
" clip-path="url(#p5777ffe2a7)" style="fill: #0c5da5; stroke: #000000; stroke-linejoin: miter"/>
   </g>
   <g id="patch_15">
    <path d="M 542.769089 525.164405 
L 549.880389 525.164405 
L 549.880389 317.834093 
L 542.769089 317.834093 
z
" clip-path="url(#p5777ffe2a7)" style="fill: #0c5da5; stroke: #000000; stroke-linejoin: miter"/>
   </g>
   <g id="patch_16">
    <path d="M 556.991689 525.164405 
L 564.102989 525.164405 
L 564.102989 360.618835 
L 556.991689 360.618835 
z
" clip-path="url(#p5777ffe2a7)" style="fill: #0c5da5; stroke: #000000; stroke-linejoin: miter"/>
   </g>
   <g id="patch_17">
    <path d="M 436.09959 525.164405 
L 443.21089 525.164405 
L 443.21089 286.76865 
L 436.09959 286.76865 
z
" clip-path="url(#p5777ffe2a7)" style="fill: #0c5da5; stroke: #000000; stroke-linejoin: miter"/>
   </g>
   <g id="patch_18">
    <path d="M 393.431791 525.164405 
L 400.543091 525.164405 
L 400.543091 417.437799 
L 393.431791 417.437799 
z
" clip-path="url(#p5777ffe2a7)" style="fill: #0c5da5; stroke: #000000; stroke-linejoin: miter"/>
   </g>
   <g id="patch_19">
    <path d="M 450.32219 525.164405 
L 457.43349 525.164405 
L 457.43349 227.841453 
L 450.32219 227.841453 
z
" clip-path="url(#p5777ffe2a7)" style="fill: #0c5da5; stroke: #000000; stroke-linejoin: miter"/>
   </g>
   <g id="patch_20">
    <path d="M 400.543091 525.164405 
L 407.654391 525.164405 
L 407.654391 401.708723 
L 400.543091 401.708723 
z
" clip-path="url(#p5777ffe2a7)" style="fill: #0c5da5; stroke: #000000; stroke-linejoin: miter"/>
   </g>
   <g id="patch_21">
    <path d="M 457.43349 525.164405 
L 464.54479 525.164405 
L 464.54479 186.358855 
L 457.43349 186.358855 
z
" clip-path="url(#p5777ffe2a7)" style="fill: #0c5da5; stroke: #000000; stroke-linejoin: miter"/>
   </g>
   <g id="patch_22">
    <path d="M 564.102989 525.164405 
L 571.214289 525.164405 
L 571.214289 384.574157 
L 564.102989 384.574157 
z
" clip-path="url(#p5777ffe2a7)" style="fill: #0c5da5; stroke: #000000; stroke-linejoin: miter"/>
   </g>
   <g id="patch_23">
    <path d="M 549.880389 525.164405 
L 556.991689 525.164405 
L 556.991689 339.019775 
L 549.880389 339.019775 
z
" clip-path="url(#p5777ffe2a7)" style="fill: #0c5da5; stroke: #000000; stroke-linejoin: miter"/>
   </g>
   <g id="patch_24">
    <path d="M 421.876991 525.164405 
L 428.98829 525.164405 
L 428.98829 339.495161 
L 421.876991 339.495161 
z
" clip-path="url(#p5777ffe2a7)" style="fill: #0c5da5; stroke: #000000; stroke-linejoin: miter"/>
   </g>
   <g id="patch_25">
    <path d="M 372.097891 525.164405 
L 379.209191 525.164405 
L 379.209191 454.931288 
L 372.097891 454.931288 
z
" clip-path="url(#p5777ffe2a7)" style="fill: #0c5da5; stroke: #000000; stroke-linejoin: miter"/>
   </g>
   <g id="patch_26">
    <path d="M 599.659488 525.164405 
L 606.770788 525.164405 
L 606.770788 455.220653 
L 599.659488 455.220653 
z
" clip-path="url(#p5777ffe2a7)" style="fill: #0c5da5; stroke: #000000; stroke-linejoin: miter"/>
   </g>
   <g id="patch_27">
    <path d="M 379.209191 525.164405 
L 386.320491 525.164405 
L 386.320491 443.439348 
L 379.209191 443.439348 
z
" clip-path="url(#p5777ffe2a7)" style="fill: #0c5da5; stroke: #000000; stroke-linejoin: miter"/>
   </g>
   <g id="patch_28">
    <path d="M 571.214289 525.164405 
L 578.325589 525.164405 
L 578.325589 400.675275 
L 571.214289 400.675275 
z
" clip-path="url(#p5777ffe2a7)" style="fill: #0c5da5; stroke: #000000; stroke-linejoin: miter"/>
   </g>
   <g id="patch_29">
    <path d="M 428.98829 525.164405 
L 436.09959 525.164405 
L 436.09959 315.229805 
L 428.98829 315.229805 
z
" clip-path="url(#p5777ffe2a7)" style="fill: #0c5da5; stroke: #000000; stroke-linejoin: miter"/>
   </g>
   <g id="patch_30">
    <path d="M 578.325589 525.164405 
L 585.436889 525.164405 
L 585.436889 418.450578 
L 578.325589 418.450578 
z
" clip-path="url(#p5777ffe2a7)" style="fill: #0c5da5; stroke: #000000; stroke-linejoin: miter"/>
   </g>
   <g id="patch_31">
    <path d="M 656.549888 525.164405 
L 663.661188 525.164405 
L 663.661188 506.893047 
L 656.549888 506.893047 
z
" clip-path="url(#p5777ffe2a7)" style="fill: #0c5da5; stroke: #000000; stroke-linejoin: miter"/>
   </g>
   <g id="patch_32">
    <path d="M 386.320491 525.164405 
L 393.431791 525.164405 
L 393.431791 428.805726 
L 386.320491 428.805726 
z
" clip-path="url(#p5777ffe2a7)" style="fill: #0c5da5; stroke: #000000; stroke-linejoin: miter"/>
   </g>
   <g id="patch_33">
    <path d="M 343.652691 525.164405 
L 350.763991 525.164405 
L 350.763991 489.117743 
L 343.652691 489.117743 
z
" clip-path="url(#p5777ffe2a7)" style="fill: #0c5da5; stroke: #000000; stroke-linejoin: miter"/>
   </g>
   <g id="patch_34">
    <path d="M 336.541392 525.164405 
L 343.652691 525.164405 
L 343.652691 495.421776 
L 336.541392 495.421776 
z
" clip-path="url(#p5777ffe2a7)" style="fill: #0c5da5; stroke: #000000; stroke-linejoin: miter"/>
   </g>
   <g id="patch_35">
    <path d="M 414.765691 525.164405 
L 421.876991 525.164405 
L 421.876991 363.843193 
L 414.765691 363.843193 
z
" clip-path="url(#p5777ffe2a7)" style="fill: #0c5da5; stroke: #000000; stroke-linejoin: miter"/>
   </g>
   <g id="patch_36">
    <path d="M 350.763991 525.164405 
L 357.875291 525.164405 
L 357.875291 481.821602 
L 350.763991 481.821602 
z
" clip-path="url(#p5777ffe2a7)" style="fill: #0c5da5; stroke: #000000; stroke-linejoin: miter"/>
   </g>
   <g id="patch_37">
    <path d="M 606.770788 525.164405 
L 613.882088 525.164405 
L 613.882088 464.99707 
L 606.770788 464.99707 
z
" clip-path="url(#p5777ffe2a7)" style="fill: #0c5da5; stroke: #000000; stroke-linejoin: miter"/>
   </g>
   <g id="patch_38">
    <path d="M 535.657789 525.164405 
L 542.769089 525.164405 
L 542.769089 287.96745 
L 535.657789 287.96745 
z
" clip-path="url(#p5777ffe2a7)" style="fill: #0c5da5; stroke: #000000; stroke-linejoin: miter"/>
   </g>
   <g id="patch_39">
    <path d="M 592.548188 525.164405 
L 599.659488 525.164405 
L 599.659488 447.015077 
L 592.548188 447.015077 
z
" clip-path="url(#p5777ffe2a7)" style="fill: #0c5da5; stroke: #000000; stroke-linejoin: miter"/>
   </g>
   <g id="patch_40">
    <path d="M 364.986591 525.164405 
L 372.097891 525.164405 
L 372.097891 465.658477 
L 364.986591 465.658477 
z
" clip-path="url(#p5777ffe2a7)" style="fill: #0c5da5; stroke: #000000; stroke-linejoin: miter"/>
   </g>
   <g id="patch_41">
    <path d="M 308.096192 525.164405 
L 315.207492 525.164405 
L 315.207492 510.241418 
L 308.096192 510.241418 
z
" clip-path="url(#p5777ffe2a7)" style="fill: #0c5da5; stroke: #000000; stroke-linejoin: miter"/>
   </g>
   <g id="patch_42">
    <path d="M 670.772488 525.164405 
L 677.883787 525.164405 
L 677.883787 512.804369 
L 670.772488 512.804369 
z
" clip-path="url(#p5777ffe2a7)" style="fill: #0c5da5; stroke: #000000; stroke-linejoin: miter"/>
   </g>
   <g id="patch_43">
    <path d="M 620.993388 525.164405 
L 628.104688 525.164405 
L 628.104688 481.84227 
L 620.993388 481.84227 
z
" clip-path="url(#p5777ffe2a7)" style="fill: #0c5da5; stroke: #000000; stroke-linejoin: miter"/>
   </g>
   <g id="patch_44">
    <path d="M 713.440287 525.164405 
L 720.551587 525.164405 
L 720.551587 522.270751 
L 713.440287 522.270751 
z
" clip-path="url(#p5777ffe2a7)" style="fill: #0c5da5; stroke: #000000; stroke-linejoin: miter"/>
   </g>
   <g id="patch_45">
    <path d="M 293.873592 525.164405 
L 300.984892 525.164405 
L 300.984892 515.387988 
L 293.873592 515.387988 
z
" clip-path="url(#p5777ffe2a7)" style="fill: #0c5da5; stroke: #000000; stroke-linejoin: miter"/>
   </g>
   <g id="patch_46">
    <path d="M 720.551587 525.164405 
L 727.662887 525.164405 
L 727.662887 522.229413 
L 720.551587 522.229413 
z
" clip-path="url(#p5777ffe2a7)" style="fill: #0c5da5; stroke: #000000; stroke-linejoin: miter"/>
   </g>
   <g id="patch_47">
    <path d="M 585.436889 525.164405 
L 592.548188 525.164405 
L 592.548188 431.30667 
L 585.436889 431.30667 
z
" clip-path="url(#p5777ffe2a7)" style="fill: #0c5da5; stroke: #000000; stroke-linejoin: miter"/>
   </g>
   <g id="patch_48">
    <path d="M 357.875291 525.164405 
L 364.986591 525.164405 
L 364.986591 472.313881 
L 357.875291 472.313881 
z
" clip-path="url(#p5777ffe2a7)" style="fill: #0c5da5; stroke: #000000; stroke-linejoin: miter"/>
   </g>
   <g id="patch_49">
    <path d="M 613.882088 525.164405 
L 620.993388 525.164405 
L 620.993388 474.91817 
L 613.882088 474.91817 
z
" clip-path="url(#p5777ffe2a7)" style="fill: #0c5da5; stroke: #000000; stroke-linejoin: miter"/>
   </g>
   <g id="patch_50">
    <path d="M 300.984892 525.164405 
L 308.096192 525.164405 
L 308.096192 513.403768 
L 300.984892 513.403768 
z
" clip-path="url(#p5777ffe2a7)" style="fill: #0c5da5; stroke: #000000; stroke-linejoin: miter"/>
   </g>
   <g id="patch_51">
    <path d="M 635.215988 525.164405 
L 642.327288 525.164405 
L 642.327288 493.292873 
L 635.215988 493.292873 
z
" clip-path="url(#p5777ffe2a7)" style="fill: #0c5da5; stroke: #000000; stroke-linejoin: miter"/>
   </g>
   <g id="patch_52">
    <path d="M 628.104688 525.164405 
L 635.215988 525.164405 
L 635.215988 488.828378 
L 628.104688 488.828378 
z
" clip-path="url(#p5777ffe2a7)" style="fill: #0c5da5; stroke: #000000; stroke-linejoin: miter"/>
   </g>
   <g id="patch_53">
    <path d="M 329.430092 525.164405 
L 336.541392 525.164405 
L 336.541392 500.382325 
L 329.430092 500.382325 
z
" clip-path="url(#p5777ffe2a7)" style="fill: #0c5da5; stroke: #000000; stroke-linejoin: miter"/>
   </g>
   <g id="patch_54">
    <path d="M 642.327288 525.164405 
L 649.438588 525.164405 
L 649.438588 499.679581 
L 642.327288 499.679581 
z
" clip-path="url(#p5777ffe2a7)" style="fill: #0c5da5; stroke: #000000; stroke-linejoin: miter"/>
   </g>
   <g id="patch_55">
    <path d="M 692.106387 525.164405 
L 699.217687 525.164405 
L 699.217687 518.633015 
L 692.106387 518.633015 
z
" clip-path="url(#p5777ffe2a7)" style="fill: #0c5da5; stroke: #000000; stroke-linejoin: miter"/>
   </g>
   <g id="patch_56">
    <path d="M 649.438588 525.164405 
L 656.549888 525.164405 
L 656.549888 503.730696 
L 649.438588 503.730696 
z
" clip-path="url(#p5777ffe2a7)" style="fill: #0c5da5; stroke: #000000; stroke-linejoin: miter"/>
   </g>
   <g id="patch_57">
    <path d="M 663.661188 525.164405 
L 670.772488 525.164405 
L 670.772488 510.282756 
L 663.661188 510.282756 
z
" clip-path="url(#p5777ffe2a7)" style="fill: #0c5da5; stroke: #000000; stroke-linejoin: miter"/>
   </g>
   <g id="patch_58">
    <path d="M 699.217687 525.164405 
L 706.328987 525.164405 
L 706.328987 519.604456 
L 699.217687 519.604456 
z
" clip-path="url(#p5777ffe2a7)" style="fill: #0c5da5; stroke: #000000; stroke-linejoin: miter"/>
   </g>
   <g id="patch_59">
    <path d="M 322.318792 525.164405 
L 329.430092 525.164405 
L 329.430092 503.048621 
L 322.318792 503.048621 
z
" clip-path="url(#p5777ffe2a7)" style="fill: #0c5da5; stroke: #000000; stroke-linejoin: miter"/>
   </g>
   <g id="patch_60">
    <path d="M 315.207492 525.164405 
L 322.318792 525.164405 
L 322.318792 508.257198 
L 315.207492 508.257198 
z
" clip-path="url(#p5777ffe2a7)" style="fill: #0c5da5; stroke: #000000; stroke-linejoin: miter"/>
   </g>
   <g id="patch_61">
    <path d="M 855.666285 525.164405 
L 862.777585 525.164405 
L 862.777585 525.143736 
L 855.666285 525.143736 
z
" clip-path="url(#p5777ffe2a7)" style="fill: #0c5da5; stroke: #000000; stroke-linejoin: miter"/>
   </g>
   <g id="patch_62">
    <path d="M 706.328987 525.164405 
L 713.440287 525.164405 
L 713.440287 521.154627 
L 706.328987 521.154627 
z
" clip-path="url(#p5777ffe2a7)" style="fill: #0c5da5; stroke: #000000; stroke-linejoin: miter"/>
   </g>
   <g id="patch_63">
    <path d="M 677.883787 525.164405 
L 684.995087 525.164405 
L 684.995087 516.462774 
L 677.883787 516.462774 
z
" clip-path="url(#p5777ffe2a7)" style="fill: #0c5da5; stroke: #000000; stroke-linejoin: miter"/>
   </g>
   <g id="patch_64">
    <path d="M 229.871893 525.164405 
L 236.983193 525.164405 
L 236.983193 524.089619 
L 229.871893 524.089619 
z
" clip-path="url(#p5777ffe2a7)" style="fill: #0c5da5; stroke: #000000; stroke-linejoin: miter"/>
   </g>
   <g id="patch_65">
    <path d="M 201.426693 525.164405 
L 208.537993 525.164405 
L 208.537993 524.585674 
L 201.426693 524.585674 
z
" clip-path="url(#p5777ffe2a7)" style="fill: #0c5da5; stroke: #000000; stroke-linejoin: miter"/>
   </g>
   <g id="patch_66">
    <path d="M 684.995087 525.164405 
L 692.106387 525.164405 
L 692.106387 516.958829 
L 684.995087 516.958829 
z
" clip-path="url(#p5777ffe2a7)" style="fill: #0c5da5; stroke: #000000; stroke-linejoin: miter"/>
   </g>
   <g id="patch_67">
    <path d="M 272.539692 525.164405 
L 279.650992 525.164405 
L 279.650992 519.955828 
L 272.539692 519.955828 
z
" clip-path="url(#p5777ffe2a7)" style="fill: #0c5da5; stroke: #000000; stroke-linejoin: miter"/>
   </g>
   <g id="patch_68">
    <path d="M 286.762292 525.164405 
L 293.873592 525.164405 
L 293.873592 517.000167 
L 286.762292 517.000167 
z
" clip-path="url(#p5777ffe2a7)" style="fill: #0c5da5; stroke: #000000; stroke-linejoin: miter"/>
   </g>
   <g id="patch_69">
    <path d="M 251.205793 525.164405 
L 258.317092 525.164405 
L 258.317092 522.518779 
L 251.205793 522.518779 
z
" clip-path="url(#p5777ffe2a7)" style="fill: #0c5da5; stroke: #000000; stroke-linejoin: miter"/>
   </g>
   <g id="patch_70">
    <path d="M 258.317092 525.164405 
L 265.428392 525.164405 
L 265.428392 522.188075 
L 258.317092 522.188075 
z
" clip-path="url(#p5777ffe2a7)" style="fill: #0c5da5; stroke: #000000; stroke-linejoin: miter"/>
   </g>
   <g id="patch_71">
    <path d="M 734.774187 525.164405 
L 741.885487 525.164405 
L 741.885487 523.324868 
L 734.774187 523.324868 
z
" clip-path="url(#p5777ffe2a7)" style="fill: #0c5da5; stroke: #000000; stroke-linejoin: miter"/>
   </g>
   <g id="patch_72">
    <path d="M 770.330686 525.164405 
L 777.441986 525.164405 
L 777.441986 524.689019 
L 770.330686 524.689019 
z
" clip-path="url(#p5777ffe2a7)" style="fill: #0c5da5; stroke: #000000; stroke-linejoin: miter"/>
   </g>
   <g id="patch_73">
    <path d="M 748.996787 525.164405 
L 756.108087 525.164405 
L 756.108087 524.110288 
L 748.996787 524.110288 
z
" clip-path="url(#p5777ffe2a7)" style="fill: #0c5da5; stroke: #000000; stroke-linejoin: miter"/>
   </g>
   <g id="patch_74">
    <path d="M 279.650992 525.164405 
L 286.762292 525.164405 
L 286.762292 519.211745 
L 279.650992 519.211745 
z
" clip-path="url(#p5777ffe2a7)" style="fill: #0c5da5; stroke: #000000; stroke-linejoin: miter"/>
   </g>
   <g id="patch_75">
    <path d="M 727.662887 525.164405 
L 734.774187 525.164405 
L 734.774187 523.386875 
L 727.662887 523.386875 
z
" clip-path="url(#p5777ffe2a7)" style="fill: #0c5da5; stroke: #000000; stroke-linejoin: miter"/>
   </g>
   <g id="patch_76">
    <path d="M 208.537993 525.164405 
L 215.649293 525.164405 
L 215.649293 524.627012 
L 208.537993 524.627012 
z
" clip-path="url(#p5777ffe2a7)" style="fill: #0c5da5; stroke: #000000; stroke-linejoin: miter"/>
   </g>
   <g id="patch_77">
    <path d="M 236.983193 525.164405 
L 244.094493 525.164405 
L 244.094493 523.531558 
L 236.983193 523.531558 
z
" clip-path="url(#p5777ffe2a7)" style="fill: #0c5da5; stroke: #000000; stroke-linejoin: miter"/>
   </g>
   <g id="patch_78">
    <path d="M 741.885487 525.164405 
L 748.996787 525.164405 
L 748.996787 523.779585 
L 741.885487 523.779585 
z
" clip-path="url(#p5777ffe2a7)" style="fill: #0c5da5; stroke: #000000; stroke-linejoin: miter"/>
   </g>
   <g id="patch_79">
    <path d="M 777.441986 525.164405 
L 784.553286 525.164405 
L 784.553286 524.854371 
L 777.441986 524.854371 
z
" clip-path="url(#p5777ffe2a7)" style="fill: #0c5da5; stroke: #000000; stroke-linejoin: miter"/>
   </g>
   <g id="patch_80">
    <path d="M 187.204093 525.164405 
L 194.315393 525.164405 
L 194.315393 524.937047 
L 187.204093 524.937047 
z
" clip-path="url(#p5777ffe2a7)" style="fill: #0c5da5; stroke: #000000; stroke-linejoin: miter"/>
   </g>
   <g id="patch_81">
    <path d="M 244.094493 525.164405 
L 251.205793 525.164405 
L 251.205793 523.262861 
L 244.094493 523.262861 
z
" clip-path="url(#p5777ffe2a7)" style="fill: #0c5da5; stroke: #000000; stroke-linejoin: miter"/>
   </g>
   <g id="patch_82">
    <path d="M 215.649293 525.164405 
L 222.760593 525.164405 
L 222.760593 524.378985 
L 215.649293 524.378985 
z
" clip-path="url(#p5777ffe2a7)" style="fill: #0c5da5; stroke: #000000; stroke-linejoin: miter"/>
   </g>
   <g id="patch_83">
    <path d="M 265.428392 525.164405 
L 272.539692 525.164405 
L 272.539692 520.844593 
L 265.428392 520.844593 
z
" clip-path="url(#p5777ffe2a7)" style="fill: #0c5da5; stroke: #000000; stroke-linejoin: miter"/>
   </g>
   <g id="patch_84">
    <path d="M 763.219386 525.164405 
L 770.330686 525.164405 
L 770.330686 524.627012 
L 763.219386 524.627012 
z
" clip-path="url(#p5777ffe2a7)" style="fill: #0c5da5; stroke: #000000; stroke-linejoin: miter"/>
   </g>
   <g id="patch_85">
    <path d="M 222.760593 525.164405 
L 229.871893 525.164405 
L 229.871893 524.316978 
L 222.760593 524.316978 
z
" clip-path="url(#p5777ffe2a7)" style="fill: #0c5da5; stroke: #000000; stroke-linejoin: miter"/>
   </g>
   <g id="patch_86">
    <path d="M 812.998486 525.164405 
L 820.109786 525.164405 
L 820.109786 525.081729 
L 812.998486 525.081729 
z
" clip-path="url(#p5777ffe2a7)" style="fill: #0c5da5; stroke: #000000; stroke-linejoin: miter"/>
   </g>
   <g id="patch_87">
    <path d="M 805.887186 525.164405 
L 812.998486 525.164405 
L 812.998486 524.957716 
L 805.887186 524.957716 
z
" clip-path="url(#p5777ffe2a7)" style="fill: #0c5da5; stroke: #000000; stroke-linejoin: miter"/>
   </g>
   <g id="patch_88">
    <path d="M 172.981494 525.164405 
L 180.092793 525.164405 
L 180.092793 524.978385 
L 172.981494 524.978385 
z
" clip-path="url(#p5777ffe2a7)" style="fill: #0c5da5; stroke: #000000; stroke-linejoin: miter"/>
   </g>
   <g id="patch_89">
    <path d="M 869.888885 525.164405 
L 877.000185 525.164405 
L 877.000185 525.143736 
L 869.888885 525.143736 
z
" clip-path="url(#p5777ffe2a7)" style="fill: #0c5da5; stroke: #000000; stroke-linejoin: miter"/>
   </g>
   <g id="patch_90">
    <path d="M 756.108087 525.164405 
L 763.219386 525.164405 
L 763.219386 524.337647 
L 756.108087 524.337647 
z
" clip-path="url(#p5777ffe2a7)" style="fill: #0c5da5; stroke: #000000; stroke-linejoin: miter"/>
   </g>
   <g id="patch_91">
    <path d="M 194.315393 525.164405 
L 201.426693 525.164405 
L 201.426693 524.854371 
L 194.315393 524.854371 
z
" clip-path="url(#p5777ffe2a7)" style="fill: #0c5da5; stroke: #000000; stroke-linejoin: miter"/>
   </g>
   <g id="patch_92">
    <path d="M 784.553286 525.164405 
L 791.664586 525.164405 
L 791.664586 524.999054 
L 784.553286 524.999054 
z
" clip-path="url(#p5777ffe2a7)" style="fill: #0c5da5; stroke: #000000; stroke-linejoin: miter"/>
   </g>
   <g id="patch_93">
    <path d="M 137.424994 525.164405 
L 144.536294 525.164405 
L 144.536294 525.06106 
L 137.424994 525.06106 
z
" clip-path="url(#p5777ffe2a7)" style="fill: #0c5da5; stroke: #000000; stroke-linejoin: miter"/>
   </g>
   <g id="patch_94">
    <path d="M 791.664586 525.164405 
L 798.775886 525.164405 
L 798.775886 524.957716 
L 791.664586 524.957716 
z
" clip-path="url(#p5777ffe2a7)" style="fill: #0c5da5; stroke: #000000; stroke-linejoin: miter"/>
   </g>
   <g id="patch_95">
    <path d="M 798.775886 525.164405 
L 805.887186 525.164405 
L 805.887186 524.937047 
L 798.775886 524.937047 
z
" clip-path="url(#p5777ffe2a7)" style="fill: #0c5da5; stroke: #000000; stroke-linejoin: miter"/>
   </g>
   <g id="patch_96">
    <path d="M 827.221086 525.164405 
L 834.332386 525.164405 
L 834.332386 525.123067 
L 827.221086 525.123067 
z
" clip-path="url(#p5777ffe2a7)" style="fill: #0c5da5; stroke: #000000; stroke-linejoin: miter"/>
   </g>
   <g id="patch_97">
    <path d="M 158.758894 525.164405 
L 165.870194 525.164405 
L 165.870194 525.019723 
L 158.758894 525.019723 
z
" clip-path="url(#p5777ffe2a7)" style="fill: #0c5da5; stroke: #000000; stroke-linejoin: miter"/>
   </g>
   <g id="patch_98">
    <path d="M 165.870194 525.164405 
L 172.981494 525.164405 
L 172.981494 525.102398 
L 165.870194 525.102398 
z
" clip-path="url(#p5777ffe2a7)" style="fill: #0c5da5; stroke: #000000; stroke-linejoin: miter"/>
   </g>
   <g id="patch_99">
    <path d="M 180.092793 525.164405 
L 187.204093 525.164405 
L 187.204093 524.87504 
L 180.092793 524.87504 
z
" clip-path="url(#p5777ffe2a7)" style="fill: #0c5da5; stroke: #000000; stroke-linejoin: miter"/>
   </g>
   <g id="patch_100">
    <path d="M 820.109786 525.164405 
L 827.221086 525.164405 
L 827.221086 525.123067 
L 820.109786 525.123067 
z
" clip-path="url(#p5777ffe2a7)" style="fill: #0c5da5; stroke: #000000; stroke-linejoin: miter"/>
   </g>
   <g id="patch_101">
    <path d="M 144.536294 525.164405 
L 151.647594 525.164405 
L 151.647594 525.123067 
L 144.536294 525.123067 
z
" clip-path="url(#p5777ffe2a7)" style="fill: #0c5da5; stroke: #000000; stroke-linejoin: miter"/>
   </g>
   <g id="patch_102">
    <path d="M 123.202394 525.164405 
L 130.313694 525.164405 
L 130.313694 525.123067 
L 123.202394 525.123067 
z
" clip-path="url(#p5777ffe2a7)" style="fill: #0c5da5; stroke: #000000; stroke-linejoin: miter"/>
   </g>
   <g id="patch_103">
    <path d="M 151.647594 525.164405 
L 158.758894 525.164405 
L 158.758894 525.123067 
L 151.647594 525.123067 
z
" clip-path="url(#p5777ffe2a7)" style="fill: #0c5da5; stroke: #000000; stroke-linejoin: miter"/>
   </g>
   <g id="patch_104">
    <path d="M 116.091094 525.164405 
L 123.202394 525.164405 
L 123.202394 525.143736 
L 116.091094 525.143736 
z
" clip-path="url(#p5777ffe2a7)" style="fill: #0c5da5; stroke: #000000; stroke-linejoin: miter"/>
   </g>
   <g id="matplotlib.axis_1">
    <g id="xtick_1">
     <g id="line2d_1">
      <defs>
       <path id="md6da9aa7e7" d="M 0 0 
L 0 -3 
" style="stroke: #000000; stroke-width: 0.5"/>
      </defs>
      <g>
       <use xlink:href="#md6da9aa7e7" x="204.982343" y="525.164405" style="stroke: #000000; stroke-width: 0.5"/>
      </g>
     </g>
     <g id="line2d_2">
      <defs>
       <path id="me41fe31614" d="M 0 0 
L 0 3 
" style="stroke: #000000; stroke-width: 0.5"/>
      </defs>
      <g>
       <use xlink:href="#me41fe31614" x="204.982343" y="26.204405" style="stroke: #000000; stroke-width: 0.5"/>
      </g>
     </g>
     <g id="text_1">
      <!-- $\mathdefault{−40}$ -->
      <g transform="translate(188.095504 542.501402) scale(0.2 -0.2)">
       <defs>
        <path id="CMSY10-0" d="M 4218 1472 
C 4326 1472 4442 1472 4442 1600 
C 4442 1728 4326 1728 4218 1728 
L 755 1728 
C 646 1728 531 1728 531 1600 
C 531 1472 646 1472 755 1472 
L 4218 1472 
z
" transform="scale(0.015625)"/>
        <path id="CMR17-34" d="M 2150 4122 
C 2150 4256 2144 4256 2029 4256 
L 128 1254 
L 128 1088 
L 1779 1088 
L 1779 457 
C 1779 224 1766 160 1318 160 
L 1197 160 
L 1197 0 
C 1402 0 1747 0 1965 0 
C 2182 0 2528 0 2733 0 
L 2733 160 
L 2611 160 
C 2163 160 2150 224 2150 457 
L 2150 1088 
L 2803 1088 
L 2803 1254 
L 2150 1254 
L 2150 4122 
z
M 1798 3703 
L 1798 1254 
L 256 1254 
L 1798 3703 
z
" transform="scale(0.015625)"/>
        <path id="CMR17-30" d="M 2688 2025 
C 2688 2416 2682 3080 2413 3591 
C 2176 4039 1798 4198 1466 4198 
C 1158 4198 768 4058 525 3597 
C 269 3118 243 2524 243 2025 
C 243 1661 250 1106 448 619 
C 723 -39 1216 -128 1466 -128 
C 1760 -128 2208 -7 2470 600 
C 2662 1042 2688 1559 2688 2025 
z
M 1466 -26 
C 1056 -26 813 325 723 812 
C 653 1188 653 1738 653 2096 
C 653 2588 653 2997 736 3387 
C 858 3929 1216 4096 1466 4096 
C 1728 4096 2067 3923 2189 3400 
C 2272 3036 2278 2607 2278 2096 
C 2278 1680 2278 1169 2202 792 
C 2067 95 1690 -26 1466 -26 
z
" transform="scale(0.015625)"/>
       </defs>
       <use xlink:href="#CMSY10-0" transform="scale(0.996264)"/>
       <use xlink:href="#CMR17-34" transform="translate(77.487468 0) scale(0.996264)"/>
       <use xlink:href="#CMR17-30" transform="translate(123.177945 0) scale(0.996264)"/>
      </g>
     </g>
    </g>
    <g id="xtick_2">
     <g id="line2d_3">
      <g>
       <use xlink:href="#md6da9aa7e7" x="347.208341" y="525.164405" style="stroke: #000000; stroke-width: 0.5"/>
      </g>
     </g>
     <g id="line2d_4">
      <g>
       <use xlink:href="#me41fe31614" x="347.208341" y="26.204405" style="stroke: #000000; stroke-width: 0.5"/>
      </g>
     </g>
     <g id="text_2">
      <!-- $\mathdefault{−20}$ -->
      <g transform="translate(330.321502 542.501402) scale(0.2 -0.2)">
       <defs>
        <path id="CMR17-32" d="M 2669 989 
L 2554 989 
C 2490 536 2438 459 2413 420 
C 2381 369 1920 369 1830 369 
L 602 369 
C 832 619 1280 1072 1824 1597 
C 2214 1967 2669 2402 2669 3035 
C 2669 3790 2067 4224 1395 4224 
C 691 4224 262 3604 262 3030 
C 262 2780 448 2748 525 2748 
C 589 2748 781 2787 781 3010 
C 781 3207 614 3264 525 3264 
C 486 3264 448 3258 422 3245 
C 544 3790 915 4058 1306 4058 
C 1862 4058 2227 3617 2227 3035 
C 2227 2479 1901 2000 1536 1584 
L 262 146 
L 262 0 
L 2515 0 
L 2669 989 
z
" transform="scale(0.015625)"/>
       </defs>
       <use xlink:href="#CMSY10-0" transform="scale(0.996264)"/>
       <use xlink:href="#CMR17-32" transform="translate(77.487468 0) scale(0.996264)"/>
       <use xlink:href="#CMR17-30" transform="translate(123.177945 0) scale(0.996264)"/>
      </g>
     </g>
    </g>
    <g id="xtick_3">
     <g id="line2d_5">
      <g>
       <use xlink:href="#md6da9aa7e7" x="489.43434" y="525.164405" style="stroke: #000000; stroke-width: 0.5"/>
      </g>
     </g>
     <g id="line2d_6">
      <g>
       <use xlink:href="#me41fe31614" x="489.43434" y="26.204405" style="stroke: #000000; stroke-width: 0.5"/>
      </g>
     </g>
     <g id="text_3">
      <!-- $\mathdefault{0}$ -->
      <g transform="translate(484.865292 542.501402) scale(0.2 -0.2)">
       <use xlink:href="#CMR17-30" transform="scale(0.996264)"/>
      </g>
     </g>
    </g>
    <g id="xtick_4">
     <g id="line2d_7">
      <g>
       <use xlink:href="#md6da9aa7e7" x="631.660338" y="525.164405" style="stroke: #000000; stroke-width: 0.5"/>
      </g>
     </g>
     <g id="line2d_8">
      <g>
       <use xlink:href="#me41fe31614" x="631.660338" y="26.204405" style="stroke: #000000; stroke-width: 0.5"/>
      </g>
     </g>
     <g id="text_4">
      <!-- $\mathdefault{20}$ -->
      <g transform="translate(622.522243 542.501402) scale(0.2 -0.2)">
       <use xlink:href="#CMR17-32" transform="scale(0.996264)"/>
       <use xlink:href="#CMR17-30" transform="translate(45.690477 0) scale(0.996264)"/>
      </g>
     </g>
    </g>
    <g id="xtick_5">
     <g id="line2d_9">
      <g>
       <use xlink:href="#md6da9aa7e7" x="773.886336" y="525.164405" style="stroke: #000000; stroke-width: 0.5"/>
      </g>
     </g>
     <g id="line2d_10">
      <g>
       <use xlink:href="#me41fe31614" x="773.886336" y="26.204405" style="stroke: #000000; stroke-width: 0.5"/>
      </g>
     </g>
     <g id="text_5">
      <!-- $\mathdefault{40}$ -->
      <g transform="translate(764.748241 542.501402) scale(0.2 -0.2)">
       <use xlink:href="#CMR17-34" transform="scale(0.996264)"/>
       <use xlink:href="#CMR17-30" transform="translate(45.690477 0) scale(0.996264)"/>
      </g>
     </g>
    </g>
    <g id="xtick_6">
     <g id="line2d_11">
      <defs>
       <path id="m59ed6a8982" d="M 0 0 
L 0 -1.5 
" style="stroke: #000000; stroke-width: 0.5"/>
      </defs>
      <g>
       <use xlink:href="#m59ed6a8982" x="98.312844" y="525.164405" style="stroke: #000000; stroke-width: 0.5"/>
      </g>
     </g>
     <g id="line2d_12">
      <defs>
       <path id="m4220c6ea24" d="M 0 0 
L 0 1.5 
" style="stroke: #000000; stroke-width: 0.5"/>
      </defs>
      <g>
       <use xlink:href="#m4220c6ea24" x="98.312844" y="26.204405" style="stroke: #000000; stroke-width: 0.5"/>
      </g>
     </g>
    </g>
    <g id="xtick_7">
     <g id="line2d_13">
      <g>
       <use xlink:href="#m59ed6a8982" x="133.869344" y="525.164405" style="stroke: #000000; stroke-width: 0.5"/>
      </g>
     </g>
     <g id="line2d_14">
      <g>
       <use xlink:href="#m4220c6ea24" x="133.869344" y="26.204405" style="stroke: #000000; stroke-width: 0.5"/>
      </g>
     </g>
    </g>
    <g id="xtick_8">
     <g id="line2d_15">
      <g>
       <use xlink:href="#m59ed6a8982" x="169.425844" y="525.164405" style="stroke: #000000; stroke-width: 0.5"/>
      </g>
     </g>
     <g id="line2d_16">
      <g>
       <use xlink:href="#m4220c6ea24" x="169.425844" y="26.204405" style="stroke: #000000; stroke-width: 0.5"/>
      </g>
     </g>
    </g>
    <g id="xtick_9">
     <g id="line2d_17">
      <g>
       <use xlink:href="#m59ed6a8982" x="240.538843" y="525.164405" style="stroke: #000000; stroke-width: 0.5"/>
      </g>
     </g>
     <g id="line2d_18">
      <g>
       <use xlink:href="#m4220c6ea24" x="240.538843" y="26.204405" style="stroke: #000000; stroke-width: 0.5"/>
      </g>
     </g>
    </g>
    <g id="xtick_10">
     <g id="line2d_19">
      <g>
       <use xlink:href="#m59ed6a8982" x="276.095342" y="525.164405" style="stroke: #000000; stroke-width: 0.5"/>
      </g>
     </g>
     <g id="line2d_20">
      <g>
       <use xlink:href="#m4220c6ea24" x="276.095342" y="26.204405" style="stroke: #000000; stroke-width: 0.5"/>
      </g>
     </g>
    </g>
    <g id="xtick_11">
     <g id="line2d_21">
      <g>
       <use xlink:href="#m59ed6a8982" x="311.651842" y="525.164405" style="stroke: #000000; stroke-width: 0.5"/>
      </g>
     </g>
     <g id="line2d_22">
      <g>
       <use xlink:href="#m4220c6ea24" x="311.651842" y="26.204405" style="stroke: #000000; stroke-width: 0.5"/>
      </g>
     </g>
    </g>
    <g id="xtick_12">
     <g id="line2d_23">
      <g>
       <use xlink:href="#m59ed6a8982" x="382.764841" y="525.164405" style="stroke: #000000; stroke-width: 0.5"/>
      </g>
     </g>
     <g id="line2d_24">
      <g>
       <use xlink:href="#m4220c6ea24" x="382.764841" y="26.204405" style="stroke: #000000; stroke-width: 0.5"/>
      </g>
     </g>
    </g>
    <g id="xtick_13">
     <g id="line2d_25">
      <g>
       <use xlink:href="#m59ed6a8982" x="418.321341" y="525.164405" style="stroke: #000000; stroke-width: 0.5"/>
      </g>
     </g>
     <g id="line2d_26">
      <g>
       <use xlink:href="#m4220c6ea24" x="418.321341" y="26.204405" style="stroke: #000000; stroke-width: 0.5"/>
      </g>
     </g>
    </g>
    <g id="xtick_14">
     <g id="line2d_27">
      <g>
       <use xlink:href="#m59ed6a8982" x="453.87784" y="525.164405" style="stroke: #000000; stroke-width: 0.5"/>
      </g>
     </g>
     <g id="line2d_28">
      <g>
       <use xlink:href="#m4220c6ea24" x="453.87784" y="26.204405" style="stroke: #000000; stroke-width: 0.5"/>
      </g>
     </g>
    </g>
    <g id="xtick_15">
     <g id="line2d_29">
      <g>
       <use xlink:href="#m59ed6a8982" x="524.990839" y="525.164405" style="stroke: #000000; stroke-width: 0.5"/>
      </g>
     </g>
     <g id="line2d_30">
      <g>
       <use xlink:href="#m4220c6ea24" x="524.990839" y="26.204405" style="stroke: #000000; stroke-width: 0.5"/>
      </g>
     </g>
    </g>
    <g id="xtick_16">
     <g id="line2d_31">
      <g>
       <use xlink:href="#m59ed6a8982" x="560.547339" y="525.164405" style="stroke: #000000; stroke-width: 0.5"/>
      </g>
     </g>
     <g id="line2d_32">
      <g>
       <use xlink:href="#m4220c6ea24" x="560.547339" y="26.204405" style="stroke: #000000; stroke-width: 0.5"/>
      </g>
     </g>
    </g>
    <g id="xtick_17">
     <g id="line2d_33">
      <g>
       <use xlink:href="#m59ed6a8982" x="596.103838" y="525.164405" style="stroke: #000000; stroke-width: 0.5"/>
      </g>
     </g>
     <g id="line2d_34">
      <g>
       <use xlink:href="#m4220c6ea24" x="596.103838" y="26.204405" style="stroke: #000000; stroke-width: 0.5"/>
      </g>
     </g>
    </g>
    <g id="xtick_18">
     <g id="line2d_35">
      <g>
       <use xlink:href="#m59ed6a8982" x="667.216838" y="525.164405" style="stroke: #000000; stroke-width: 0.5"/>
      </g>
     </g>
     <g id="line2d_36">
      <g>
       <use xlink:href="#m4220c6ea24" x="667.216838" y="26.204405" style="stroke: #000000; stroke-width: 0.5"/>
      </g>
     </g>
    </g>
    <g id="xtick_19">
     <g id="line2d_37">
      <g>
       <use xlink:href="#m59ed6a8982" x="702.773337" y="525.164405" style="stroke: #000000; stroke-width: 0.5"/>
      </g>
     </g>
     <g id="line2d_38">
      <g>
       <use xlink:href="#m4220c6ea24" x="702.773337" y="26.204405" style="stroke: #000000; stroke-width: 0.5"/>
      </g>
     </g>
    </g>
    <g id="xtick_20">
     <g id="line2d_39">
      <g>
       <use xlink:href="#m59ed6a8982" x="738.329837" y="525.164405" style="stroke: #000000; stroke-width: 0.5"/>
      </g>
     </g>
     <g id="line2d_40">
      <g>
       <use xlink:href="#m4220c6ea24" x="738.329837" y="26.204405" style="stroke: #000000; stroke-width: 0.5"/>
      </g>
     </g>
    </g>
    <g id="xtick_21">
     <g id="line2d_41">
      <g>
       <use xlink:href="#m59ed6a8982" x="809.442836" y="525.164405" style="stroke: #000000; stroke-width: 0.5"/>
      </g>
     </g>
     <g id="line2d_42">
      <g>
       <use xlink:href="#m4220c6ea24" x="809.442836" y="26.204405" style="stroke: #000000; stroke-width: 0.5"/>
      </g>
     </g>
    </g>
    <g id="xtick_22">
     <g id="line2d_43">
      <g>
       <use xlink:href="#m59ed6a8982" x="844.999335" y="525.164405" style="stroke: #000000; stroke-width: 0.5"/>
      </g>
     </g>
     <g id="line2d_44">
      <g>
       <use xlink:href="#m4220c6ea24" x="844.999335" y="26.204405" style="stroke: #000000; stroke-width: 0.5"/>
      </g>
     </g>
    </g>
    <g id="xtick_23">
     <g id="line2d_45">
      <g>
       <use xlink:href="#m59ed6a8982" x="880.555835" y="525.164405" style="stroke: #000000; stroke-width: 0.5"/>
      </g>
     </g>
     <g id="line2d_46">
      <g>
       <use xlink:href="#m4220c6ea24" x="880.555835" y="26.204405" style="stroke: #000000; stroke-width: 0.5"/>
      </g>
     </g>
    </g>
    <g id="text_6">
     <!-- Coeficientes -->
     <g transform="translate(440.05761 566.981441) scale(0.24 -0.24)">
      <defs>
       <path id="CMR17-43" d="M 3974 4289 
C 3974 4403 3968 4410 3930 4410 
C 3904 4410 3898 4403 3853 4327 
L 3571 3792 
C 3258 4187 2874 4416 2381 4416 
C 1286 4416 294 3456 294 2148 
C 294 826 1286 -128 2387 -128 
C 3366 -128 3974 730 3974 1461 
C 3974 1524 3974 1550 3917 1550 
C 3866 1550 3866 1531 3859 1474 
C 3808 585 3168 38 2477 38 
C 1824 38 781 495 781 2147 
C 781 3805 1843 4250 2464 4250 
C 3187 4250 3712 3628 3834 2745 
C 3846 2668 3846 2655 3904 2655 
C 3974 2655 3974 2668 3974 2783 
L 3974 4289 
z
" transform="scale(0.015625)"/>
       <path id="CMR17-6f" d="M 2758 1356 
C 2758 2176 2163 2816 1466 2816 
C 768 2816 173 2176 173 1356 
C 173 551 768 -64 1466 -64 
C 2163 -64 2758 551 2758 1356 
z
M 1466 51 
C 1165 51 909 230 762 480 
C 602 767 582 1126 582 1408 
C 582 1677 595 2010 762 2298 
C 890 2509 1139 2714 1466 2714 
C 1754 2714 1997 2554 2150 2330 
C 2349 2029 2349 1607 2349 1408 
C 2349 1158 2336 775 2163 467 
C 1984 173 1709 51 1466 51 
z
" transform="scale(0.015625)"/>
       <path id="CMR17-65" d="M 2438 1472 
C 2464 1498 2464 1511 2464 1576 
C 2464 2238 2118 2816 1389 2816 
C 710 2816 173 2169 173 1383 
C 173 551 781 -64 1459 -64 
C 2176 -64 2458 607 2458 740 
C 2458 784 2419 784 2406 784 
C 2362 784 2355 771 2330 696 
C 2189 265 1837 51 1504 51 
C 1229 51 954 203 781 480 
C 582 803 582 1176 582 1472 
L 2438 1472 
z
M 589 1568 
C 634 2505 1126 2714 1382 2714 
C 1818 2714 2112 2297 2118 1568 
L 589 1568 
z
" transform="scale(0.015625)"/>
       <path id="CMR17-c" d="M 2554 2764 
C 2400 2764 1926 2764 1805 2739 
C 1766 2725 1754 2725 1677 2725 
L 947 2725 
L 947 3469 
C 947 4073 1434 4352 1818 4352 
C 1939 4352 2214 4320 2355 4101 
C 2291 4101 2086 4101 2086 3878 
C 2086 3725 2189 3648 2317 3648 
C 2432 3648 2547 3712 2547 3885 
C 2547 4205 2240 4454 1843 4454 
C 1338 4454 634 4168 634 3469 
L 634 2725 
L 122 2725 
L 122 2560 
L 634 2560 
L 634 427 
C 634 184 608 153 198 153 
L 198 -13 
C 352 0 634 0 794 0 
C 960 0 1242 0 1395 -13 
L 1395 153 
C 986 153 960 178 960 427 
L 960 2560 
L 1901 2560 
C 2176 2560 2227 2502 2227 2222 
L 2227 427 
C 2227 184 2202 153 1792 153 
L 1792 -13 
C 1946 0 2227 0 2387 0 
C 2554 0 2835 0 2989 -13 
L 2989 153 
C 2579 153 2554 178 2554 427 
L 2554 2764 
z
" transform="scale(0.015625)"/>
       <path id="CMR17-63" d="M 2234 2240 
C 2112 2240 1933 2240 1933 2017 
C 1933 1838 2080 1787 2163 1787 
C 2208 1787 2394 1807 2394 2024 
C 2394 2467 1958 2803 1466 2803 
C 787 2803 211 2178 211 1363 
C 211 516 813 -64 1466 -64 
C 2259 -64 2458 677 2458 748 
C 2458 774 2451 793 2406 793 
C 2362 793 2355 787 2330 703 
C 2163 180 1798 51 1523 51 
C 1114 51 621 427 621 1369 
C 621 2338 1094 2688 1472 2688 
C 1722 2688 2093 2573 2234 2240 
z
" transform="scale(0.015625)"/>
       <path id="CMR17-69" d="M 992 3909 
C 992 4049 877 4170 730 4170 
C 589 4170 467 4056 467 3909 
C 467 3769 582 3648 730 3648 
C 870 3648 992 3763 992 3909 
z
M 243 2706 
L 243 2541 
C 602 2541 653 2502 653 2197 
L 653 427 
C 653 184 627 153 218 153 
L 218 -13 
C 371 0 646 0 806 0 
C 960 0 1222 0 1370 -13 
L 1370 153 
C 992 153 979 191 979 420 
L 979 2776 
L 243 2706 
z
" transform="scale(0.015625)"/>
       <path id="CMR17-6e" d="M 2656 1933 
C 2656 2259 2592 2790 1837 2790 
C 1331 2790 1069 2400 973 2144 
L 966 2144 
L 966 2790 
L 211 2720 
L 211 2554 
C 589 2554 646 2515 646 2208 
L 646 428 
C 646 184 621 153 211 153 
L 211 -13 
C 365 0 646 0 813 0 
C 979 0 1267 0 1421 -13 
L 1421 153 
C 1011 153 986 178 986 428 
L 986 1658 
C 986 2247 1344 2688 1792 2688 
C 2266 2688 2317 2266 2317 1958 
L 2317 428 
C 2317 184 2291 153 1882 153 
L 1882 -13 
C 2035 0 2317 0 2483 0 
C 2650 0 2938 0 3091 -13 
L 3091 153 
C 2682 153 2656 178 2656 428 
L 2656 1933 
z
" transform="scale(0.015625)"/>
       <path id="CMR17-74" d="M 966 2560 
L 1862 2560 
L 1862 2725 
L 966 2725 
L 966 3904 
L 851 3904 
C 838 3245 614 2668 70 2668 
L 70 2560 
L 627 2560 
L 627 771 
C 627 650 627 -64 1370 -64 
C 1747 -64 1965 306 1965 777 
L 1965 1140 
L 1850 1140 
L 1850 783 
C 1850 344 1677 51 1408 51 
C 1222 51 966 178 966 758 
L 966 2560 
z
" transform="scale(0.015625)"/>
       <path id="CMR17-73" d="M 1978 2697 
C 1978 2813 1971 2819 1933 2819 
C 1907 2819 1901 2813 1824 2717 
C 1805 2691 1747 2626 1728 2601 
C 1523 2819 1235 2819 1126 2819 
C 416 2819 160 2447 160 2076 
C 160 1498 813 1365 998 1325 
C 1402 1243 1542 1217 1677 1101 
C 1760 1025 1901 884 1901 654 
C 1901 384 1747 38 1158 38 
C 602 38 403 460 288 1021 
C 269 1110 269 1117 218 1117 
C 166 1117 160 1110 160 983 
L 160 63 
C 160 -51 166 -58 205 -58 
C 237 -58 243 -51 275 0 
C 314 57 410 211 448 276 
C 576 103 800 -64 1158 -64 
C 1792 -64 2131 283 2131 784 
C 2131 1112 1958 1285 1875 1362 
C 1683 1561 1459 1606 1190 1657 
C 838 1735 390 1825 390 2217 
C 390 2383 480 2737 1126 2737 
C 1811 2737 1850 2094 1862 1888 
C 1869 1856 1901 1849 1920 1849 
C 1978 1849 1978 1869 1978 1978 
L 1978 2697 
z
" transform="scale(0.015625)"/>
      </defs>
      <use xlink:href="#CMR17-43" transform="scale(0.996264)"/>
      <use xlink:href="#CMR17-6f" transform="translate(66.509881 0) scale(0.996264)"/>
      <use xlink:href="#CMR17-65" transform="translate(114.802796 0) scale(0.996264)"/>
      <use xlink:href="#CMR17-c" transform="translate(155.288457 0) scale(0.996264)"/>
      <use xlink:href="#CMR17-63" transform="translate(205.03068 0) scale(0.996264)"/>
      <use xlink:href="#CMR17-69" transform="translate(245.516341 0) scale(0.996264)"/>
      <use xlink:href="#CMR17-65" transform="translate(270.387399 0) scale(0.996264)"/>
      <use xlink:href="#CMR17-6e" transform="translate(310.87306 0) scale(0.996264)"/>
      <use xlink:href="#CMR17-74" transform="translate(359.165975 0) scale(0.996264)"/>
      <use xlink:href="#CMR17-65" transform="translate(394.446743 0) scale(0.996264)"/>
      <use xlink:href="#CMR17-73" transform="translate(434.932404 0) scale(0.996264)"/>
     </g>
    </g>
   </g>
   <g id="matplotlib.axis_2">
    <g id="ytick_1">
     <g id="line2d_47">
      <defs>
       <path id="md699b66703" d="M 0 0 
L 3 0 
" style="stroke: #000000; stroke-width: 0.5"/>
      </defs>
      <g>
       <use xlink:href="#md699b66703" x="78.04564" y="525.164405" style="stroke: #000000; stroke-width: 0.5"/>
      </g>
     </g>
     <g id="line2d_48">
      <defs>
       <path id="m3bd0a3b8e9" d="M 0 0 
L -3 0 
" style="stroke: #000000; stroke-width: 0.5"/>
      </defs>
      <g>
       <use xlink:href="#m3bd0a3b8e9" x="915.04564" y="525.164405" style="stroke: #000000; stroke-width: 0.5"/>
      </g>
     </g>
     <g id="text_7">
      <!-- $\mathdefault{0}$ -->
      <g transform="translate(65.407544 532.082904) scale(0.2 -0.2)">
       <use xlink:href="#CMR17-30" transform="scale(0.996264)"/>
      </g>
     </g>
    </g>
    <g id="ytick_2">
     <g id="line2d_49">
      <g>
       <use xlink:href="#md699b66703" x="78.04564" y="421.819618" style="stroke: #000000; stroke-width: 0.5"/>
      </g>
     </g>
     <g id="line2d_50">
      <g>
       <use xlink:href="#m3bd0a3b8e9" x="915.04564" y="421.819618" style="stroke: #000000; stroke-width: 0.5"/>
      </g>
     </g>
     <g id="text_8">
      <!-- $\mathdefault{5000}$ -->
      <g transform="translate(37.993258 428.738117) scale(0.2 -0.2)">
       <defs>
        <path id="CMR17-35" d="M 730 3692 
C 794 3666 1056 3584 1325 3584 
C 1920 3584 2246 3911 2432 4100 
C 2432 4157 2432 4192 2394 4192 
C 2387 4192 2374 4192 2323 4163 
C 2099 4058 1837 3973 1517 3973 
C 1325 3973 1037 3999 723 4139 
C 653 4171 640 4171 634 4171 
C 602 4171 595 4164 595 4037 
L 595 2203 
C 595 2089 595 2057 659 2057 
C 691 2057 704 2070 736 2114 
C 941 2401 1222 2522 1542 2522 
C 1766 2522 2246 2382 2246 1289 
C 2246 1085 2246 715 2054 421 
C 1894 159 1645 25 1370 25 
C 947 25 518 320 403 814 
C 429 807 480 795 506 795 
C 589 795 749 840 749 1038 
C 749 1210 627 1280 506 1280 
C 358 1280 262 1190 262 1011 
C 262 454 704 -128 1382 -128 
C 2042 -128 2669 440 2669 1264 
C 2669 2030 2170 2624 1549 2624 
C 1222 2624 947 2503 730 2274 
L 730 3692 
z
" transform="scale(0.015625)"/>
       </defs>
       <use xlink:href="#CMR17-35" transform="scale(0.996264)"/>
       <use xlink:href="#CMR17-30" transform="translate(45.690477 0) scale(0.996264)"/>
       <use xlink:href="#CMR17-30" transform="translate(91.380954 0) scale(0.996264)"/>
       <use xlink:href="#CMR17-30" transform="translate(137.071431 0) scale(0.996264)"/>
      </g>
     </g>
    </g>
    <g id="ytick_3">
     <g id="line2d_51">
      <g>
       <use xlink:href="#md699b66703" x="78.04564" y="318.474831" style="stroke: #000000; stroke-width: 0.5"/>
      </g>
     </g>
     <g id="line2d_52">
      <g>
       <use xlink:href="#m3bd0a3b8e9" x="915.04564" y="318.474831" style="stroke: #000000; stroke-width: 0.5"/>
      </g>
     </g>
     <g id="text_9">
      <!-- $\mathdefault{10000}$ -->
      <g transform="translate(28.855163 325.393329) scale(0.2 -0.2)">
       <defs>
        <path id="CMR17-31" d="M 1702 4058 
C 1702 4192 1696 4192 1606 4192 
C 1357 3916 979 3827 621 3827 
C 602 3827 570 3827 563 3808 
C 557 3795 557 3782 557 3648 
C 755 3648 1088 3686 1344 3839 
L 1344 461 
C 1344 236 1331 160 781 160 
L 589 160 
L 589 0 
C 896 0 1216 0 1523 0 
C 1830 0 2150 0 2458 0 
L 2458 160 
L 2266 160 
C 1715 160 1702 230 1702 458 
L 1702 4058 
z
" transform="scale(0.015625)"/>
       </defs>
       <use xlink:href="#CMR17-31" transform="scale(0.996264)"/>
       <use xlink:href="#CMR17-30" transform="translate(45.690477 0) scale(0.996264)"/>
       <use xlink:href="#CMR17-30" transform="translate(91.380954 0) scale(0.996264)"/>
       <use xlink:href="#CMR17-30" transform="translate(137.071431 0) scale(0.996264)"/>
       <use xlink:href="#CMR17-30" transform="translate(182.761908 0) scale(0.996264)"/>
      </g>
     </g>
    </g>
    <g id="ytick_4">
     <g id="line2d_53">
      <g>
       <use xlink:href="#md699b66703" x="78.04564" y="215.130044" style="stroke: #000000; stroke-width: 0.5"/>
      </g>
     </g>
     <g id="line2d_54">
      <g>
       <use xlink:href="#m3bd0a3b8e9" x="915.04564" y="215.130044" style="stroke: #000000; stroke-width: 0.5"/>
      </g>
     </g>
     <g id="text_10">
      <!-- $\mathdefault{15000}$ -->
      <g transform="translate(28.855163 222.048542) scale(0.2 -0.2)">
       <use xlink:href="#CMR17-31" transform="scale(0.996264)"/>
       <use xlink:href="#CMR17-35" transform="translate(45.690477 0) scale(0.996264)"/>
       <use xlink:href="#CMR17-30" transform="translate(91.380954 0) scale(0.996264)"/>
       <use xlink:href="#CMR17-30" transform="translate(137.071431 0) scale(0.996264)"/>
       <use xlink:href="#CMR17-30" transform="translate(182.761908 0) scale(0.996264)"/>
      </g>
     </g>
    </g>
    <g id="ytick_5">
     <g id="line2d_55">
      <g>
       <use xlink:href="#md699b66703" x="78.04564" y="111.785257" style="stroke: #000000; stroke-width: 0.5"/>
      </g>
     </g>
     <g id="line2d_56">
      <g>
       <use xlink:href="#m3bd0a3b8e9" x="915.04564" y="111.785257" style="stroke: #000000; stroke-width: 0.5"/>
      </g>
     </g>
     <g id="text_11">
      <!-- $\mathdefault{20000}$ -->
      <g transform="translate(28.855163 118.703755) scale(0.2 -0.2)">
       <use xlink:href="#CMR17-32" transform="scale(0.996264)"/>
       <use xlink:href="#CMR17-30" transform="translate(45.690477 0) scale(0.996264)"/>
       <use xlink:href="#CMR17-30" transform="translate(91.380954 0) scale(0.996264)"/>
       <use xlink:href="#CMR17-30" transform="translate(137.071431 0) scale(0.996264)"/>
       <use xlink:href="#CMR17-30" transform="translate(182.761908 0) scale(0.996264)"/>
      </g>
     </g>
    </g>
    <g id="ytick_6">
     <g id="line2d_57">
      <defs>
       <path id="mdf2a27696d" d="M 0 0 
L 1.5 0 
" style="stroke: #000000; stroke-width: 0.5"/>
      </defs>
      <g>
       <use xlink:href="#mdf2a27696d" x="78.04564" y="504.495448" style="stroke: #000000; stroke-width: 0.5"/>
      </g>
     </g>
     <g id="line2d_58">
      <defs>
       <path id="m90907b6d75" d="M 0 0 
L -1.5 0 
" style="stroke: #000000; stroke-width: 0.5"/>
      </defs>
      <g>
       <use xlink:href="#m90907b6d75" x="915.04564" y="504.495448" style="stroke: #000000; stroke-width: 0.5"/>
      </g>
     </g>
    </g>
    <g id="ytick_7">
     <g id="line2d_59">
      <g>
       <use xlink:href="#mdf2a27696d" x="78.04564" y="483.82649" style="stroke: #000000; stroke-width: 0.5"/>
      </g>
     </g>
     <g id="line2d_60">
      <g>
       <use xlink:href="#m90907b6d75" x="915.04564" y="483.82649" style="stroke: #000000; stroke-width: 0.5"/>
      </g>
     </g>
    </g>
    <g id="ytick_8">
     <g id="line2d_61">
      <g>
       <use xlink:href="#mdf2a27696d" x="78.04564" y="463.157533" style="stroke: #000000; stroke-width: 0.5"/>
      </g>
     </g>
     <g id="line2d_62">
      <g>
       <use xlink:href="#m90907b6d75" x="915.04564" y="463.157533" style="stroke: #000000; stroke-width: 0.5"/>
      </g>
     </g>
    </g>
    <g id="ytick_9">
     <g id="line2d_63">
      <g>
       <use xlink:href="#mdf2a27696d" x="78.04564" y="442.488576" style="stroke: #000000; stroke-width: 0.5"/>
      </g>
     </g>
     <g id="line2d_64">
      <g>
       <use xlink:href="#m90907b6d75" x="915.04564" y="442.488576" style="stroke: #000000; stroke-width: 0.5"/>
      </g>
     </g>
    </g>
    <g id="ytick_10">
     <g id="line2d_65">
      <g>
       <use xlink:href="#mdf2a27696d" x="78.04564" y="401.150661" style="stroke: #000000; stroke-width: 0.5"/>
      </g>
     </g>
     <g id="line2d_66">
      <g>
       <use xlink:href="#m90907b6d75" x="915.04564" y="401.150661" style="stroke: #000000; stroke-width: 0.5"/>
      </g>
     </g>
    </g>
    <g id="ytick_11">
     <g id="line2d_67">
      <g>
       <use xlink:href="#mdf2a27696d" x="78.04564" y="380.481703" style="stroke: #000000; stroke-width: 0.5"/>
      </g>
     </g>
     <g id="line2d_68">
      <g>
       <use xlink:href="#m90907b6d75" x="915.04564" y="380.481703" style="stroke: #000000; stroke-width: 0.5"/>
      </g>
     </g>
    </g>
    <g id="ytick_12">
     <g id="line2d_69">
      <g>
       <use xlink:href="#mdf2a27696d" x="78.04564" y="359.812746" style="stroke: #000000; stroke-width: 0.5"/>
      </g>
     </g>
     <g id="line2d_70">
      <g>
       <use xlink:href="#m90907b6d75" x="915.04564" y="359.812746" style="stroke: #000000; stroke-width: 0.5"/>
      </g>
     </g>
    </g>
    <g id="ytick_13">
     <g id="line2d_71">
      <g>
       <use xlink:href="#mdf2a27696d" x="78.04564" y="339.143788" style="stroke: #000000; stroke-width: 0.5"/>
      </g>
     </g>
     <g id="line2d_72">
      <g>
       <use xlink:href="#m90907b6d75" x="915.04564" y="339.143788" style="stroke: #000000; stroke-width: 0.5"/>
      </g>
     </g>
    </g>
    <g id="ytick_14">
     <g id="line2d_73">
      <g>
       <use xlink:href="#mdf2a27696d" x="78.04564" y="297.805874" style="stroke: #000000; stroke-width: 0.5"/>
      </g>
     </g>
     <g id="line2d_74">
      <g>
       <use xlink:href="#m90907b6d75" x="915.04564" y="297.805874" style="stroke: #000000; stroke-width: 0.5"/>
      </g>
     </g>
    </g>
    <g id="ytick_15">
     <g id="line2d_75">
      <g>
       <use xlink:href="#mdf2a27696d" x="78.04564" y="277.136916" style="stroke: #000000; stroke-width: 0.5"/>
      </g>
     </g>
     <g id="line2d_76">
      <g>
       <use xlink:href="#m90907b6d75" x="915.04564" y="277.136916" style="stroke: #000000; stroke-width: 0.5"/>
      </g>
     </g>
    </g>
    <g id="ytick_16">
     <g id="line2d_77">
      <g>
       <use xlink:href="#mdf2a27696d" x="78.04564" y="256.467959" style="stroke: #000000; stroke-width: 0.5"/>
      </g>
     </g>
     <g id="line2d_78">
      <g>
       <use xlink:href="#m90907b6d75" x="915.04564" y="256.467959" style="stroke: #000000; stroke-width: 0.5"/>
      </g>
     </g>
    </g>
    <g id="ytick_17">
     <g id="line2d_79">
      <g>
       <use xlink:href="#mdf2a27696d" x="78.04564" y="235.799001" style="stroke: #000000; stroke-width: 0.5"/>
      </g>
     </g>
     <g id="line2d_80">
      <g>
       <use xlink:href="#m90907b6d75" x="915.04564" y="235.799001" style="stroke: #000000; stroke-width: 0.5"/>
      </g>
     </g>
    </g>
    <g id="ytick_18">
     <g id="line2d_81">
      <g>
       <use xlink:href="#mdf2a27696d" x="78.04564" y="194.461087" style="stroke: #000000; stroke-width: 0.5"/>
      </g>
     </g>
     <g id="line2d_82">
      <g>
       <use xlink:href="#m90907b6d75" x="915.04564" y="194.461087" style="stroke: #000000; stroke-width: 0.5"/>
      </g>
     </g>
    </g>
    <g id="ytick_19">
     <g id="line2d_83">
      <g>
       <use xlink:href="#mdf2a27696d" x="78.04564" y="173.792129" style="stroke: #000000; stroke-width: 0.5"/>
      </g>
     </g>
     <g id="line2d_84">
      <g>
       <use xlink:href="#m90907b6d75" x="915.04564" y="173.792129" style="stroke: #000000; stroke-width: 0.5"/>
      </g>
     </g>
    </g>
    <g id="ytick_20">
     <g id="line2d_85">
      <g>
       <use xlink:href="#mdf2a27696d" x="78.04564" y="153.123172" style="stroke: #000000; stroke-width: 0.5"/>
      </g>
     </g>
     <g id="line2d_86">
      <g>
       <use xlink:href="#m90907b6d75" x="915.04564" y="153.123172" style="stroke: #000000; stroke-width: 0.5"/>
      </g>
     </g>
    </g>
    <g id="ytick_21">
     <g id="line2d_87">
      <g>
       <use xlink:href="#mdf2a27696d" x="78.04564" y="132.454214" style="stroke: #000000; stroke-width: 0.5"/>
      </g>
     </g>
     <g id="line2d_88">
      <g>
       <use xlink:href="#m90907b6d75" x="915.04564" y="132.454214" style="stroke: #000000; stroke-width: 0.5"/>
      </g>
     </g>
    </g>
    <g id="ytick_22">
     <g id="line2d_89">
      <g>
       <use xlink:href="#mdf2a27696d" x="78.04564" y="91.116299" style="stroke: #000000; stroke-width: 0.5"/>
      </g>
     </g>
     <g id="line2d_90">
      <g>
       <use xlink:href="#m90907b6d75" x="915.04564" y="91.116299" style="stroke: #000000; stroke-width: 0.5"/>
      </g>
     </g>
    </g>
    <g id="ytick_23">
     <g id="line2d_91">
      <g>
       <use xlink:href="#mdf2a27696d" x="78.04564" y="70.447342" style="stroke: #000000; stroke-width: 0.5"/>
      </g>
     </g>
     <g id="line2d_92">
      <g>
       <use xlink:href="#m90907b6d75" x="915.04564" y="70.447342" style="stroke: #000000; stroke-width: 0.5"/>
      </g>
     </g>
    </g>
    <g id="ytick_24">
     <g id="line2d_93">
      <g>
       <use xlink:href="#mdf2a27696d" x="78.04564" y="49.778385" style="stroke: #000000; stroke-width: 0.5"/>
      </g>
     </g>
     <g id="line2d_94">
      <g>
       <use xlink:href="#m90907b6d75" x="915.04564" y="49.778385" style="stroke: #000000; stroke-width: 0.5"/>
      </g>
     </g>
    </g>
    <g id="ytick_25">
     <g id="line2d_95">
      <g>
       <use xlink:href="#mdf2a27696d" x="78.04564" y="29.109427" style="stroke: #000000; stroke-width: 0.5"/>
      </g>
     </g>
     <g id="line2d_96">
      <g>
       <use xlink:href="#m90907b6d75" x="915.04564" y="29.109427" style="stroke: #000000; stroke-width: 0.5"/>
      </g>
     </g>
    </g>
    <g id="text_12">
     <!-- Frecuencia -->
     <g transform="translate(20.204405 326.294666) rotate(-90) scale(0.24 -0.24)">
      <defs>
       <path id="CMR17-46" d="M 3482 4325 
L 326 4325 
L 326 4160 
C 768 4160 838 4160 838 3874 
L 838 446 
C 838 160 768 160 326 160 
L 326 0 
C 512 0 870 0 1069 0 
C 1331 0 1638 0 1901 0 
L 1901 160 
L 1760 160 
C 1274 160 1261 223 1261 452 
L 1261 2075 
L 1837 2075 
C 2432 2075 2490 1865 2490 1332 
L 2605 1332 
L 2605 2987 
L 2490 2987 
C 2490 2450 2432 2240 1837 2240 
L 1261 2240 
L 1261 3911 
C 1261 4128 1274 4160 1530 4160 
L 2355 4160 
C 3322 4160 3430 3765 3520 2916 
L 3635 2916 
L 3482 4325 
z
" transform="scale(0.015625)"/>
       <path id="CMR17-72" d="M 960 1497 
C 960 2112 1222 2688 1702 2688 
C 1747 2688 1792 2682 1837 2662 
C 1837 2662 1696 2617 1696 2452 
C 1696 2298 1818 2234 1914 2234 
C 1990 2234 2131 2279 2131 2458 
C 2131 2663 1926 2790 1709 2790 
C 1222 2790 1011 2317 947 2093 
L 941 2093 
L 941 2790 
L 198 2720 
L 198 2554 
C 576 2554 634 2515 634 2208 
L 634 428 
C 634 184 608 153 198 153 
L 198 -13 
C 352 0 646 0 813 0 
C 998 0 1325 0 1498 -13 
L 1498 153 
C 1037 153 960 153 960 440 
L 960 1497 
z
" transform="scale(0.015625)"/>
       <path id="CMR17-75" d="M 1882 2693 
L 1882 2528 
C 2259 2528 2317 2489 2317 2186 
L 2317 1032 
C 2317 500 2029 38 1555 38 
C 1030 38 986 348 986 678 
L 986 2763 
L 211 2693 
L 211 2528 
C 467 2528 640 2528 646 2274 
L 646 1058 
C 646 633 646 361 813 183 
C 896 101 1056 -64 1517 -64 
C 2061 -64 2272 377 2323 506 
L 2330 506 
L 2330 -63 
L 3091 -63 
L 3091 128 
C 2714 128 2656 166 2656 473 
L 2656 2763 
L 1882 2693 
z
" transform="scale(0.015625)"/>
       <path id="CMR17-61" d="M 2304 1653 
C 2304 2072 2304 2294 2035 2543 
C 1798 2752 1523 2816 1306 2816 
C 800 2816 435 2407 435 1971 
C 435 1728 627 1728 666 1728 
C 749 1728 896 1778 896 1954 
C 896 2112 774 2181 666 2181 
C 640 2181 608 2174 589 2168 
C 723 2592 1069 2714 1293 2714 
C 1613 2714 1965 2429 1965 1885 
L 1965 1600 
C 1587 1600 1133 1549 774 1357 
C 371 1133 256 813 256 570 
C 256 77 832 -64 1171 -64 
C 1523 -64 1850 139 1990 511 
C 2003 233 2182 -18 2464 -18 
C 2598 -18 2938 70 2938 567 
L 2938 920 
L 2822 920 
L 2822 562 
C 2822 178 2650 128 2566 128 
C 2304 128 2304 458 2304 738 
L 2304 1653 
z
M 1965 870 
C 1965 317 1568 38 1216 38 
C 896 38 646 275 646 570 
C 646 761 730 1100 1101 1305 
C 1408 1478 1760 1504 1965 1504 
L 1965 870 
z
" transform="scale(0.015625)"/>
      </defs>
      <use xlink:href="#CMR17-46" transform="scale(0.996264)"/>
      <use xlink:href="#CMR17-72" transform="translate(52.176591 0) scale(0.996264)"/>
      <use xlink:href="#CMR17-65" transform="translate(87.457359 0) scale(0.996264)"/>
      <use xlink:href="#CMR17-63" transform="translate(127.943019 0) scale(0.996264)"/>
      <use xlink:href="#CMR17-75" transform="translate(168.42868 0) scale(0.996264)"/>
      <use xlink:href="#CMR17-65" transform="translate(219.32405 0) scale(0.996264)"/>
      <use xlink:href="#CMR17-6e" transform="translate(259.80971 0) scale(0.996264)"/>
      <use xlink:href="#CMR17-63" transform="translate(310.70508 0) scale(0.996264)"/>
      <use xlink:href="#CMR17-69" transform="translate(351.19074 0) scale(0.996264)"/>
      <use xlink:href="#CMR17-61" transform="translate(376.061799 0) scale(0.996264)"/>
     </g>
    </g>
   </g>
   <g id="patch_105">
    <path d="M 78.04564 525.164405 
L 78.04564 26.204405 
" style="fill: none; stroke: #000000; stroke-width: 0.5; stroke-linejoin: miter; stroke-linecap: square"/>
   </g>
   <g id="patch_106">
    <path d="M 915.04564 525.164405 
L 915.04564 26.204405 
" style="fill: none; stroke: #000000; stroke-width: 0.5; stroke-linejoin: miter; stroke-linecap: square"/>
   </g>
   <g id="patch_107">
    <path d="M 78.04564 525.164405 
L 915.04564 525.164405 
" style="fill: none; stroke: #000000; stroke-width: 0.5; stroke-linejoin: miter; stroke-linecap: square"/>
   </g>
   <g id="patch_108">
    <path d="M 78.04564 26.204405 
L 915.04564 26.204405 
" style="fill: none; stroke: #000000; stroke-width: 0.5; stroke-linejoin: miter; stroke-linecap: square"/>
   </g>
   <g id="text_13">
    <!-- Distribución de los coeficientes del producto convolucional de los polinomios pequeños $f$ y $m$ -->
    <g transform="translate(50.542918 20.204405) scale(0.24 -0.24)">
     <defs>
      <path id="CMR17-44" d="M 333 4352 
L 333 4186 
C 774 4186 845 4186 845 3900 
L 845 452 
C 845 166 774 166 333 166 
L 333 0 
L 2368 0 
C 3398 0 4224 943 4224 2141 
C 4224 3346 3411 4352 2368 4352 
L 333 4352 
z
M 1523 166 
C 1267 166 1254 197 1254 414 
L 1254 3938 
C 1254 4155 1267 4186 1523 4186 
L 2240 4186 
C 2771 4186 3750 3874 3750 2141 
C 3750 1242 3488 879 3366 707 
C 3213 510 2848 166 2240 166 
L 1523 166 
z
" transform="scale(0.015625)"/>
      <path id="CMR17-62" d="M 960 4396 
L 198 4326 
L 198 4160 
C 576 4160 634 4122 634 3817 
L 634 -13 
L 749 -13 
L 934 441 
C 1120 141 1395 -64 1766 -64 
C 2406 -64 3053 500 3053 1370 
C 3053 2188 2477 2790 1830 2790 
C 1434 2790 1152 2579 960 2330 
L 960 4396 
z
M 973 2004 
C 973 2118 973 2138 1062 2272 
C 1312 2657 1670 2688 1792 2688 
C 1984 2688 2643 2585 2643 1376 
C 2643 108 1888 38 1734 38 
C 1536 38 1248 114 1043 486 
C 973 608 973 621 973 735 
L 973 2004 
z
" transform="scale(0.015625)"/>
      <path id="CMR17-13" d="M 2221 4091 
C 2298 4161 2317 4174 2317 4244 
C 2317 4339 2234 4416 2144 4416 
C 2067 4416 2042 4384 1978 4308 
L 1254 3390 
C 1210 3333 1210 3327 1210 3320 
C 1210 3314 1267 3256 1280 3244 
L 2221 4091 
z
" transform="scale(0.015625)"/>
      <path id="CMR17-64" d="M 1869 4326 
L 1869 4160 
C 2246 4160 2304 4122 2304 3820 
L 2304 2345 
C 2278 2377 2016 2790 1498 2790 
C 845 2790 211 2208 211 1364 
C 211 525 806 -64 1434 -64 
C 1978 -64 2259 337 2291 380 
L 2291 -63 
L 3066 -63 
L 3066 128 
C 2688 128 2630 166 2630 473 
L 2630 4396 
L 1869 4326 
z
M 2291 755 
C 2291 563 2176 390 2029 262 
C 1811 70 1594 38 1472 38 
C 1286 38 621 134 621 1356 
C 621 2612 1363 2688 1530 2688 
C 1824 2688 2061 2522 2208 2291 
C 2291 2157 2291 2138 2291 2023 
L 2291 755 
z
" transform="scale(0.015625)"/>
      <path id="CMR17-6c" d="M 979 4396 
L 218 4326 
L 218 4160 
C 595 4160 653 4122 653 3817 
L 653 426 
C 653 184 627 153 218 153 
L 218 -13 
C 371 0 653 0 813 0 
C 979 0 1261 0 1414 -13 
L 1414 153 
C 1005 153 979 178 979 426 
L 979 4396 
z
" transform="scale(0.015625)"/>
      <path id="CMR17-70" d="M 1408 -1063 
C 998 -1063 973 -1037 973 -789 
L 973 402 
C 1158 134 1427 -38 1766 -38 
C 2406 -38 3053 523 3053 1388 
C 3053 2191 2496 2802 1837 2802 
C 1453 2802 1139 2592 960 2338 
L 960 2802 
L 198 2732 
L 198 2567 
C 576 2567 634 2528 634 2223 
L 634 -789 
C 634 -1031 608 -1063 198 -1063 
L 198 -1228 
C 352 -1216 634 -1216 800 -1216 
C 966 -1216 1254 -1216 1408 -1228 
L 1408 -1063 
z
M 973 2012 
C 973 2102 973 2235 1222 2471 
C 1254 2497 1472 2688 1792 2688 
C 2259 2688 2643 2108 2643 1382 
C 2643 656 2234 64 1728 64 
C 1498 64 1248 172 1056 472 
C 973 612 973 650 973 752 
L 973 2012 
z
" transform="scale(0.015625)"/>
      <path id="CMR17-76" d="M 2502 2163 
C 2560 2304 2662 2560 3034 2560 
L 3034 2726 
C 2912 2726 2752 2726 2630 2726 
C 2496 2726 2285 2726 2157 2732 
L 2157 2566 
C 2317 2553 2406 2477 2406 2311 
C 2406 2253 2406 2240 2368 2151 
L 1664 377 
L 902 2286 
C 864 2369 864 2381 864 2407 
C 864 2560 1075 2560 1171 2560 
L 1171 2732 
C 1018 2726 736 2726 576 2726 
C 403 2726 205 2726 64 2732 
L 64 2560 
C 307 2560 442 2560 518 2362 
L 1446 44 
C 1485 -51 1491 -64 1549 -64 
C 1606 -64 1613 -51 1651 44 
L 2502 2163 
z
" transform="scale(0.015625)"/>
      <path id="CMR17-6d" d="M 4326 1933 
C 4326 2252 4269 2790 3507 2790 
C 3072 2790 2771 2496 2656 2151 
L 2650 2151 
C 2573 2676 2195 2790 1837 2790 
C 1331 2790 1069 2400 973 2144 
L 966 2144 
L 966 2790 
L 211 2720 
L 211 2554 
C 589 2554 646 2515 646 2208 
L 646 428 
C 646 184 621 153 211 153 
L 211 -13 
C 365 0 646 0 813 0 
C 979 0 1267 0 1421 -13 
L 1421 153 
C 1011 153 986 178 986 428 
L 986 1658 
C 986 2247 1344 2688 1792 2688 
C 2266 2688 2317 2266 2317 1958 
L 2317 428 
C 2317 184 2291 153 1882 153 
L 1882 -13 
C 2035 0 2317 0 2483 0 
C 2650 0 2938 0 3091 -13 
L 3091 153 
C 2682 153 2656 178 2656 428 
L 2656 1658 
C 2656 2247 3014 2688 3462 2688 
C 3936 2688 3987 2266 3987 1958 
L 3987 428 
C 3987 184 3962 153 3552 153 
L 3552 -13 
C 3706 0 3987 0 4154 0 
C 4320 0 4608 0 4762 -13 
L 4762 153 
C 4352 153 4326 178 4326 428 
L 4326 1933 
z
" transform="scale(0.015625)"/>
      <path id="CMR17-71" d="M 2630 2802 
L 2528 2802 
L 2336 2172 
C 2189 2509 1920 2802 1491 2802 
C 838 2802 211 2223 211 1383 
C 211 548 800 -38 1440 -38 
C 1933 -38 2208 338 2291 478 
L 2291 -789 
C 2291 -1031 2266 -1063 1856 -1063 
L 1856 -1228 
C 2010 -1216 2291 -1216 2458 -1216 
C 2624 -1216 2912 -1216 3066 -1228 
L 3066 -1063 
C 2656 -1063 2630 -1037 2630 -789 
L 2630 2802 
z
M 2304 886 
C 2304 612 2074 357 2054 338 
C 1856 115 1626 64 1472 64 
C 992 64 621 669 621 1375 
C 621 2121 1043 2688 1536 2688 
C 2048 2688 2304 2108 2304 1777 
L 2304 886 
z
" transform="scale(0.015625)"/>
      <path id="CMR17-7e" d="M 2400 4184 
C 2182 3980 2061 3865 1862 3865 
C 1722 3865 1626 3932 1491 4024 
C 1363 4111 1261 4184 1120 4184 
C 890 4184 730 4004 461 3718 
L 531 3648 
C 749 3850 870 3968 1069 3968 
C 1210 3968 1306 3900 1440 3808 
C 1568 3722 1670 3648 1811 3648 
C 2042 3648 2202 3828 2470 4114 
L 2400 4184 
z
" transform="scale(0.015625)"/>
      <path id="CMMI12-66" d="M 2854 2566 
C 2982 2566 3034 2566 3034 2688 
C 3034 2752 2982 2752 2867 2752 
L 2349 2752 
C 2470 3429 2560 3897 2611 4107 
C 2650 4265 2784 4416 2950 4416 
C 3085 4416 3219 4358 3283 4298 
C 3034 4272 2957 4082 2957 3969 
C 2957 3837 3053 3759 3174 3759 
C 3302 3759 3494 3870 3494 4119 
C 3494 4393 3226 4544 2944 4544 
C 2669 4544 2400 4334 2272 4078 
C 2157 3848 2093 3611 1946 2752 
L 1517 2752 
C 1395 2752 1331 2752 1331 2637 
C 1331 2566 1370 2566 1498 2566 
L 1907 2566 
C 1792 1976 1530 542 1382 -137 
C 1274 -689 1178 -1152 858 -1152 
C 838 -1152 653 -1152 538 -1031 
C 864 -1005 864 -726 864 -720 
C 864 -593 768 -517 646 -517 
C 518 -517 326 -625 326 -867 
C 326 -1140 608 -1280 858 -1280 
C 1510 -1280 1779 -118 1850 199 
C 1965 688 2278 2376 2310 2566 
L 2854 2566 
z
" transform="scale(0.015625)"/>
      <path id="CMR17-79" d="M 2496 2197 
C 2656 2586 2944 2586 3034 2586 
L 3034 2752 
C 2912 2752 2752 2752 2630 2752 
C 2496 2752 2285 2752 2157 2758 
L 2157 2592 
C 2400 2573 2406 2394 2406 2343 
C 2406 2280 2394 2248 2362 2171 
L 1664 449 
L 902 2306 
C 870 2382 870 2426 870 2433 
C 870 2573 1018 2586 1171 2586 
L 1171 2758 
C 1018 2752 742 2752 582 2752 
C 410 2752 205 2752 64 2758 
L 64 2586 
C 410 2586 448 2554 531 2350 
L 1485 15 
C 1197 -738 1030 -1178 627 -1178 
C 557 -1178 397 -1159 282 -1044 
C 429 -1031 493 -942 493 -833 
C 493 -725 416 -629 288 -629 
C 147 -629 77 -725 77 -840 
C 77 -1095 339 -1280 627 -1280 
C 998 -1280 1229 -922 1357 -604 
L 2496 2197 
z
" transform="scale(0.015625)"/>
      <path id="CMMI12-6d" d="M 1318 1871 
C 1331 1910 1491 2229 1728 2433 
C 1894 2586 2112 2689 2362 2689 
C 2618 2689 2707 2497 2707 2242 
C 2707 2203 2707 2076 2630 1775 
L 2470 1118 
C 2419 926 2298 453 2285 383 
C 2259 287 2221 121 2221 96 
C 2221 6 2291 -64 2387 -64 
C 2579 -64 2611 83 2669 313 
L 3053 1839 
C 3066 1890 3398 2689 4102 2689 
C 4358 2689 4448 2497 4448 2242 
C 4448 1884 4198 1188 4058 805 
C 4000 651 3968 568 3968 453 
C 3968 166 4166 -64 4474 -64 
C 5069 -64 5293 875 5293 913 
C 5293 945 5267 971 5229 971 
C 5171 971 5165 952 5133 843 
C 4986 332 4749 64 4493 64 
C 4429 64 4326 64 4326 269 
C 4326 436 4403 640 4429 710 
C 4544 1018 4832 1773 4832 2145 
C 4832 2528 4608 2816 4122 2816 
C 3693 2816 3347 2574 3091 2197 
C 3072 2542 2861 2816 2381 2816 
C 1811 2816 1510 2415 1395 2255 
C 1376 2618 1114 2816 832 2816 
C 646 2816 499 2727 378 2484 
C 262 2254 173 1865 173 1839 
C 173 1814 198 1782 243 1782 
C 294 1782 301 1788 339 1935 
C 435 2312 557 2689 813 2689 
C 960 2689 1011 2586 1011 2395 
C 1011 2254 947 2005 902 1807 
L 723 1118 
C 698 996 627 709 595 594 
C 550 428 480 128 480 96 
C 480 6 550 -64 646 -64 
C 723 -64 813 -26 864 70 
C 877 102 934 326 966 453 
L 1107 1028 
L 1318 1871 
z
" transform="scale(0.015625)"/>
     </defs>
     <use xlink:href="#CMR17-44" transform="scale(0.996264)"/>
     <use xlink:href="#CMR17-69" transform="translate(70.393556 0) scale(0.996264)"/>
     <use xlink:href="#CMR17-73" transform="translate(95.264614 0) scale(0.996264)"/>
     <use xlink:href="#CMR17-74" transform="translate(131.065952 0) scale(0.996264)"/>
     <use xlink:href="#CMR17-72" transform="translate(166.34672 0) scale(0.996264)"/>
     <use xlink:href="#CMR17-69" transform="translate(201.627488 0) scale(0.996264)"/>
     <use xlink:href="#CMR17-62" transform="translate(226.498546 0) scale(0.996264)"/>
     <use xlink:href="#CMR17-75" transform="translate(277.393916 0) scale(0.996264)"/>
     <use xlink:href="#CMR17-63" transform="translate(328.289286 0) scale(0.996264)"/>
     <use xlink:href="#CMR17-69" transform="translate(368.774946 0) scale(0.996264)"/>
     <use xlink:href="#CMR17-13" transform="translate(393.646005 0) scale(0.996264)"/>
     <use xlink:href="#CMR17-6f" transform="translate(393.646005 0) scale(0.996264)"/>
     <use xlink:href="#CMR17-6e" transform="translate(439.336482 0) scale(0.996264)"/>
     <use xlink:href="#CMR17-64" transform="translate(520.307818 0) scale(0.996264)"/>
     <use xlink:href="#CMR17-65" transform="translate(571.203188 0) scale(0.996264)"/>
     <use xlink:href="#CMR17-6c" transform="translate(641.764814 0) scale(0.996264)"/>
     <use xlink:href="#CMR17-6f" transform="translate(666.635873 0) scale(0.996264)"/>
     <use xlink:href="#CMR17-73" transform="translate(712.32635 0) scale(0.996264)"/>
     <use xlink:href="#CMR17-63" transform="translate(778.203654 0) scale(0.996264)"/>
     <use xlink:href="#CMR17-6f" transform="translate(818.689314 0) scale(0.996264)"/>
     <use xlink:href="#CMR17-65" transform="translate(866.98223 0) scale(0.996264)"/>
     <use xlink:href="#CMR17-c" transform="translate(907.467891 0) scale(0.996264)"/>
     <use xlink:href="#CMR17-63" transform="translate(957.210114 0) scale(0.996264)"/>
     <use xlink:href="#CMR17-69" transform="translate(997.695775 0) scale(0.996264)"/>
     <use xlink:href="#CMR17-65" transform="translate(1022.566833 0) scale(0.996264)"/>
     <use xlink:href="#CMR17-6e" transform="translate(1063.052494 0) scale(0.996264)"/>
     <use xlink:href="#CMR17-74" transform="translate(1111.345409 0) scale(0.996264)"/>
     <use xlink:href="#CMR17-65" transform="translate(1146.626177 0) scale(0.996264)"/>
     <use xlink:href="#CMR17-73" transform="translate(1187.111838 0) scale(0.996264)"/>
     <use xlink:href="#CMR17-64" transform="translate(1252.989142 0) scale(0.996264)"/>
     <use xlink:href="#CMR17-65" transform="translate(1303.884511 0) scale(0.996264)"/>
     <use xlink:href="#CMR17-6c" transform="translate(1344.370172 0) scale(0.996264)"/>
     <use xlink:href="#CMR17-70" transform="translate(1399.317197 0) scale(0.996264)"/>
     <use xlink:href="#CMR17-72" transform="translate(1450.212567 0) scale(0.996264)"/>
     <use xlink:href="#CMR17-6f" transform="translate(1485.493334 0) scale(0.996264)"/>
     <use xlink:href="#CMR17-64" transform="translate(1533.78625 0) scale(0.996264)"/>
     <use xlink:href="#CMR17-75" transform="translate(1584.68162 0) scale(0.996264)"/>
     <use xlink:href="#CMR17-63" transform="translate(1635.57699 0) scale(0.996264)"/>
     <use xlink:href="#CMR17-74" transform="translate(1676.06265 0) scale(0.996264)"/>
     <use xlink:href="#CMR17-6f" transform="translate(1711.343418 0) scale(0.996264)"/>
     <use xlink:href="#CMR17-63" transform="translate(1787.109861 0) scale(0.996264)"/>
     <use xlink:href="#CMR17-6f" transform="translate(1827.595522 0) scale(0.996264)"/>
     <use xlink:href="#CMR17-6e" transform="translate(1873.285999 0) scale(0.996264)"/>
     <use xlink:href="#CMR17-76" transform="translate(1921.578915 0) scale(0.996264)"/>
     <use xlink:href="#CMR17-6f" transform="translate(1967.269377 0) scale(0.996264)"/>
     <use xlink:href="#CMR17-6c" transform="translate(2012.959854 0) scale(0.996264)"/>
     <use xlink:href="#CMR17-75" transform="translate(2037.830912 0) scale(0.996264)"/>
     <use xlink:href="#CMR17-63" transform="translate(2088.726282 0) scale(0.996264)"/>
     <use xlink:href="#CMR17-69" transform="translate(2129.211943 0) scale(0.996264)"/>
     <use xlink:href="#CMR17-6f" transform="translate(2154.083001 0) scale(0.996264)"/>
     <use xlink:href="#CMR17-6e" transform="translate(2199.773478 0) scale(0.996264)"/>
     <use xlink:href="#CMR17-61" transform="translate(2250.668848 0) scale(0.996264)"/>
     <use xlink:href="#CMR17-6c" transform="translate(2296.359325 0) scale(0.996264)"/>
     <use xlink:href="#CMR17-64" transform="translate(2351.30635 0) scale(0.996264)"/>
     <use xlink:href="#CMR17-65" transform="translate(2402.20172 0) scale(0.996264)"/>
     <use xlink:href="#CMR17-6c" transform="translate(2472.763347 0) scale(0.996264)"/>
     <use xlink:href="#CMR17-6f" transform="translate(2497.634405 0) scale(0.996264)"/>
     <use xlink:href="#CMR17-73" transform="translate(2543.324882 0) scale(0.996264)"/>
     <use xlink:href="#CMR17-70" transform="translate(2609.202186 0) scale(0.996264)"/>
     <use xlink:href="#CMR17-6f" transform="translate(2662.699995 0) scale(0.996264)"/>
     <use xlink:href="#CMR17-6c" transform="translate(2708.390472 0) scale(0.996264)"/>
     <use xlink:href="#CMR17-69" transform="translate(2733.26153 0) scale(0.996264)"/>
     <use xlink:href="#CMR17-6e" transform="translate(2758.132589 0) scale(0.996264)"/>
     <use xlink:href="#CMR17-6f" transform="translate(2809.027959 0) scale(0.996264)"/>
     <use xlink:href="#CMR17-6d" transform="translate(2854.718436 0) scale(0.996264)"/>
     <use xlink:href="#CMR17-69" transform="translate(2931.638025 0) scale(0.996264)"/>
     <use xlink:href="#CMR17-6f" transform="translate(2956.509084 0) scale(0.996264)"/>
     <use xlink:href="#CMR17-73" transform="translate(3002.199561 0) scale(0.996264)"/>
     <use xlink:href="#CMR17-70" transform="translate(3068.076865 0) scale(0.996264)"/>
     <use xlink:href="#CMR17-65" transform="translate(3121.574674 0) scale(0.996264)"/>
     <use xlink:href="#CMR17-71" transform="translate(3162.060334 0) scale(0.996264)"/>
     <use xlink:href="#CMR17-75" transform="translate(3210.35325 0) scale(0.996264)"/>
     <use xlink:href="#CMR17-65" transform="translate(3261.24862 0) scale(0.996264)"/>
     <use xlink:href="#CMR17-7e" transform="translate(3304.336734 0) scale(0.996264)"/>
     <use xlink:href="#CMR17-6e" transform="translate(3301.73428 0) scale(0.996264)"/>
     <use xlink:href="#CMR17-6f" transform="translate(3352.62965 0) scale(0.996264)"/>
     <use xlink:href="#CMR17-73" transform="translate(3398.320127 0) scale(0.996264)"/>
     <use xlink:href="#CMMI12-66" transform="translate(3464.197431 0) scale(0.996264)"/>
     <use xlink:href="#CMR17-79" transform="translate(3552.993702 0) scale(0.996264)"/>
     <use xlink:href="#CMMI12-6d" transform="translate(3631.362584 0) scale(0.996264)"/>
    </g>
   </g>
  </g>
 </g>
 <defs>
  <clipPath id="p5777ffe2a7">
   <rect x="78.04564" y="26.204405" width="837" height="498.96"/>
  </clipPath>
 </defs>
</svg>
